Exo2-Bold.ufo
<glyph name="exclam" format="2">
  <advance width="299.74285714285713"/>
  <unicode hex="0021"/>
  <outline>
    <contour>
      <point x="222.89523809523808" y="695.0" type="line"/>
      <point x="76.45714285714286" y="695.0" type="line"/>
      <point x="76.45714285714286" y="425.03809523809525" type="line"/>
      <point x="91.75238095238095" y="219.07619047619048" type="line"/>
      <point x="207.6" y="219.07619047619048" type="line"/>
      <point x="222.89523809523808" y="425.03809523809525" type="line"/>
    </contour>
    <contour>
      <point x="167.27619047619046" y="151.47619047619048" type="curve" smooth="yes"/>
      <point x="133.07619047619048" y="151.47619047619048" type="line" smooth="yes"/>
      <point x="93.92380952380952" y="151.47619047619048"/>
      <point x="81.19047619047619" y="138.74285714285713"/>
      <point x="81.19047619047619" y="99.5904761904762" type="curve" smooth="yes"/>
      <point x="81.19047619047619" y="51.885714285714286" type="line" smooth="yes"/>
      <point x="81.19047619047619" y="12.733333333333334"/>
      <point x="93.92380952380952" y="0.0"/>
      <point x="133.07619047619048" y="0.0" type="curve" smooth="yes"/>
      <point x="167.27619047619046" y="0.0" type="line" smooth="yes"/>
      <point x="206.42857142857142" y="0.0"/>
      <point x="219.16190476190476" y="12.733333333333334"/>
      <point x="219.16190476190476" y="51.885714285714286" type="curve" smooth="yes"/>
      <point x="219.16190476190476" y="99.5904761904762" type="line" smooth="yes"/>
      <point x="219.16190476190476" y="138.74285714285713"/>
      <point x="206.42857142857142" y="151.47619047619048"/>
    </contour>
  </outline>
</glyph>
<glyph name="quotedbl" format="2">
  <advance width="374.7142857142857"/>
  <unicode hex="0022"/>
  <outline>
    <contour>
      <point x="322.64761904761906" y="690.0" type="line"/>
      <point x="214.0" y="690.0" type="line"/>
      <point x="222.95238095238096" y="468.7047619047619" type="line"/>
      <point x="313.6952380952381" y="468.7047619047619" type="line"/>
    </contour>
    <contour>
      <point x="161.32380952380953" y="690.0" type="line"/>
      <point x="52.67619047619048" y="690.0" type="line"/>
      <point x="61.01904761904762" y="468.7047619047619" type="line"/>
      <point x="152.37142857142857" y="468.7047619047619" type="line"/>
    </contour>
  </outline>
</glyph>
<glyph name="numbersign" format="2">
  <advance width="710.1333333333333"/>
  <unicode hex="0023"/>
  <outline>
    <contour>
      <point x="345.81904761904764" y="690.0" type="line"/>
      <point x="234.0952380952381" y="690.0" type="line"/>
      <point x="114.0952380952381" y="0.0" type="line"/>
      <point x="225.8190476190476" y="0.0" type="line"/>
    </contour>
    <contour>
      <point x="596.8190476190476" y="690.0" type="line"/>
      <point x="485.0952380952381" y="690.0" type="line"/>
      <point x="365.0952380952381" y="0.0" type="line"/>
      <point x="476.81904761904764" y="0.0" type="line"/>
    </contour>
    <contour>
      <point x="678.1619047619048" y="514.4190476190477" type="line"/>
      <point x="91.04761904761905" y="514.4190476190477" type="line"/>
      <point x="73.75238095238095" y="425.9428571428571" type="line"/>
      <point x="660.8666666666667" y="425.9428571428571" type="line"/>
    </contour>
    <contour>
      <point x="636.1619047619048" y="285.7142857142857" type="line"/>
      <point x="49.04761904761905" y="285.7142857142857" type="line"/>
      <point x="31.752380952380953" y="197.23809523809524" type="line"/>
      <point x="618.8666666666667" y="197.23809523809524" type="line"/>
    </contour>
  </outline>
</glyph>
<glyph name="dollar" format="2">
  <advance width="577.3238095238095"/>
  <unicode hex="0024"/>
  <outline>
    <contour>
      <point x="293.15238095238095" y="702.7809523809524" type="curve" smooth="yes"/>
      <point x="116.58095238095238" y="702.7809523809524"/>
      <point x="44.8" y="670.1904761904761"/>
      <point x="44.8" y="511.9714285714286" type="curve" smooth="yes"/>
      <point x="44.8" y="409.752380952381"/>
      <point x="82.75238095238095" y="347.87619047619046"/>
      <point x="186.4857142857143" y="310.06666666666666" type="curve" smooth="yes"/>
      <point x="322.3619047619048" y="261.03809523809525" type="line" smooth="yes"/>
      <point x="368.5047619047619" y="245.8190476190476"/>
      <point x="387.64761904761906" y="234.38095238095238"/>
      <point x="387.64761904761906" y="184.9047619047619" type="curve" smooth="yes"/>
      <point x="387.64761904761906" y="131.77142857142857"/>
      <point x="366.1142857142857" y="120.67619047619047"/>
      <point x="287.2952380952381" y="120.67619047619047" type="curve" smooth="yes"/>
      <point x="244.15238095238095" y="120.67619047619047"/>
      <point x="186.77142857142857" y="122.06666666666666"/>
      <point x="61.58095238095238" y="125.06666666666666" type="curve"/>
      <point x="52.01379047619048" y="13.262933333333333" type="line"/>
      <point x="157.43809523809523" y="-10.39047619047619"/>
      <point x="243.46666666666667" y="-12.780952380952382"/>
      <point x="287.0285714285714" y="-12.780952380952382" type="curve" smooth="yes"/>
      <point x="473.25714285714287" y="-12.780952380952382"/>
      <point x="539.6952380952381" y="29.2"/>
      <point x="539.6952380952381" y="186.02857142857144" type="curve" smooth="yes"/>
      <point x="539.6952380952381" y="287.0285714285714"/>
      <point x="504.96190476190475" y="350.2952380952381"/>
      <point x="395.79047619047617" y="389.32380952380953" type="curve" smooth="yes"/>
      <point x="267.64761904761906" y="434.0095238095238" type="line" smooth="yes"/>
      <point x="215.38095238095238" y="450.79047619047617"/>
      <point x="195.45714285714286" y="463.83809523809526"/>
      <point x="195.45714285714286" y="512.0952380952381" type="curve" smooth="yes"/>
      <point x="195.45714285714286" y="570.8857142857142"/>
      <point x="220.86666666666667" y="575.2761904761904"/>
      <point x="293.85714285714283" y="575.2761904761904" type="curve" smooth="yes"/>
      <point x="366.6666666666667" y="575.2761904761904"/>
      <point x="450.3047619047619" y="573.6666666666666"/>
      <point x="507.6952380952381" y="572.0571428571428" type="curve"/>
      <point x="517.2142476190476" y="675.7370666666667" type="line"/>
      <point x="441.9142857142857" y="698.0"/>
      <point x="360.1047619047619" y="702.7809523809524"/>
    </contour>
    <contour>
      <point x="316.6952380952381" y="34.523809523809526" type="line"/>
      <point x="206.1904761904762" y="34.523809523809526" type="line"/>
      <point x="191.84761904761905" y="-119.75238095238095" type="line"/>
      <point x="302.96190476190475" y="-119.75238095238095" type="line"/>
    </contour>
    <contour>
      <point x="398.2857142857143" y="793.2666666666667" type="line"/>
      <point x="287.3904761904762" y="793.2666666666667" type="line"/>
      <point x="269.3142857142857" y="625.5714285714286" type="line"/>
      <point x="380.42857142857144" y="625.5714285714286" type="line"/>
    </contour>
  </outline>
</glyph>
<glyph name="percent" format="2">
  <advance width="906.9809523809524"/>
  <unicode hex="0025"/>
  <outline>
    <contour>
      <point x="204.82857142857142" y="703.3904761904762" type="curve" smooth="yes"/>
      <point x="78.14285714285714" y="703.3904761904762"/>
      <point x="34.19047619047619" y="650.9047619047619"/>
      <point x="34.19047619047619" y="498.0" type="curve" smooth="yes"/>
      <point x="34.19047619047619" y="345.7047619047619"/>
      <point x="78.14285714285714" y="292.6095238095238"/>
      <point x="204.82857142857142" y="292.6095238095238" type="curve" smooth="yes"/>
      <point x="332.9047619047619" y="292.6095238095238"/>
      <point x="376.85714285714283" y="345.7047619047619"/>
      <point x="376.85714285714283" y="498.0" type="curve" smooth="yes"/>
      <point x="376.85714285714283" y="650.9047619047619"/>
      <point x="332.9047619047619" y="703.3904761904762"/>
    </contour>
    <contour>
      <point x="204.21904761904761" y="620.6" type="curve" smooth="yes"/>
      <point x="253.6" y="620.6"/>
      <point x="267.1333333333333" y="597.9238095238095"/>
      <point x="267.1333333333333" y="498.0" type="curve" smooth="yes"/>
      <point x="267.1333333333333" y="397.0761904761905"/>
      <point x="253.6" y="375.4"/>
      <point x="204.21904761904761" y="375.4" type="curve" smooth="yes"/>
      <point x="156.44761904761904" y="375.4"/>
      <point x="143.3047619047619" y="397.0761904761905"/>
      <point x="143.3047619047619" y="498.0" type="curve" smooth="yes"/>
      <point x="143.3047619047619" y="597.9238095238095"/>
      <point x="156.44761904761904" y="620.6"/>
    </contour>
    <contour>
      <point x="706.2952380952381" y="690.0" type="line"/>
      <point x="611.9904761904762" y="690.0" type="line"/>
      <point x="198.46666666666667" y="0.0" type="line"/>
      <point x="292.7714285714286" y="0.0" type="line"/>
    </contour>
    <contour>
      <point x="701.152380952381" y="399.2190476190476" type="curve" smooth="yes"/>
      <point x="574.4666666666667" y="399.2190476190476"/>
      <point x="530.5142857142857" y="346.12380952380954"/>
      <point x="530.5142857142857" y="193.82857142857142" type="curve" smooth="yes"/>
      <point x="530.5142857142857" y="40.923809523809524"/>
      <point x="574.4666666666667" y="-11.561904761904762"/>
      <point x="701.152380952381" y="-11.561904761904762" type="curve" smooth="yes"/>
      <point x="828.6190476190476" y="-11.561904761904762"/>
      <point x="872.5714285714286" y="40.923809523809524"/>
      <point x="872.5714285714286" y="193.82857142857142" type="curve" smooth="yes"/>
      <point x="872.5714285714286" y="346.12380952380954"/>
      <point x="828.6190476190476" y="399.2190476190476"/>
    </contour>
    <contour>
      <point x="700.5428571428571" y="315.81904761904764" type="curve" smooth="yes"/>
      <point x="749.3142857142857" y="315.81904761904764"/>
      <point x="763.4571428571429" y="295.3619047619048"/>
      <point x="763.4571428571429" y="193.82857142857142" type="curve" smooth="yes"/>
      <point x="763.4571428571429" y="92.68571428571428"/>
      <point x="749.3142857142857" y="71.22857142857143"/>
      <point x="700.5428571428571" y="71.22857142857143" type="curve" smooth="yes"/>
      <point x="652.1619047619048" y="71.22857142857143"/>
      <point x="639.0190476190476" y="92.68571428571428"/>
      <point x="639.6285714285714" y="193.82857142857142" type="curve" smooth="yes"/>
      <point x="639.0190476190476" y="295.3619047619048"/>
      <point x="652.1619047619048" y="315.81904761904764"/>
    </contour>
  </outline>
</glyph>
<glyph name="ampersand" format="2">
  <advance width="765.2666666666667"/>
  <unicode hex="0026"/>
  <outline>
    <contour>
      <point x="340.48571428571427" y="702.1714285714286" type="curve" smooth="yes"/>
      <point x="148.45714285714286" y="702.1714285714286"/>
      <point x="72.23809523809524" y="681.3904761904762"/>
      <point x="72.23809523809524" y="520.6095238095238" type="curve" smooth="yes"/>
      <point x="72.23809523809524" y="419.8285714285714"/>
      <point x="103.62857142857143" y="368.3904761904762"/>
      <point x="187.23809523809524" y="360.3904761904762" type="curve"/>
      <point x="187.23809523809524" y="355.6095238095238" type="line"/>
      <point x="86.23809523809524" y="346.6095238095238"/>
      <point x="51.457142857142856" y="280.3904761904762"/>
      <point x="51.457142857142856" y="175.3904761904762" type="curve" smooth="yes"/>
      <point x="51.457142857142856" y="36.39047619047619"/>
      <point x="111.4095238095238" y="-12.17142857142857"/>
      <point x="259.53333333333336" y="-12.17142857142857" type="curve" smooth="yes"/>
      <point x="374.3619047619048" y="-12.17142857142857"/>
      <point x="435.67619047619047" y="13.876190476190477"/>
      <point x="495.16190476190474" y="81.33333333333333" type="curve"/>
      <point x="480.7714285714286" y="165.73333333333332" type="line"/>
      <point x="436.62857142857143" y="130.13333333333333"/>
      <point x="371.4095238095238" y="111.38095238095238"/>
      <point x="302.9809523809524" y="110.38095238095238" type="curve" smooth="yes"/>
      <point x="230.38095238095238" y="109.99047619047619"/>
      <point x="212.1904761904762" y="130.3047619047619"/>
      <point x="212.1904761904762" y="205.15238095238095" type="curve" smooth="yes"/>
      <point x="212.1904761904762" y="283.3142857142857"/>
      <point x="234.42857142857142" y="304.45714285714286"/>
      <point x="310.9047619047619" y="304.45714285714286" type="curve" smooth="yes"/>
      <point x="712.0285714285715" y="304.45714285714286" type="line"/>
      <point x="712.0285714285715" y="406.8095238095238" type="line"/>
      <point x="319.247619047619" y="406.8095238095238" type="line" smooth="yes"/>
      <point x="247.8190476190476" y="406.8095238095238"/>
      <point x="226.23809523809524" y="425.6857142857143"/>
      <point x="226.23809523809524" y="497.5809523809524" type="curve" smooth="yes"/>
      <point x="226.23809523809524" y="574.9142857142857"/>
      <point x="251.47619047619048" y="587.7428571428571"/>
      <point x="336.3142857142857" y="587.7428571428571" type="curve" smooth="yes"/>
      <point x="393.1714285714286" y="587.7428571428571"/>
      <point x="451.45714285714286" y="586.3523809523809"/>
      <point x="485.14285714285717" y="584.7428571428571" type="curve"/>
      <point x="502.8285714285714" y="690.0" type="line"/>
      <point x="442.8285714285714" y="701.1714285714286"/>
      <point x="382.48571428571427" y="702.1714285714286"/>
    </contour>
    <contour>
      <point x="604.9142857142857" y="513.4857142857143" type="line"/>
      <point x="480.55238095238093" y="513.4857142857143" type="line"/>
      <point x="466.42857142857144" y="360.43809523809523" type="line"/>
      <point x="466.42857142857144" y="115.63809523809523" type="line" smooth="yes"/>
      <point x="466.42857142857144" y="35.56190476190476"/>
      <point x="516.1142857142858" y="-11.561904761904762"/>
      <point x="603.5809523809523" y="-11.561904761904762" type="curve" smooth="yes"/>
      <point x="635.4857142857143" y="-11.561904761904762"/>
      <point x="696.6857142857143" y="-5.390476190476191"/>
      <point x="731.0285714285715" y="7.733333333333333" type="curve"/>
      <point x="714.7333333333333" y="108.2095238095238" type="line"/>
      <point x="653.152380952381" y="108.2095238095238" type="line" smooth="yes"/>
      <point x="616.9619047619047" y="108.2095238095238"/>
      <point x="604.9142857142857" y="121.25714285714285"/>
      <point x="604.9142857142857" y="158.83809523809524" type="curve" smooth="yes"/>
    </contour>
  </outline>
</glyph>
<glyph name="quotesingle" format="2">
  <advance width="213.3904761904762"/>
  <unicode hex="0027"/>
  <outline>
    <contour>
      <point x="161.32380952380953" y="690.0" type="line"/>
      <point x="52.67619047619048" y="690.0" type="line"/>
      <point x="61.01904761904762" y="468.7047619047619" type="line"/>
      <point x="152.37142857142857" y="468.7047619047619" type="line"/>
    </contour>
  </outline>
</glyph>
<glyph name="parenleft" format="2">
  <advance width="365.2952380952381"/>
  <unicode hex="0028"/>
  <outline>
    <contour>
      <point x="329.2" y="790.0" type="line"/>
      <point x="129.0952380952381" y="727.2952380952381"/>
      <point x="39.01904761904762" y="577.2952380952381"/>
      <point x="39.01904761904762" y="312.0" type="curve" smooth="yes"/>
      <point x="39.01904761904762" y="48.7047619047619"/>
      <point x="129.0952380952381" y="-101.29523809523809"/>
      <point x="329.2" y="-165.0" type="curve"/>
      <point x="346.4952380952381" y="-100.77142857142857" type="line"/>
      <point x="227.86666666666667" y="-43.19047619047619"/>
      <point x="182.28571428571428" y="101.41904761904762"/>
      <point x="182.28571428571428" y="313.0" type="curve" smooth="yes"/>
      <point x="182.28571428571428" y="528.5809523809523"/>
      <point x="227.86666666666667" y="672.1904761904761"/>
      <point x="346.4952380952381" y="725.7714285714286" type="curve"/>
    </contour>
  </outline>
</glyph>
<glyph name="parenright" format="2">
  <advance width="365.2952380952381"/>
  <unicode hex="0029"/>
  <outline>
    <contour>
      <point x="36.095238095238095" y="790.0" type="curve"/>
      <point x="18.8" y="725.7714285714286" type="line"/>
      <point x="137.42857142857142" y="672.1904761904761"/>
      <point x="183.0095238095238" y="528.5809523809523"/>
      <point x="183.0095238095238" y="313.0" type="curve" smooth="yes"/>
      <point x="183.0095238095238" y="101.41904761904762"/>
      <point x="137.42857142857142" y="-43.19047619047619"/>
      <point x="18.8" y="-100.77142857142857" type="curve"/>
      <point x="36.095238095238095" y="-165.0" type="line"/>
      <point x="236.2" y="-101.29523809523809"/>
      <point x="326.2761904761905" y="48.7047619047619"/>
      <point x="326.2761904761905" y="312.0" type="curve" smooth="yes"/>
      <point x="326.2761904761905" y="577.2952380952381"/>
      <point x="236.2" y="727.2952380952381"/>
    </contour>
  </outline>
</glyph>
<glyph name="asterisk" format="2">
  <advance width="451.73333333333335"/>
  <unicode hex="002A"/>
  <outline>
    <contour>
      <point x="266.93333333333334" y="691.3904761904762" type="line"/>
      <point x="184.8" y="691.3904761904762" type="line"/>
      <point x="197.31428571428572" y="523.3142857142857" type="line"/>
      <point x="89.62857142857143" y="395.3142857142857" type="line"/>
      <point x="155.85714285714286" y="346.9904761904762" type="line"/>
      <point x="225.56190476190477" y="467.81904761904764" type="line"/>
      <point x="296.26666666666665" y="346.3809523809524" type="line"/>
      <point x="361.4952380952381" y="394.7047619047619" type="line"/>
      <point x="254.59047619047618" y="523.7047619047619" type="line"/>
    </contour>
    <contour>
      <point x="63.095238095238095" y="611.6380952380953" type="line"/>
      <point x="37.628571428571426" y="534.2857142857143" type="line"/>
      <point x="160.84761904761905" y="505.4095238095238" type="line"/>
      <point x="178.53333333333333" y="527.4857142857143" type="line"/>
      <point x="179.14285714285714" y="563.0761904761905" type="line"/>
    </contour>
    <contour>
      <point x="388.6380952380952" y="612.0285714285715" type="line"/>
      <point x="272.5904761904762" y="563.0761904761905" type="line"/>
      <point x="273.37142857142857" y="527.4857142857143" type="line"/>
      <point x="291.6666666666667" y="505.4095238095238" type="line"/>
      <point x="414.1047619047619" y="533.6761904761905" type="line"/>
    </contour>
  </outline>
</glyph>
<glyph name="plus" format="2">
  <advance width="539.4571428571429"/>
  <unicode hex="002B"/>
  <outline>
    <contour>
      <point x="497.0" y="355.4" type="line"/>
      <point x="41.84761904761905" y="355.4" type="line"/>
      <point x="41.84761904761905" y="246.72380952380954" type="line"/>
      <point x="497.0" y="246.72380952380954" type="line"/>
    </contour>
    <contour>
      <point x="323.9809523809524" y="522.5428571428571" type="line"/>
      <point x="214.25714285714287" y="522.5428571428571" type="line"/>
      <point x="214.86666666666667" y="79.58095238095238" type="line"/>
      <point x="323.9809523809524" y="79.58095238095238" type="line"/>
    </contour>
  </outline>
</glyph>
<glyph name="comma" format="2">
  <advance width="242.8095238095238"/>
  <unicode hex="002C"/>
  <outline>
    <contour>
      <point x="139.07619047619048" y="151.47619047619048" type="curve" smooth="yes"/>
      <point x="104.17142857142858" y="151.47619047619048" type="line" smooth="yes"/>
      <point x="66.4095238095238" y="151.47619047619048"/>
      <point x="53.06666666666666" y="138.74285714285713"/>
      <point x="51.457142857142856" y="99.5904761904762" type="curve" smooth="yes"/>
      <point x="50.285714285714285" y="45.714285714285715" type="line" smooth="yes"/>
      <point x="50.67619047619048" y="16.904761904761905"/>
      <point x="64.8" y="0.0"/>
      <point x="92.39047619047619" y="0.0" type="curve"/>
      <point x="92.0" y="-46.82857142857143"/>
      <point x="88.39047619047619" y="-85.9047619047619"/>
      <point x="77.65714285714286" y="-128.46666666666667" type="curve"/>
      <point x="139.2" y="-146.76190476190476" type="line"/>
      <point x="170.83809523809524" y="-95.46666666666667"/>
      <point x="189.74285714285713" y="-43.46666666666667"/>
      <point x="190.35238095238094" y="35.59047619047619" type="curve" smooth="yes"/>
      <point x="189.74285714285713" y="99.5904761904762" type="line" smooth="yes"/>
      <point x="189.96190476190475" y="138.74285714285713"/>
      <point x="177.44761904761904" y="151.47619047619048"/>
    </contour>
  </outline>
</glyph>
<glyph name="hyphen" format="2">
  <advance width="413.74285714285713"/>
  <unicode hex="002D"/>
  <outline>
    <contour>
      <point x="355.7238095238095" y="303.37142857142857" type="line"/>
      <point x="58.01904761904762" y="303.37142857142857" type="line"/>
      <point x="58.01904761904762" y="206.36190476190475" type="line"/>
      <point x="355.7238095238095" y="206.36190476190475" type="line"/>
    </contour>
  </outline>
</glyph>
<glyph name="period" format="2">
  <advance width="245.59047619047618"/>
  <unicode hex="002E"/>
  <outline>
    <contour>
      <point x="142.63809523809525" y="151.47619047619048" type="curve" smooth="yes"/>
      <point x="102.95238095238095" y="151.47619047619048" type="line" smooth="yes"/>
      <point x="63.8" y="151.47619047619048"/>
      <point x="51.06666666666666" y="138.74285714285713"/>
      <point x="51.06666666666666" y="99.5904761904762" type="curve" smooth="yes"/>
      <point x="51.06666666666666" y="51.885714285714286" type="line" smooth="yes"/>
      <point x="51.06666666666666" y="12.733333333333334"/>
      <point x="63.8" y="0.0"/>
      <point x="102.95238095238095" y="0.0" type="curve" smooth="yes"/>
      <point x="142.63809523809525" y="0.0" type="line" smooth="yes"/>
      <point x="181.7904761904762" y="0.0"/>
      <point x="194.52380952380952" y="12.733333333333334"/>
      <point x="194.52380952380952" y="51.885714285714286" type="curve" smooth="yes"/>
      <point x="194.52380952380952" y="99.5904761904762" type="line" smooth="yes"/>
      <point x="194.52380952380952" y="138.74285714285713"/>
      <point x="181.7904761904762" y="151.47619047619048"/>
    </contour>
  </outline>
</glyph>
<glyph name="slash" format="2">
  <advance width="550.2095238095238"/>
  <unicode hex="002F"/>
  <outline>
    <contour>
      <point x="530.3333333333334" y="690.0" type="line"/>
      <point x="412.87619047619046" y="690.0" type="line"/>
      <point x="19.876190476190477" y="-72.29523809523809" type="line"/>
      <point x="137.33333333333334" y="-72.29523809523809" type="line"/>
    </contour>
  </outline>
</glyph>
<glyph name="zero" format="2">
  <advance width="628.7428571428571"/>
  <unicode hex="0030"/>
  <outline>
    <contour>
      <point x="313.9809523809524" y="703.3904761904762" type="curve" smooth="yes"/>
      <point x="116.92380952380952" y="703.3904761904762"/>
      <point x="49.23809523809524" y="608.0285714285715"/>
      <point x="49.23809523809524" y="345.0" type="curve" smooth="yes"/>
      <point x="49.23809523809524" y="81.97142857142858"/>
      <point x="116.92380952380952" y="-13.39047619047619"/>
      <point x="313.9809523809524" y="-13.39047619047619" type="curve" smooth="yes"/>
      <point x="511.42857142857144" y="-13.39047619047619"/>
      <point x="579.504761904762" y="81.97142857142858"/>
      <point x="579.504761904762" y="345.0" type="curve" smooth="yes"/>
      <point x="579.504761904762" y="608.0285714285715"/>
      <point x="511.42857142857144" y="703.3904761904762"/>
    </contour>
    <contour>
      <point x="312.9809523809524" y="582.0095238095238" type="curve" smooth="yes"/>
      <point x="403.3619047619048" y="582.0095238095238"/>
      <point x="429.7238095238095" y="533.3619047619047"/>
      <point x="429.7238095238095" y="345.0" type="curve" smooth="yes"/>
      <point x="429.7238095238095" y="156.63809523809525"/>
      <point x="403.3619047619048" y="107.99047619047619"/>
      <point x="312.9809523809524" y="107.99047619047619" type="curve" smooth="yes"/>
      <point x="224.9904761904762" y="107.99047619047619"/>
      <point x="199.01904761904763" y="156.63809523809525"/>
      <point x="199.01904761904763" y="345.0" type="curve" smooth="yes"/>
      <point x="199.01904761904763" y="533.3619047619047"/>
      <point x="224.9904761904762" y="582.0095238095238"/>
    </contour>
  </outline>
</glyph>
<glyph name="one" format="2">
  <advance width="429.42857142857144"/>
  <unicode hex="0031"/>
  <outline>
    <contour>
      <point x="336.0952380952381" y="690.0" type="line"/>
      <point x="184.0952380952381" y="690.0" type="line"/>
      <point x="11.142857142857142" y="621.1714285714286" type="line"/>
      <point x="29.438095238095237" y="518.6476190476191" type="line"/>
      <point x="190.26666666666668" y="560.6190476190476" type="line"/>
      <point x="185.0952380952381" y="535.495238095238"/>
      <point x="184.0952380952381" y="511.37142857142857"/>
      <point x="184.0952380952381" y="486.247619047619" type="curve" smooth="yes"/>
      <point x="184.0952380952381" y="0.0" type="line"/>
      <point x="336.0952380952381" y="0.0" type="line"/>
    </contour>
  </outline>
</glyph>
<glyph name="two" format="2">
  <advance width="578.0571428571428"/>
  <unicode hex="0032"/>
  <outline>
    <contour>
      <point x="282.9809523809524" y="702.0" type="curve" smooth="yes"/>
      <point x="213.1238095238095" y="702.0"/>
      <point x="148.4857142857143" y="698.3904761904762"/>
      <point x="50.58095238095238" y="678.1714285714286" type="curve"/>
      <point x="56.971428571428575" y="563.0571428571428" type="line"/>
      <point x="148.26666666666668" y="571.152380952381"/>
      <point x="196.82857142857142" y="572.3714285714286"/>
      <point x="265.34285714285716" y="572.3714285714286" type="curve" smooth="yes"/>
      <point x="327.4095238095238" y="572.3714285714286"/>
      <point x="358.03809523809525" y="567.3238095238095"/>
      <point x="359.25714285714287" y="525.7714285714286" type="curve" smooth="yes"/>
      <point x="360.4761904761905" y="477.0952380952381"/>
      <point x="316.74285714285713" y="413.43809523809523"/>
      <point x="235.64761904761906" y="328.6857142857143" type="curve" smooth="yes"/>
      <point x="66.65714285714286" y="147.45714285714286" type="line" smooth="yes"/>
      <point x="50.142857142857146" y="128.77142857142857"/>
      <point x="45.19047619047619" y="110.08571428571429"/>
      <point x="45.19047619047619" y="84.83809523809524" type="curve" smooth="yes"/>
      <point x="45.19047619047619" y="0.0" type="line"/>
      <point x="534.4761904761905" y="0.0" type="line"/>
      <point x="534.4761904761905" y="136.89523809523808" type="line"/>
      <point x="327.23809523809524" y="136.89523809523808" type="line" smooth="yes"/>
      <point x="293.62857142857143" y="137.28571428571428"/>
      <point x="257.7047619047619" y="135.89523809523808"/>
      <point x="224.87619047619046" y="129.94285714285715" type="curve"/>
      <point x="401.8952380952381" y="313.8095238095238" type="line" smooth="yes"/>
      <point x="493.2857142857143" y="410.6857142857143"/>
      <point x="514.2095238095238" y="462.26666666666665"/>
      <point x="514.2095238095238" y="541.5809523809523" type="curve" smooth="yes"/>
      <point x="514.2095238095238" y="672.8761904761905"/>
      <point x="423.79047619047617" y="702.0"/>
    </contour>
  </outline>
</glyph>
<glyph name="three" format="2">
  <advance width="565.8095238095239"/>
  <unicode hex="0033"/>
  <outline>
    <contour>
      <point x="270.9809523809524" y="703.3904761904762" type="curve" smooth="yes"/>
      <point x="199.9047619047619" y="703.3904761904762"/>
      <point x="128.26666666666668" y="697.3904761904762"/>
      <point x="53.971428571428575" y="685.0" type="curve"/>
      <point x="60.58095238095238" y="574.9619047619047" type="line"/>
      <point x="109.53333333333333" y="577.4"/>
      <point x="176.65714285714284" y="579.2285714285714"/>
      <point x="245.3904761904762" y="579.2285714285714" type="curve" smooth="yes"/>
      <point x="327.7238095238095" y="579.2285714285714"/>
      <point x="351.64761904761906" y="569.8380952380952"/>
      <point x="352.25714285714287" y="503.1142857142857" type="curve" smooth="yes"/>
      <point x="352.8666666666667" y="448.7047619047619"/>
      <point x="344.81904761904764" y="411.247619047619"/>
      <point x="258.0952380952381" y="411.247619047619" type="curve" smooth="yes"/>
      <point x="128.75238095238095" y="411.247619047619" type="line"/>
      <point x="128.75238095238095" y="306.67619047619047" type="line"/>
      <point x="258.0952380952381" y="307.45714285714286" type="line" smooth="yes"/>
      <point x="345.4761904761905" y="307.84761904761905"/>
      <point x="363.74285714285713" y="276.2190476190476"/>
      <point x="363.74285714285713" y="211.63809523809525" type="curve" smooth="yes"/>
      <point x="363.74285714285713" y="131.57142857142858"/>
      <point x="332.3809523809524" y="111.77142857142857"/>
      <point x="236.97142857142856" y="111.77142857142857" type="curve" smooth="yes"/>
      <point x="176.14285714285714" y="111.77142857142857"/>
      <point x="127.0" y="113.99047619047619"/>
      <point x="46.8" y="119.2095238095238" type="curve"/>
      <point x="40.8" y="5.0" type="line"/>
      <point x="115.70476190476191" y="-5.390476190476191"/>
      <point x="198.17142857142858" y="-13.39047619047619"/>
      <point x="278.0761904761905" y="-13.39047619047619" type="curve" smooth="yes"/>
      <point x="453.0571428571429" y="-13.39047619047619"/>
      <point x="516.3523809523809" y="48.266666666666666"/>
      <point x="514.3523809523809" y="192.0" type="curve" smooth="yes"/>
      <point x="512.7428571428571" y="293.2952380952381"/>
      <point x="484.18095238095236" y="350.0"/>
      <point x="391.4952380952381" y="365.0" type="curve"/>
      <point x="391.4952380952381" y="369.0" type="line"/>
      <point x="475.35238095238094" y="383.2190476190476"/>
      <point x="496.35238095238094" y="447.7047619047619"/>
      <point x="496.35238095238094" y="543.0" type="curve" smooth="yes"/>
      <point x="496.35238095238094" y="665.3904761904762"/>
      <point x="431.5238095238095" y="703.3904761904762"/>
    </contour>
  </outline>
</glyph>
<glyph name="four" format="2">
  <advance width="636.447619047619"/>
  <unicode hex="0034"/>
  <outline>
    <contour>
      <point x="355.18095238095236" y="690.0" type="line"/>
      <point x="210.64761904761906" y="690.0" type="line"/>
      <point x="32.06666666666666" y="263.7238095238095" type="line" smooth="yes"/>
      <point x="9.019047619047619" y="208.28571428571428"/>
      <point x="44.8" y="151.58095238095237"/>
      <point x="105.45714285714286" y="151.58095238095237" type="curve" smooth="yes"/>
      <point x="521.1142857142858" y="151.58095238095237" type="line"/>
      <point x="605.4285714285714" y="166.0952380952381" type="line"/>
      <point x="605.4285714285714" y="260.32380952380953" type="line"/>
      <point x="211.45714285714286" y="260.32380952380953" type="line" smooth="yes"/>
      <point x="192.1904761904762" y="260.32380952380953"/>
      <point x="181.14285714285714" y="270.93333333333334"/>
      <point x="190.8" y="293.247619047619" type="curve" smooth="yes"/>
    </contour>
    <contour>
      <point x="519.1142857142858" y="555.8285714285714" type="line"/>
      <point x="403.43809523809523" y="555.8285714285714" type="line"/>
      <point x="378.1904761904762" y="446.1714285714286" type="line"/>
      <point x="378.1904761904762" y="0.0" type="line"/>
      <point x="519.1142857142858" y="0.0" type="line"/>
    </contour>
  </outline>
</glyph>
<glyph name="five" format="2">
  <advance width="550.9333333333333"/>
  <unicode hex="0035"/>
  <outline>
    <contour>
      <point x="488.3047619047619" y="690.0" type="line"/>
      <point x="82.01904761904763" y="690.0" type="line"/>
      <point x="64.84761904761905" y="386.5809523809524" type="line" smooth="yes"/>
      <point x="63.457142857142856" y="357.06666666666666"/>
      <point x="83.58095238095238" y="333.9428571428571"/>
      <point x="112.87619047619047" y="330.7714285714286" type="curve" smooth="yes"/>
      <point x="196.8190476190476" y="321.4761904761905" type="line" smooth="yes"/>
      <point x="318.84761904761905" y="310.3809523809524"/>
      <point x="361.6952380952381" y="301.6952380952381"/>
      <point x="358.3047619047619" y="213.85714285714286" type="curve" smooth="yes"/>
      <point x="355.5238095238095" y="145.9142857142857"/>
      <point x="334.0857142857143" y="115.8952380952381"/>
      <point x="229.7047619047619" y="115.8952380952381" type="curve" smooth="yes"/>
      <point x="182.14285714285714" y="115.8952380952381"/>
      <point x="116.70476190476191" y="120.72380952380952"/>
      <point x="52.36190476190476" y="127.99047619047619" type="curve"/>
      <point x="38.01904761904762" y="9.657142857142857" type="line"/>
      <point x="120.87619047619047" y="-4.390476190476191"/>
      <point x="204.56190476190477" y="-12.0"/>
      <point x="268.4190476190476" y="-12.0" type="curve" smooth="yes"/>
      <point x="461.32380952380953" y="-12.0"/>
      <point x="508.6952380952381" y="92.70476190476191"/>
      <point x="508.6952380952381" y="210.73333333333332" type="curve" smooth="yes"/>
      <point x="509.3047619047619" y="335.1142857142857"/>
      <point x="458.23809523809524" y="417.247619047619"/>
      <point x="291.26666666666665" y="435.0285714285714" type="curve" smooth="yes"/>
      <point x="191.9142857142857" y="446.54285714285714" type="line"/>
      <point x="199.74285714285713" y="571.5714285714286" type="line"/>
      <point x="483.1333333333333" y="571.5714285714286" type="line"/>
    </contour>
  </outline>
</glyph>
<glyph name="six" format="2">
  <advance width="587.8857142857142"/>
  <unicode hex="0036"/>
  <outline>
    <contour>
      <point x="339.0761904761905" y="702.0" type="curve" smooth="yes"/>
      <point x="146.92380952380952" y="702.0"/>
      <point x="50.84761904761905" y="653.0"/>
      <point x="50.84761904761905" y="337.7809523809524" type="curve" smooth="yes"/>
      <point x="50.84761904761905" y="61.095238095238095"/>
      <point x="103.17142857142858" y="-12.0"/>
      <point x="305.6857142857143" y="-12.0" type="curve" smooth="yes"/>
      <point x="506.79047619047617" y="-12.0"/>
      <point x="547.6476190476191" y="76.4095238095238"/>
      <point x="547.6476190476191" y="235.63809523809525" type="curve" smooth="yes"/>
      <point x="547.6476190476191" y="393.0"/>
      <point x="502.64761904761906" y="454.7809523809524"/>
      <point x="350.79047619047617" y="454.7809523809524" type="curve" smooth="yes"/>
      <point x="252.05714285714285" y="454.7809523809524"/>
      <point x="203.83809523809524" y="427.7809523809524"/>
      <point x="137.66666666666666" y="328.65714285714284" type="curve"/>
      <point x="141.66666666666666" y="267.0190476190476" type="line"/>
      <point x="219.61904761904762" y="326.64761904761906"/>
      <point x="250.98095238095237" y="344.4761904761905"/>
      <point x="307.12380952380954" y="344.4761904761905" type="curve" smooth="yes"/>
      <point x="384.84761904761905" y="344.4761904761905"/>
      <point x="404.16190476190474" y="318.4095238095238"/>
      <point x="404.16190476190474" y="233.07619047619048" type="curve" smooth="yes"/>
      <point x="404.16190476190474" y="145.32380952380953"/>
      <point x="396.06666666666666" y="104.86666666666667"/>
      <point x="307.0761904761905" y="104.86666666666667" type="curve" smooth="yes"/>
      <point x="203.94285714285715" y="104.86666666666667"/>
      <point x="198.1142857142857" y="144.37142857142857"/>
      <point x="198.1142857142857" y="331.26666666666665" type="curve" smooth="yes"/>
      <point x="198.1142857142857" y="552.0857142857143"/>
      <point x="225.05714285714285" y="585.7428571428571"/>
      <point x="339.0761904761905" y="585.7428571428571" type="curve" smooth="yes"/>
      <point x="411.6666666666667" y="585.7428571428571"/>
      <point x="442.4" y="585.7428571428571"/>
      <point x="494.4761904761905" y="583.9142857142857" type="curve"/>
      <point x="502.4761904761905" y="683.6571428571428" type="line"/>
      <point x="437.2285714285714" y="702.0"/>
      <point x="371.5904761904762" y="702.0"/>
    </contour>
  </outline>
</glyph>
<glyph name="seven" format="2">
  <advance width="525.9333333333333"/>
  <unicode hex="0037"/>
  <outline>
    <contour>
      <point x="441.15238095238095" y="690.0" type="curve" smooth="yes"/>
      <point x="26.8" y="690.0" type="line"/>
      <point x="33.36190476190476" y="565.152380952381" type="line"/>
      <point x="347.1333333333333" y="565.152380952381" type="line"/>
      <point x="333.6190476190476" y="544.0285714285715"/>
      <point x="324.83809523809526" y="521.9047619047619"/>
      <point x="317.6666666666667" y="500.1714285714286" type="curve" smooth="yes"/>
      <point x="142.8190476190476" y="0.0" type="line"/>
      <point x="292.8666666666667" y="0.0" type="line"/>
      <point x="502.3047619047619" y="609.1142857142858" type="line" smooth="yes"/>
      <point x="517.6476190476191" y="655.1904761904761"/>
      <point x="490.6190476190476" y="690.0"/>
    </contour>
  </outline>
</glyph>
<glyph name="eight" format="2">
  <advance width="618.8857142857142"/>
  <unicode hex="0038"/>
  <outline>
    <contour>
      <point x="309.6380952380952" y="702.1714285714286" type="curve" smooth="yes"/>
      <point x="115.01904761904763" y="702.1714285714286"/>
      <point x="69.62857142857143" y="646.1714285714286"/>
      <point x="69.62857142857143" y="518.0" type="curve" smooth="yes"/>
      <point x="69.62857142857143" y="438.247619047619"/>
      <point x="98.8" y="368.0"/>
      <point x="171.53333333333333" y="360.0" type="curve"/>
      <point x="171.53333333333333" y="356.0" type="line"/>
      <point x="77.67619047619047" y="347.0"/>
      <point x="52.84761904761905" y="269.752380952381"/>
      <point x="52.84761904761905" y="172.0" type="curve" smooth="yes"/>
      <point x="52.84761904761905" y="42.53333333333333"/>
      <point x="105.36190476190477" y="-12.17142857142857"/>
      <point x="309.6380952380952" y="-12.17142857142857" type="curve" smooth="yes"/>
      <point x="516.9142857142857" y="-12.17142857142857"/>
      <point x="566.4285714285714" y="42.53333333333333"/>
      <point x="566.4285714285714" y="172.0" type="curve" smooth="yes"/>
      <point x="566.4285714285714" y="269.752380952381"/>
      <point x="541.6" y="347.0"/>
      <point x="447.74285714285713" y="356.0" type="curve"/>
      <point x="447.74285714285713" y="360.0" type="line"/>
      <point x="520.4761904761905" y="368.0"/>
      <point x="549.6476190476191" y="438.247619047619"/>
      <point x="549.6476190476191" y="518.0" type="curve" smooth="yes"/>
      <point x="549.6476190476191" y="646.1714285714286"/>
      <point x="505.64761904761906" y="701.5619047619048"/>
    </contour>
    <contour>
      <point x="311.6380952380952" y="305.4095238095238" type="curve" smooth="yes"/>
      <point x="402.06666666666666" y="305.4095238095238"/>
      <point x="422.16190476190474" y="284.7047619047619"/>
      <point x="422.16190476190474" y="202.85714285714286" type="curve" smooth="yes"/>
      <point x="422.16190476190474" y="126.22857142857143"/>
      <point x="402.06666666666666" y="104.6952380952381"/>
      <point x="310.6380952380952" y="104.6952380952381" type="curve" smooth="yes"/>
      <point x="217.8190476190476" y="104.6952380952381"/>
      <point x="196.1142857142857" y="126.22857142857143"/>
      <point x="196.1142857142857" y="202.85714285714286" type="curve" smooth="yes"/>
      <point x="196.1142857142857" y="283.48571428571427"/>
      <point x="217.42857142857142" y="304.8"/>
    </contour>
    <contour>
      <point x="310.6380952380952" y="593.2571428571429" type="curve" smooth="yes"/>
      <point x="394.45714285714286" y="593.2571428571429"/>
      <point x="412.3333333333333" y="573.7238095238096"/>
      <point x="412.3333333333333" y="499.9714285714286" type="curve" smooth="yes"/>
      <point x="412.3333333333333" y="429.51428571428573"/>
      <point x="397.06666666666666" y="410.5904761904762"/>
      <point x="312.0285714285714" y="410.5904761904762" type="curve" smooth="yes"/>
      <point x="227.42857142857142" y="410.5904761904762"/>
      <point x="206.94285714285715" y="428.9047619047619"/>
      <point x="206.94285714285715" y="499.9714285714286" type="curve" smooth="yes"/>
      <point x="206.94285714285715" y="573.7238095238096"/>
      <point x="226.42857142857142" y="593.2571428571429"/>
    </contour>
  </outline>
</glyph>
<glyph name="nine" format="2">
  <advance width="587.8857142857142"/>
  <unicode hex="0039"/>
  <outline>
    <contour>
      <point x="285.0285714285714" y="702.0" type="curve" smooth="yes"/>
      <point x="99.67619047619047" y="702.0"/>
      <point x="41.01904761904762" y="625.7809523809524"/>
      <point x="41.628571428571426" y="454.3619047619048" type="curve" smooth="yes"/>
      <point x="41.628571428571426" y="329.1904761904762"/>
      <point x="86.01904761904763" y="235.21904761904761"/>
      <point x="234.8761904761905" y="235.21904761904761" type="curve" smooth="yes"/>
      <point x="333.6095238095238" y="235.21904761904761"/>
      <point x="381.43809523809523" y="262.2190476190476"/>
      <point x="447.6095238095238" y="361.34285714285716" type="curve"/>
      <point x="443.6095238095238" y="422.37142857142857" type="line"/>
      <point x="365.65714285714284" y="363.74285714285713"/>
      <point x="335.2952380952381" y="344.9142857142857"/>
      <point x="279.54285714285714" y="344.9142857142857" type="curve" smooth="yes"/>
      <point x="204.2095238095238" y="344.9142857142857"/>
      <point x="184.28571428571428" y="378.0761904761905"/>
      <point x="184.89523809523808" y="456.9238095238095" type="curve" smooth="yes"/>
      <point x="184.28571428571428" y="545.2857142857143"/>
      <point x="197.03809523809525" y="585.7428571428571"/>
      <point x="283.6380952380952" y="585.7428571428571" type="curve" smooth="yes"/>
      <point x="384.7714285714286" y="585.7428571428571"/>
      <point x="389.3809523809524" y="545.2380952380952"/>
      <point x="389.3809523809524" y="359.73333333333335" type="curve" smooth="yes"/>
      <point x="389.3809523809524" y="156.9142857142857"/>
      <point x="366.48571428571427" y="104.86666666666667"/>
      <point x="247.2" y="104.86666666666667" type="curve" smooth="yes"/>
      <point x="165.21904761904761" y="104.86666666666667"/>
      <point x="135.7047619047619" y="104.86666666666667"/>
      <point x="79.84761904761905" y="107.08571428571429" type="curve"/>
      <point x="71.45714285714286" y="6.342857142857143" type="line"/>
      <point x="144.26666666666668" y="-12.0"/>
      <point x="211.68571428571428" y="-12.0"/>
      <point x="247.8095238095238" y="-12.0" type="curve" smooth="yes"/>
      <point x="456.3047619047619" y="-12.0"/>
      <point x="534.8190476190476" y="43.095238095238095"/>
      <point x="535.4285714285714" y="352.2190476190476" type="curve" smooth="yes"/>
      <point x="535.4285714285714" y="625.8571428571429"/>
      <point x="496.2285714285714" y="702.0"/>
    </contour>
  </outline>
</glyph>
<glyph name="less" format="2">
  <advance width="517.8"/>
  <unicode hex="003C"/>
  <outline>
    <contour>
      <point x="460.3904761904762" y="523.3238095238095" type="line"/>
      <point x="40.01904761904762" y="357.79047619047617" type="line"/>
      <point x="40.01904761904762" y="243.72380952380954" type="line"/>
      <point x="460.3904761904762" y="79.01904761904763" type="line"/>
      <point x="460.3904761904762" y="194.47619047619048" type="line"/>
      <point x="164.8190476190476" y="300.56190476190477" type="line"/>
      <point x="460.3904761904762" y="407.8666666666667" type="line"/>
    </contour>
  </outline>
</glyph>
<glyph name="equal" format="2">
  <advance width="578.9238095238095"/>
  <unicode hex="003D"/>
  <outline>
    <contour>
      <point x="519.2952380952381" y="456.18095238095236" type="line"/>
      <point x="59.628571428571426" y="456.18095238095236" type="line"/>
      <point x="59.628571428571426" y="351.0190476190476" type="line"/>
      <point x="519.2952380952381" y="351.0190476190476" type="line"/>
    </contour>
    <contour>
      <point x="519.2952380952381" y="243.22857142857143" type="line"/>
      <point x="59.628571428571426" y="243.22857142857143" type="line"/>
      <point x="59.628571428571426" y="138.06666666666666" type="line"/>
      <point x="519.2952380952381" y="138.06666666666666" type="line"/>
    </contour>
  </outline>
</glyph>
<glyph name="greater" format="2">
  <advance width="516.6285714285714"/>
  <unicode hex="003E"/>
  <outline>
    <contour>
      <point x="57.40952380952381" y="523.3238095238095" type="line"/>
      <point x="57.40952380952381" y="407.8666666666667" type="line"/>
      <point x="351.8095238095238" y="300.56190476190477" type="line"/>
      <point x="57.40952380952381" y="194.47619047619048" type="line"/>
      <point x="57.40952380952381" y="79.01904761904763" type="line"/>
      <point x="476.6095238095238" y="243.72380952380954" type="line"/>
      <point x="476.6095238095238" y="357.79047619047617" type="line"/>
    </contour>
  </outline>
</glyph>
<glyph name="question" format="2">
  <advance width="516.495238095238"/>
  <unicode hex="003F"/>
  <outline>
    <contour>
      <point x="272.15238095238095" y="712.0" type="curve" smooth="yes"/>
      <point x="142.34285714285716" y="712.0"/>
      <point x="107.0" y="701.2190476190476"/>
      <point x="31.314285714285713" y="687.6571428571428" type="curve"/>
      <point x="36.31428571428572" y="586.8380952380952" type="line"/>
      <point x="104.48571428571428" y="589.8857142857142"/>
      <point x="136.65714285714284" y="591.7142857142857"/>
      <point x="237.21904761904761" y="591.7142857142857" type="curve" smooth="yes"/>
      <point x="305.7714285714286" y="591.7142857142857"/>
      <point x="333.35238095238094" y="572.1333333333333"/>
      <point x="329.18095238095236" y="527.6285714285714" type="curve" smooth="yes"/>
      <point x="322.83809523809526" y="448.93333333333334"/>
      <point x="179.1142857142857" y="394.2190476190476"/>
      <point x="186.06666666666666" y="219.07619047619048" type="curve"/>
      <point x="305.57142857142856" y="219.07619047619048" type="line"/>
      <point x="318.25714285714287" y="387.34285714285716"/>
      <point x="485.74285714285713" y="409.56190476190477"/>
      <point x="485.74285714285713" y="557.0" type="curve" smooth="yes"/>
      <point x="485.74285714285713" y="663.0"/>
      <point x="415.79047619047617" y="712.0"/>
    </contour>
    <contour>
      <point x="263.0285714285714" y="151.47619047619048" type="curve" smooth="yes"/>
      <point x="228.21904761904761" y="151.47619047619048" type="line" smooth="yes"/>
      <point x="189.06666666666666" y="151.47619047619048"/>
      <point x="176.33333333333334" y="138.74285714285713"/>
      <point x="176.33333333333334" y="99.5904761904762" type="curve" smooth="yes"/>
      <point x="176.33333333333334" y="51.885714285714286" type="line" smooth="yes"/>
      <point x="176.33333333333334" y="12.733333333333334"/>
      <point x="189.06666666666666" y="0.0"/>
      <point x="228.21904761904761" y="0.0" type="curve" smooth="yes"/>
      <point x="263.0285714285714" y="0.0" type="line" smooth="yes"/>
      <point x="302.18095238095236" y="0.0"/>
      <point x="314.9142857142857" y="12.733333333333334"/>
      <point x="314.9142857142857" y="51.885714285714286" type="curve" smooth="yes"/>
      <point x="314.9142857142857" y="99.5904761904762" type="line" smooth="yes"/>
      <point x="314.9142857142857" y="138.74285714285713"/>
      <point x="302.18095238095236" y="151.47619047619048"/>
    </contour>
  </outline>
</glyph>
<glyph name="at" format="2">
  <advance width="755.8952380952381"/>
  <unicode hex="0040"/>
  <outline>
    <contour>
      <point x="525.0380952380953" y="601.152380952381" type="curve" smooth="yes"/>
      <point x="373.4" y="601.152380952381" type="line" smooth="yes"/>
      <point x="88.4095238095238" y="600.5428571428571"/>
      <point x="56.67619047619048" y="559.2"/>
      <point x="56.67619047619048" y="268.1714285714286" type="curve" smooth="yes"/>
      <point x="56.67619047619048" y="-27.904761904761905"/>
      <point x="92.8" y="-69.85714285714286"/>
      <point x="416.8666666666667" y="-68.63809523809523" type="curve" smooth="yes"/>
      <point x="510.7238095238095" y="-68.63809523809523"/>
      <point x="604.9714285714285" y="-63.076190476190476"/>
      <point x="697.8285714285714" y="-55.904761904761905" type="curve"/>
      <point x="697.8285714285714" y="42.838095238095235" type="line"/>
      <point x="416.25714285714287" y="42.838095238095235" type="line" smooth="yes"/>
      <point x="217.03809523809525" y="42.838095238095235"/>
      <point x="193.42857142857142" y="41.371428571428574"/>
      <point x="193.42857142857142" y="268.1714285714286" type="curve" smooth="yes"/>
      <point x="193.42857142857142" y="485.1904761904762"/>
      <point x="213.86666666666667" y="490.67619047619047"/>
      <point x="373.4" y="491.06666666666666" type="curve" smooth="yes"/>
      <point x="495.0571428571429" y="491.06666666666666" type="line" smooth="yes"/>
      <point x="545.8571428571429" y="491.06666666666666"/>
      <point x="561.5142857142857" y="478.06666666666666"/>
      <point x="561.5142857142857" y="433.26666666666665" type="curve" smooth="yes"/>
      <point x="561.5142857142857" y="408.0761904761905" type="line"/>
      <point x="388.20952380952383" y="408.0761904761905" type="line" smooth="yes"/>
      <point x="305.74285714285713" y="408.0761904761905"/>
      <point x="260.7142857142857" y="366.12380952380954"/>
      <point x="260.7142857142857" y="298.0" type="curve" smooth="yes"/>
      <point x="260.7142857142857" y="249.95238095238096" type="line" smooth="yes"/>
      <point x="260.7142857142857" y="166.56190476190477"/>
      <point x="322.96190476190475" y="124.39047619047619"/>
      <point x="402.3047619047619" y="124.39047619047619" type="curve" smooth="yes"/>
      <point x="481.35238095238094" y="124.39047619047619"/>
      <point x="544.7619047619048" y="166.65714285714284"/>
      <point x="577.2" y="204.04761904761904" type="curve"/>
      <point x="589.5428571428571" y="134.95238095238096" type="line"/>
      <point x="698.6571428571428" y="134.95238095238096" type="line"/>
      <point x="698.6571428571428" y="435.3142857142857" type="line" smooth="yes"/>
      <point x="698.6571428571428" y="558.4190476190477"/>
      <point x="636.5809523809523" y="601.152380952381"/>
    </contour>
    <contour>
      <point x="561.5142857142857" y="334.48571428571427" type="line"/>
      <point x="561.5142857142857" y="270.73333333333335" type="line"/>
      <point x="528.3238095238095" y="240.66666666666666"/>
      <point x="479.55238095238093" y="226.57142857142858"/>
      <point x="441.87619047619046" y="226.57142857142858" type="curve" smooth="yes"/>
      <point x="411.1714285714286" y="226.57142857142858"/>
      <point x="393.9047619047619" y="239.7904761904762"/>
      <point x="393.9047619047619" y="273.46666666666664" type="curve" smooth="yes"/>
      <point x="393.9047619047619" y="288.6857142857143" type="line" smooth="yes"/>
      <point x="393.9047619047619" y="316.87619047619046"/>
      <point x="405.9047619047619" y="328.0952380952381"/>
      <point x="440.7047619047619" y="330.0952380952381" type="curve" smooth="yes"/>
    </contour>
  </outline>
</glyph>
<glyph name="B" format="2">
  <advance width="637.447619047619"/>
  <unicode hex="0042"/>
  <outline>
    <contour>
      <point x="329.2761904761905" y="698.0" type="curve" smooth="yes"/>
      <point x="213.1238095238095" y="698.0"/>
      <point x="148.31428571428572" y="697.0"/>
      <point x="69.67619047619047" y="690.0" type="curve"/>
      <point x="84.45714285714286" y="580.3047619047619" type="line"/>
      <point x="141.78095238095239" y="585.0857142857143"/>
      <point x="210.56190476190477" y="583.3047619047619"/>
      <point x="321.93333333333334" y="583.3047619047619" type="curve" smooth="yes"/>
      <point x="401.9714285714286" y="583.3047619047619"/>
      <point x="426.7714285714286" y="567.4285714285714"/>
      <point x="426.7714285714286" y="497.3619047619048" type="curve" smooth="yes"/>
      <point x="426.7714285714286" y="425.6857142857143"/>
      <point x="403.8" y="408.2"/>
      <point x="330.0285714285714" y="408.2" type="curve" smooth="yes"/>
      <point x="83.45714285714286" y="408.2" type="line"/>
      <point x="83.45714285714286" y="306.8" type="line"/>
      <point x="331.4190476190476" y="306.8" type="line" smooth="yes"/>
      <point x="416.8" y="306.1904761904762"/>
      <point x="441.9904761904762" y="284.87619047619046"/>
      <point x="441.9904761904762" y="201.37142857142857" type="curve" smooth="yes"/>
      <point x="441.9904761904762" y="124.35238095238095"/>
      <point x="418.0190476190476" y="106.6952380952381"/>
      <point x="334.85714285714283" y="106.6952380952381" type="curve" smooth="yes"/>
      <point x="213.65714285714284" y="106.6952380952381"/>
      <point x="116.01904761904763" y="107.6952380952381"/>
      <point x="84.45714285714286" y="109.6952380952381" type="curve"/>
      <point x="69.67619047619047" y="0.0" type="line"/>
      <point x="157.31428571428572" y="-7.0"/>
      <point x="228.5142857142857" y="-8.0"/>
      <point x="361.0571428571429" y="-8.0" type="curve" smooth="yes"/>
      <point x="525.5238095238095" y="-8.0"/>
      <point x="594.6" y="30.0"/>
      <point x="594.6" y="172.0" type="curve" smooth="yes"/>
      <point x="594.6" y="282.0"/>
      <point x="558.0380952380953" y="346.6095238095238"/>
      <point x="452.3047619047619" y="355.6095238095238" type="curve"/>
      <point x="452.3047619047619" y="360.3904761904762" type="line"/>
      <point x="538.4285714285714" y="368.3904761904762"/>
      <point x="572.8190476190476" y="419.0"/>
      <point x="572.8190476190476" y="518.0" type="curve" smooth="yes"/>
      <point x="572.8190476190476" y="660.0"/>
      <point x="509.0857142857143" y="698.0"/>
    </contour>
    <contour>
      <point x="218.89523809523808" y="690.0" type="line"/>
      <point x="69.67619047619047" y="690.0" type="line"/>
      <point x="69.67619047619047" y="0.0" type="line"/>
      <point x="218.89523809523808" y="0.0" type="line"/>
    </contour>
  </outline>
</glyph>
<glyph name="C" format="2">
  <advance width="586.1047619047619"/>
  <unicode hex="0043"/>
  <anchor x="322.3904761904762" y="-19.80952380952381" name="bottom"/>
  <anchor x="329.37142857142857" y="733.1714285714286" name="top"/>
  <outline>
    <contour>
      <point x="337.0761904761905" y="702.0" type="curve" smooth="yes"/>
      <point x="123.92380952380952" y="702.0"/>
      <point x="46.628571428571426" y="608.0"/>
      <point x="46.628571428571426" y="345.0" type="curve" smooth="yes"/>
      <point x="46.628571428571426" y="82.0"/>
      <point x="123.92380952380952" y="-12.0"/>
      <point x="337.0761904761905" y="-12.0" type="curve" smooth="yes"/>
      <point x="435.93333333333334" y="-12.0"/>
      <point x="494.44761904761907" y="-4.219047619047619"/>
      <point x="558.3523809523809" y="16.123809523809523" type="curve"/>
      <point x="545.4" y="129.01904761904763" type="line"/>
      <point x="484.4952380952381" y="121.40952380952382"/>
      <point x="429.15238095238095" y="119.8"/>
      <point x="337.0761904761905" y="119.8" type="curve" smooth="yes"/>
      <point x="236.77142857142857" y="119.8"/>
      <point x="206.97142857142856" y="170.86666666666667"/>
      <point x="206.97142857142856" y="345.0" type="curve" smooth="yes"/>
      <point x="206.97142857142856" y="519.1333333333333"/>
      <point x="236.77142857142857" y="570.2"/>
      <point x="337.0761904761905" y="570.2" type="curve" smooth="yes"/>
      <point x="424.15238095238095" y="570.2"/>
      <point x="466.4952380952381" y="568.5904761904762"/>
      <point x="531.0095238095238" y="565.152380952381" type="curve"/>
      <point x="543.9619047619047" y="678.6571428571428" type="line"/>
      <point x="481.0571428571429" y="695.2190476190476"/>
      <point x="434.1047619047619" y="702.0"/>
    </contour>
  </outline>
</glyph>
<glyph name="D" format="2">
  <advance width="679.6666666666666"/>
  <unicode hex="0044"/>
  <anchor x="328.2952380952381" y="-12.0" name="bottom"/>
  <anchor x="328.4952380952381" y="733.1714285714286" name="top"/>
  <outline>
    <contour>
      <point x="338.46666666666664" y="699.3904761904762" type="curve" smooth="yes"/>
      <point x="232.65714285714284" y="699.3904761904762"/>
      <point x="149.14285714285714" y="695.0"/>
      <point x="69.67619047619047" y="690.0" type="curve"/>
      <point x="137.41904761904763" y="578.7428571428571" type="line"/>
      <point x="197.63809523809525" y="578.3523809523809"/>
      <point x="257.46666666666664" y="579.5714285714286"/>
      <point x="338.46666666666664" y="579.5714285714286" type="curve" smooth="yes"/>
      <point x="440.5047619047619" y="579.5714285714286"/>
      <point x="471.6952380952381" y="526.3333333333334"/>
      <point x="471.6952380952381" y="345.0" type="curve" smooth="yes"/>
      <point x="471.6952380952381" y="163.66666666666666"/>
      <point x="440.5047619047619" y="111.03809523809524"/>
      <point x="338.46666666666664" y="111.03809523809524" type="curve" smooth="yes"/>
      <point x="253.9047619047619" y="111.03809523809524"/>
      <point x="182.95238095238096" y="113.03809523809524"/>
      <point x="132.68571428571428" y="116.2095238095238" type="curve"/>
      <point x="69.67619047619047" y="0.0" type="line"/>
      <point x="148.75238095238095" y="-5.390476190476191"/>
      <point x="234.43809523809523" y="-9.39047619047619"/>
      <point x="338.46666666666664" y="-9.39047619047619" type="curve" smooth="yes"/>
      <point x="554.7428571428571" y="-9.39047619047619"/>
      <point x="632.4285714285714" y="71.70476190476191"/>
      <point x="632.4285714285714" y="345.0" type="curve" smooth="yes"/>
      <point x="632.4285714285714" y="618.2952380952381"/>
      <point x="554.7428571428571" y="699.3904761904762"/>
    </contour>
    <contour>
      <point x="222.06666666666666" y="690.0" type="line"/>
      <point x="69.67619047619047" y="690.0" type="line"/>
      <point x="69.67619047619047" y="0.0" type="line"/>
      <point x="222.06666666666666" y="0.0" type="line"/>
    </contour>
  </outline>
</glyph>
<glyph name="E" format="2">
  <advance width="576.495238095238"/>
  <unicode hex="0045"/>
  <guideline x="144.17142857142858" y="538.0" angle="0.0"/>
  <anchor x="307.247619047619" y="0.0" name="bottom"/>
  <anchor x="536.3047619047619" y="7.171428571428572" name="ogonek"/>
  <anchor x="315.0761904761905" y="738.6571428571428" name="top"/>
  <outline>
    <contour>
      <point x="215.7047619047619" y="692.7809523809524" type="curve" smooth="yes"/>
      <point x="124.36190476190477" y="692.7809523809524"/>
      <point x="64.67619047619047" y="638.5333333333333"/>
      <point x="64.06666666666666" y="554.0666666666667" type="curve" smooth="yes"/>
      <point x="64.06666666666666" y="135.93333333333334" type="line" smooth="yes"/>
      <point x="64.67619047619047" y="51.46666666666667"/>
      <point x="123.75238095238095" y="-2.780952380952381"/>
      <point x="215.7047619047619" y="-2.780952380952381" type="curve" smooth="yes"/>
      <point x="322.51428571428573" y="-2.780952380952381"/>
      <point x="442.4" y="-2.780952380952381"/>
      <point x="536.3047619047619" y="7.171428571428572" type="curve"/>
      <point x="529.3523809523809" y="119.33333333333333" type="line"/>
      <point x="264.16190476190474" y="119.33333333333333" type="line" smooth="yes"/>
      <point x="231.23809523809524" y="119.33333333333333"/>
      <point x="217.06666666666666" y="134.33333333333334"/>
      <point x="217.06666666666666" y="170.57142857142858" type="curve" smooth="yes"/>
      <point x="217.06666666666666" y="518.8190476190476" type="line" smooth="yes"/>
      <point x="217.06666666666666" y="555.0571428571428"/>
      <point x="231.23809523809524" y="570.0571428571428"/>
      <point x="264.16190476190474" y="570.0571428571428" type="curve" smooth="yes"/>
      <point x="529.3523809523809" y="570.0571428571428" type="line"/>
      <point x="536.3047619047619" y="682.8285714285714" type="line"/>
      <point x="442.4" y="692.7809523809524"/>
      <point x="322.51428571428573" y="692.7809523809524"/>
    </contour>
    <contour>
      <point x="82.06666666666666" y="414.0285714285714" type="line"/>
      <point x="82.06666666666666" y="303.55238095238093" type="line"/>
      <point x="492.1333333333333" y="303.55238095238093" type="line"/>
      <point x="492.1333333333333" y="414.0285714285714" type="line"/>
    </contour>
  </outline>
</glyph>
<glyph name="F" format="2">
  <advance width="554.495238095238"/>
  <unicode hex="0046"/>
  <outline>
    <contour>
      <point x="220.0952380952381" y="692.7809523809524" type="curve" smooth="yes"/>
      <point x="128.36190476190475" y="692.7809523809524"/>
      <point x="67.67619047619047" y="639.1428571428571"/>
      <point x="67.67619047619047" y="550.4095238095238" type="curve" smooth="yes"/>
      <point x="67.67619047619047" y="0.0" type="line"/>
      <point x="220.67619047619047" y="0.0" type="line"/>
      <point x="220.67619047619047" y="518.8190476190476" type="line" smooth="yes"/>
      <point x="220.67619047619047" y="555.0571428571428"/>
      <point x="236.06666666666666" y="570.0571428571428"/>
      <point x="274.64761904761906" y="570.0571428571428" type="curve" smooth="yes"/>
      <point x="522.3523809523809" y="570.0571428571428" type="line"/>
      <point x="529.9142857142857" y="681.8285714285714" type="line"/>
      <point x="439.79047619047617" y="692.7809523809524"/>
      <point x="323.51428571428573" y="692.7809523809524"/>
    </contour>
    <contour>
      <point x="85.06666666666666" y="401.247619047619" type="line"/>
      <point x="85.06666666666666" y="290.16190476190474" type="line"/>
      <point x="485.35238095238094" y="290.16190476190474" type="line"/>
      <point x="485.35238095238094" y="401.247619047619" type="line"/>
    </contour>
  </outline>
</glyph>
<glyph name="G" format="2">
  <advance width="644.8380952380952"/>
  <unicode hex="0047"/>
  <anchor x="340.4190476190476" y="-4.685714285714286" name="bottom"/>
  <anchor x="337.9809523809524" y="739.2666666666667" name="top"/>
  <outline>
    <contour>
      <point x="356.3904761904762" y="703.3904761904762" type="curve" smooth="yes"/>
      <point x="128.75238095238095" y="703.3904761904762"/>
      <point x="47.23809523809524" y="619.7523809523809"/>
      <point x="47.23809523809524" y="346.8285714285714" type="curve" smooth="yes"/>
      <point x="47.23809523809524" y="94.36190476190477"/>
      <point x="112.36190476190477" y="-13.39047619047619"/>
      <point x="267.0952380952381" y="-13.39047619047619" type="curve" smooth="yes"/>
      <point x="377.0952380952381" y="-13.39047619047619"/>
      <point x="451.53333333333336" y="48.17142857142857"/>
      <point x="480.4095238095238" y="85.51428571428572" type="curve"/>
      <point x="463.06666666666666" y="161.8857142857143" type="line"/>
      <point x="424.56190476190477" y="139.2095238095238"/>
      <point x="378.8095238095238" y="117.36190476190475"/>
      <point x="320.57142857142856" y="117.36190476190475" type="curve" smooth="yes"/>
      <point x="234.89523809523808" y="117.36190476190475"/>
      <point x="207.5809523809524" y="170.25714285714287"/>
      <point x="207.5809523809524" y="341.95238095238096" type="curve" smooth="yes"/>
      <point x="207.5809523809524" y="542.4666666666667"/>
      <point x="245.64761904761906" y="571.5904761904762"/>
      <point x="361.04761904761904" y="571.5904761904762" type="curve" smooth="yes"/>
      <point x="421.1333333333333" y="571.5904761904762"/>
      <point x="488.0571428571429" y="569.9809523809524"/>
      <point x="556.1333333333333" y="566.5428571428572" type="curve"/>
      <point x="568.4761904761905" y="678.6571428571428" type="line"/>
      <point x="503.4" y="696.6095238095238"/>
      <point x="437.1333333333333" y="703.3904761904762"/>
    </contour>
    <contour>
      <point x="591.9904761904762" y="397.6095238095238" type="line"/>
      <point x="444.9428571428571" y="397.6095238095238" type="line"/>
      <point x="444.9428571428571" y="133.02857142857144" type="line"/>
      <point x="458.84761904761905" y="104.56190476190476" type="line"/>
      <point x="479.53333333333336" y="0.0" type="line"/>
      <point x="591.9904761904762" y="0.0" type="line"/>
    </contour>
  </outline>
</glyph>
<glyph name="H" format="2">
  <advance width="688.4"/>
  <unicode hex="0048"/>
  <anchor x="344.5904761904762" y="0.0" name="bottom"/>
  <anchor x="329.0" y="345.0" name="center"/>
  <anchor x="343.4190476190476" y="738.6571428571428" name="top"/>
  <outline>
    <contour>
      <point x="222.45714285714286" y="690.0" type="line"/>
      <point x="70.06666666666666" y="690.0" type="line"/>
      <point x="70.06666666666666" y="0.0" type="line"/>
      <point x="222.45714285714286" y="0.0" type="line"/>
    </contour>
    <contour>
      <point x="476.3333333333333" y="426.15238095238095" type="line"/>
      <point x="214.45714285714286" y="426.15238095238095" type="line"/>
      <point x="214.45714285714286" y="308.2857142857143" type="line"/>
      <point x="476.3333333333333" y="308.2857142857143" type="line"/>
    </contour>
    <contour>
      <point x="618.3333333333334" y="690.0" type="line"/>
      <point x="465.9428571428571" y="690.0" type="line"/>
      <point x="465.9428571428571" y="0.0" type="line"/>
      <point x="618.3333333333334" y="0.0" type="line"/>
    </contour>
  </outline>
</glyph>
<glyph name="I" format="2">
  <advance width="291.74285714285713"/>
  <unicode hex="0049"/>
  <anchor x="143.15238095238095" y="0.0" name="bottom"/>
  <anchor x="202.8190476190476" y="0.0" name="ogonek"/>
  <anchor x="146.37142857142857" y="733.1714285714286" name="top"/>
  <outline>
    <contour>
      <point x="221.67619047619047" y="690.0" type="line"/>
      <point x="70.06666666666666" y="690.0" type="line"/>
      <point x="70.06666666666666" y="0.0" type="line"/>
      <point x="221.67619047619047" y="0.0" type="line"/>
    </contour>
  </outline>
</glyph>
<glyph name="J" format="2">
  <advance width="368.64761904761906"/>
  <unicode hex="004A"/>
  <anchor x="224.22857142857143" y="0.0" name="bottom"/>
  <anchor x="227.44761904761904" y="733.1714285714286" name="top"/>
  <outline>
    <contour>
      <point x="301.5809523809524" y="690.0" type="line"/>
      <point x="149.97142857142856" y="690.0" type="line"/>
      <point x="149.97142857142856" y="163.4952380952381" type="line" smooth="yes"/>
      <point x="149.97142857142856" y="127.52380952380952"/>
      <point x="128.53333333333333" y="109.6"/>
      <point x="83.65714285714286" y="109.6" type="curve" smooth="yes"/>
      <point x="36.65714285714286" y="109.6" type="line"/>
      <point x="20.36190476190476" y="7.733333333333333" type="line"/>
      <point x="48.266666666666666" y="-4.780952380952381"/>
      <point x="111.15238095238095" y="-11.561904761904762"/>
      <point x="146.0095238095238" y="-11.561904761904762" type="curve" smooth="yes"/>
      <point x="243.77142857142857" y="-11.561904761904762"/>
      <point x="301.5809523809524" y="43.7047619047619"/>
      <point x="301.5809523809524" y="144.67619047619047" type="curve" smooth="yes"/>
    </contour>
  </outline>
</glyph>
<glyph name="K" format="2">
  <advance width="630.8952380952381"/>
  <unicode hex="004B"/>
  <anchor x="313.0571428571429" y="-4.685714285714286" name="bottom"/>
  <anchor x="315.4952380952381" y="733.1714285714286" name="top"/>
  <outline>
    <contour>
      <point x="614.047619047619" y="690.0" type="line"/>
      <point x="449.3142857142857" y="690.0" type="line"/>
      <point x="240.27619047619046" y="361.0" type="line"/>
      <point x="456.1904761904762" y="0.0" type="line"/>
      <point x="625.8761904761905" y="0.0" type="line"/>
      <point x="443.54285714285714" y="294.9238095238095" type="line" smooth="yes"/>
      <point x="429.9809523809524" y="318.2190476190476"/>
      <point x="406.34285714285716" y="341.51428571428573"/>
      <point x="385.51428571428573" y="356.2190476190476" type="curve"/>
      <point x="385.51428571428573" y="359.6095238095238" type="line"/>
      <point x="405.73333333333335" y="374.9238095238095"/>
      <point x="421.5904761904762" y="390.2190476190476"/>
      <point x="436.15238095238095" y="414.51428571428573" type="curve" smooth="yes"/>
    </contour>
    <contour>
      <point x="222.45714285714286" y="690.0" type="line"/>
      <point x="70.06666666666666" y="690.0" type="line"/>
      <point x="70.06666666666666" y="0.0" type="line"/>
      <point x="222.45714285714286" y="0.0" type="line"/>
      <point x="222.45714285714286" y="237.8" type="line" smooth="yes"/>
      <point x="222.45714285714286" y="275.3619047619048"/>
      <point x="212.33333333333334" y="320.8285714285714"/>
      <point x="200.6" y="361.3904761904762" type="curve"/>
      <point x="215.5047619047619" y="403.73333333333335"/>
      <point x="222.45714285714286" y="449.76190476190476"/>
      <point x="222.45714285714286" y="495.2761904761905" type="curve" smooth="yes"/>
    </contour>
    <contour>
      <point x="299.0095238095238" y="413.37142857142857" type="line"/>
      <point x="175.6952380952381" y="413.37142857142857" type="line"/>
      <point x="175.6952380952381" y="304.45714285714286" type="line"/>
      <point x="299.0095238095238" y="304.45714285714286" type="line"/>
    </contour>
  </outline>
</glyph>
<glyph name="L" format="2">
  <advance width="532.0095238095238"/>
  <unicode hex="004C"/>
  <anchor x="306.2952380952381" y="0.0" name="bottom"/>
  <anchor x="141.85714285714286" y="733.1714285714286" name="top"/>
  <outline>
    <contour>
      <point x="220.06666666666666" y="690.0" type="line"/>
      <point x="67.67619047619047" y="690.0" type="line"/>
      <point x="67.67619047619047" y="144.46666666666667" type="line" smooth="yes"/>
      <point x="67.67619047619047" y="58.78095238095238"/>
      <point x="114.60952380952381" y="-2.780952380952381"/>
      <point x="225.58095238095237" y="-2.780952380952381" type="curve" smooth="yes"/>
      <point x="323.95238095238096" y="-2.780952380952381"/>
      <point x="426.0571428571429" y="-2.1714285714285717"/>
      <point x="518.0857142857143" y="8.17142857142857" type="curve"/>
      <point x="511.1333333333333" y="123.84761904761905" type="line"/>
      <point x="273.64761904761906" y="123.84761904761905" type="line" smooth="yes"/>
      <point x="235.45714285714286" y="123.84761904761905"/>
      <point x="220.06666666666666" y="138.84761904761905"/>
      <point x="220.06666666666666" y="175.0857142857143" type="curve" smooth="yes"/>
    </contour>
  </outline>
</glyph>
<glyph name="M" format="2">
  <advance width="911.1619047619048"/>
  <unicode hex="004D"/>
  <guideline x="348.6095238095238" y="437.0" angle="0.0"/>
  <anchor x="452.7142857142857" y="0.0" name="bottom"/>
  <anchor x="455.93333333333334" y="733.1714285714286" name="top"/>
  <outline>
    <contour>
      <point x="771.1619047619048" y="690.0" type="curve" smooth="yes"/>
      <point x="624.047619047619" y="690.0" type="line" smooth="yes"/>
      <point x="590.2380952380952" y="690.0"/>
      <point x="569.7714285714286" y="673.4857142857143"/>
      <point x="562.3809523809524" y="640.6761904761905" type="curve" smooth="yes"/>
      <point x="479.4190476190476" y="297.1904761904762" type="line" smooth="yes"/>
      <point x="471.9809523809524" y="263.8"/>
      <point x="467.15238095238095" y="232.45714285714286"/>
      <point x="461.32380952380953" y="199.67619047619047" type="curve"/>
      <point x="448.0571428571429" y="199.67619047619047" type="line"/>
      <point x="442.6190476190476" y="232.45714285714286"/>
      <point x="437.79047619047617" y="263.8"/>
      <point x="430.35238095238094" y="296.5809523809524" type="curve" smooth="yes"/>
      <point x="346.2190476190476" y="640.6761904761905" type="line" smooth="yes"/>
      <point x="338.8285714285714" y="673.4857142857143"/>
      <point x="318.9714285714286" y="690.0"/>
      <point x="286.16190476190474" y="690.0" type="curve" smooth="yes"/>
      <point x="139.3904761904762" y="690.0" type="line" smooth="yes"/>
      <point x="102.19047619047619" y="690.0"/>
      <point x="83.67619047619047" y="670.0952380952381"/>
      <point x="82.28571428571429" y="633.2857142857143" type="curve" smooth="yes"/>
      <point x="57.06666666666666" y="0.0" type="line"/>
      <point x="200.86666666666667" y="0.0" type="line"/>
      <point x="220.9142857142857" y="570.6666666666666" type="line"/>
      <point x="237.74285714285713" y="570.6666666666666" type="line"/>
      <point x="342.7047619047619" y="143.6952380952381" type="line" smooth="yes"/>
      <point x="350.0952380952381" y="111.27619047619048"/>
      <point x="371.1714285714286" y="94.76190476190476"/>
      <point x="404.9809523809524" y="94.76190476190476" type="curve" smooth="yes"/>
      <point x="505.4" y="94.76190476190476" type="line" smooth="yes"/>
      <point x="539.2095238095238" y="94.76190476190476"/>
      <point x="559.6761904761905" y="111.27619047619048"/>
      <point x="566.6761904761905" y="143.6952380952381" type="curve" smooth="yes"/>
      <point x="670.6380952380953" y="570.6666666666666" type="line"/>
      <point x="688.0761904761905" y="570.6666666666666" type="line"/>
      <point x="710.9047619047619" y="0.0" type="line"/>
      <point x="854.7047619047619" y="0.0" type="line"/>
      <point x="828.2666666666667" y="633.2857142857143" type="line" smooth="yes"/>
      <point x="826.8761904761905" y="670.0952380952381"/>
      <point x="808.3619047619047" y="690.0"/>
    </contour>
  </outline>
</glyph>
<glyph name="N" format="2">
  <advance width="721.5428571428571"/>
  <unicode hex="004E"/>
  <anchor x="370.46666666666664" y="0.0" name="bottom"/>
  <anchor x="371.85714285714283" y="733.1714285714286" name="top"/>
  <outline>
    <contour>
      <point x="652.2571428571429" y="690.0" type="line"/>
      <point x="507.5047619047619" y="690.0" type="line"/>
      <point x="507.8952380952381" y="292.8" type="line" smooth="yes"/>
      <point x="507.8952380952381" y="253.84761904761905"/>
      <point x="510.67619047619047" y="215.89523809523808"/>
      <point x="514.4571428571429" y="176.94285714285712" type="curve"/>
      <point x="503.8" y="176.94285714285712" type="line"/>
      <point x="488.4095238095238" y="216.06666666666666"/>
      <point x="469.1904761904762" y="257.67619047619047"/>
      <point x="453.84761904761905" y="288.23809523809524" type="curve" smooth="yes"/>
      <point x="279.37142857142857" y="644.6761904761905" type="line" smooth="yes"/>
      <point x="263.9047619047619" y="674.7047619047619"/>
      <point x="250.1238095238095" y="690.0"/>
      <point x="217.92380952380952" y="690.0" type="curve" smooth="yes"/>
      <point x="124.56190476190476" y="690.0" type="line" smooth="yes"/>
      <point x="88.97142857142858" y="690.0"/>
      <point x="69.67619047619047" y="671.3142857142857"/>
      <point x="69.67619047619047" y="635.1142857142858" type="curve" smooth="yes"/>
      <point x="69.67619047619047" y="0.0" type="line"/>
      <point x="215.42857142857142" y="0.0" type="line"/>
      <point x="215.42857142857142" y="410.2476190476191" type="line" smooth="yes"/>
      <point x="215.42857142857142" y="445.9809523809524"/>
      <point x="213.25714285714287" y="483.8857142857143"/>
      <point x="208.47619047619048" y="520.4" type="curve"/>
      <point x="218.52380952380952" y="520.4" type="line"/>
      <point x="227.47619047619048" y="485.7142857142857"/>
      <point x="246.74285714285713" y="443.1047619047619"/>
      <point x="261.4761904761905" y="413.37142857142857" type="curve" smooth="yes"/>
      <point x="441.95238095238096" y="45.32380952380952" type="line" smooth="yes"/>
      <point x="457.0285714285714" y="15.295238095238094"/>
      <point x="471.2" y="0.0"/>
      <point x="503.4" y="0.0" type="curve" smooth="yes"/>
      <point x="597.9809523809524" y="0.0" type="line" smooth="yes"/>
      <point x="633.5714285714286" y="0.0"/>
      <point x="652.2571428571429" y="18.685714285714287"/>
      <point x="652.2571428571429" y="54.885714285714286" type="curve" smooth="yes"/>
    </contour>
  </outline>
</glyph>
<glyph name="O" format="2">
  <advance width="684.447619047619"/>
  <unicode hex="004F"/>
  <anchor x="340.4190476190476" y="-4.685714285714286" name="bottom"/>
  <anchor x="388.2761904761905" y="0.0" name="ogonek"/>
  <anchor x="342.85714285714283" y="733.1714285714286" name="top"/>
  <outline>
    <contour>
      <point x="342.0285714285714" y="703.3904761904762" type="curve" smooth="yes"/>
      <point x="124.31428571428572" y="703.3904761904762"/>
      <point x="46.628571428571426" y="621.6857142857143"/>
      <point x="46.628571428571426" y="345.0" type="curve" smooth="yes"/>
      <point x="46.628571428571426" y="68.31428571428572"/>
      <point x="124.31428571428572" y="-13.39047619047619"/>
      <point x="342.0285714285714" y="-13.39047619047619" type="curve" smooth="yes"/>
      <point x="560.1333333333333" y="-13.39047619047619"/>
      <point x="637.8190476190476" y="68.31428571428572"/>
      <point x="637.8190476190476" y="345.0" type="curve" smooth="yes"/>
      <point x="637.8190476190476" y="621.6857142857143"/>
      <point x="560.1333333333333" y="703.3904761904762"/>
    </contour>
    <contour>
      <point x="342.0285714285714" y="580.1809523809524" type="curve" smooth="yes"/>
      <point x="445.8952380952381" y="580.1809523809524"/>
      <point x="477.0857142857143" y="527.552380952381"/>
      <point x="477.0857142857143" y="345.0" type="curve" smooth="yes"/>
      <point x="477.0857142857143" y="162.44761904761904"/>
      <point x="445.8952380952381" y="109.81904761904762"/>
      <point x="342.0285714285714" y="109.81904761904762" type="curve" smooth="yes"/>
      <point x="238.16190476190476" y="109.81904761904762"/>
      <point x="206.97142857142856" y="162.44761904761904"/>
      <point x="206.97142857142856" y="345.0" type="curve" smooth="yes"/>
      <point x="206.97142857142856" y="527.552380952381"/>
      <point x="238.16190476190476" y="580.1809523809524"/>
    </contour>
  </outline>
</glyph>
<glyph name="P" format="2">
  <advance width="614.3047619047619"/>
  <unicode hex="0050"/>
  <outline>
    <contour>
      <point x="331.8095238095238" y="699.3904761904762" type="curve" smooth="yes"/>
      <point x="208.43809523809523" y="699.3904761904762"/>
      <point x="152.53333333333333" y="698.3904761904762"/>
      <point x="69.67619047619047" y="690.0" type="curve"/>
      <point x="84.06666666666666" y="577.3523809523809" type="line"/>
      <point x="115.01904761904763" y="580.7428571428571"/>
      <point x="207.26666666666668" y="581.7428571428571"/>
      <point x="328.6380952380952" y="581.7428571428571" type="curve" smooth="yes"/>
      <point x="407.14285714285717" y="581.7428571428571"/>
      <point x="430.67619047619047" y="559.6476190476191"/>
      <point x="430.67619047619047" y="473.53333333333336" type="curve" smooth="yes"/>
      <point x="430.67619047619047" y="387.5904761904762"/>
      <point x="407.14285714285717" y="366.1047619047619"/>
      <point x="328.6380952380952" y="365.4952380952381" type="curve" smooth="yes"/>
      <point x="246.78095238095239" y="365.4952380952381"/>
      <point x="160.92380952380952" y="365.4952380952381"/>
      <point x="83.06666666666666" y="365.4952380952381" type="curve"/>
      <point x="80.06666666666666" y="286.3904761904762" type="line"/>
      <point x="108.4095238095238" y="271.0952380952381"/>
      <point x="230.24761904761905" y="247.84761904761905"/>
      <point x="352.0571428571429" y="247.84761904761905" type="curve" smooth="yes"/>
      <point x="522.7714285714286" y="247.84761904761905"/>
      <point x="583.6761904761905" y="296.4095238095238"/>
      <point x="583.6761904761905" y="473.53333333333336" type="curve" smooth="yes"/>
      <point x="583.6761904761905" y="650.2190476190476"/>
      <point x="522.7714285714286" y="699.3904761904762"/>
    </contour>
    <contour>
      <point x="222.06666666666666" y="690.0" type="line"/>
      <point x="69.67619047619047" y="690.0" type="line"/>
      <point x="69.67619047619047" y="0.0" type="line"/>
      <point x="222.06666666666666" y="0.0" type="line"/>
    </contour>
  </outline>
</glyph>
<glyph name="R" format="2">
  <advance width="643.0857142857143"/>
  <unicode hex="0052"/>
  <anchor x="323.9047619047619" y="-4.685714285714286" name="bottom"/>
  <anchor x="313.54285714285714" y="733.1714285714286" name="top"/>
  <outline>
    <contour>
      <point x="332.8095238095238" y="699.3904761904762" type="curve" smooth="yes"/>
      <point x="209.43809523809523" y="699.3904761904762"/>
      <point x="152.53333333333333" y="698.3904761904762"/>
      <point x="69.67619047619047" y="690.0" type="curve"/>
      <point x="84.45714285714286" y="578.5714285714286" type="line"/>
      <point x="115.4095238095238" y="580.1333333333333"/>
      <point x="205.8761904761905" y="581.7428571428571"/>
      <point x="329.6380952380952" y="581.7428571428571" type="curve" smooth="yes"/>
      <point x="409.9238095238095" y="581.7428571428571"/>
      <point x="434.45714285714286" y="561.6476190476191"/>
      <point x="434.45714285714286" y="485.14285714285717" type="curve" smooth="yes"/>
      <point x="434.45714285714286" y="408.6380952380952"/>
      <point x="409.9238095238095" y="387.32380952380953"/>
      <point x="329.6380952380952" y="386.7142857142857" type="curve" smooth="yes"/>
      <point x="83.06666666666666" y="386.7142857142857" type="line"/>
      <point x="80.06666666666666" y="272.23809523809524" type="line"/>
      <point x="130.43809523809523" y="270.06666666666666"/>
      <point x="191.75238095238095" y="269.45714285714286"/>
      <point x="327.12380952380954" y="269.06666666666666" type="curve" smooth="yes"/>
      <point x="367.7809523809524" y="269.06666666666666"/>
      <point x="388.48571428571427" y="254.58095238095237"/>
      <point x="400.752380952381" y="211.0952380952381" type="curve" smooth="yes"/>
      <point x="453.06666666666666" y="0.0" type="line"/>
      <point x="613.6285714285714" y="0.0" type="line"/>
      <point x="554.1428571428571" y="215.04761904761904" type="line" smooth="yes"/>
      <point x="538.3619047619047" y="286.247619047619"/>
      <point x="491.3333333333333" y="311.34285714285716"/>
      <point x="455.7714285714286" y="318.7809523809524" type="curve"/>
      <point x="455.7714285714286" y="324.1714285714286" type="line"/>
      <point x="554.2380952380952" y="335.7809523809524"/>
      <point x="587.847619047619" y="397.85714285714283"/>
      <point x="587.847619047619" y="494.87619047619046" type="curve" smooth="yes"/>
      <point x="587.847619047619" y="652.8285714285714"/>
      <point x="512.6476190476191" y="699.3904761904762"/>
    </contour>
    <contour>
      <point x="219.89523809523808" y="690.0" type="line"/>
      <point x="69.67619047619047" y="690.0" type="line"/>
      <point x="69.67619047619047" y="0.0" type="line"/>
      <point x="219.89523809523808" y="0.0" type="line"/>
    </contour>
  </outline>
</glyph>
<glyph name="T" format="2">
  <advance width="601.0571428571428"/>
  <unicode hex="0054"/>
  <anchor x="296.2952380952381" y="-7.809523809523809" name="bottom"/>
  <anchor x="296.0761904761905" y="345.0" name="center"/>
  <anchor x="300.0285714285714" y="733.1714285714286" name="top"/>
  <outline>
    <contour>
      <point x="376.7238095238095" y="690.0" type="line"/>
      <point x="223.72380952380954" y="690.0" type="line"/>
      <point x="223.72380952380954" y="0.0" type="line"/>
      <point x="376.7238095238095" y="0.0" type="line"/>
    </contour>
    <contour>
      <point x="583.1333333333333" y="690.0" type="line"/>
      <point x="17.923809523809524" y="690.0" type="line"/>
      <point x="17.923809523809524" y="566.4" type="line"/>
      <point x="583.1333333333333" y="566.4" type="line"/>
    </contour>
  </outline>
</glyph>
<glyph name="U" format="2">
  <advance width="681.2285714285714"/>
  <unicode hex="0055"/>
  <anchor x="339.37142857142857" y="-4.685714285714286" name="bottom"/>
  <anchor x="388.44761904761907" y="-5.485714285714286" name="ogonek"/>
  <anchor x="341.8095238095238" y="733.1714285714286" name="top"/>
  <outline>
    <contour>
      <point x="616.552380952381" y="690.0" type="line"/>
      <point x="463.55238095238093" y="690.0" type="line"/>
      <point x="463.55238095238093" y="274.6380952380952" type="line" smooth="yes"/>
      <point x="463.55238095238093" y="147.7904761904762"/>
      <point x="432.9714285714286" y="109.81904761904762"/>
      <point x="340.8095238095238" y="109.81904761904762" type="curve" smooth="yes"/>
      <point x="247.03809523809525" y="109.81904761904762"/>
      <point x="217.06666666666666" y="147.7904761904762"/>
      <point x="217.06666666666666" y="274.6380952380952" type="curve" smooth="yes"/>
      <point x="217.06666666666666" y="690.0" type="line"/>
      <point x="64.67619047619047" y="690.0" type="line"/>
      <point x="64.67619047619047" y="274.6380952380952" type="line" smooth="yes"/>
      <point x="64.67619047619047" y="64.39047619047619"/>
      <point x="140.14285714285714" y="-13.39047619047619"/>
      <point x="348.15238095238095" y="-13.39047619047619" type="curve" smooth="yes"/>
      <point x="544.6476190476191" y="-13.39047619047619"/>
      <point x="616.552380952381" y="64.39047619047619"/>
      <point x="616.552380952381" y="274.6380952380952" type="curve" smooth="yes"/>
    </contour>
  </outline>
</glyph>
<glyph name="V" format="2">
  <advance width="636.4761904761905"/>
  <unicode hex="0056"/>
  <outline>
    <contour>
      <point x="629.3333333333334" y="690.0" type="line"/>
      <point x="472.16190476190474" y="690.0" type="line"/>
      <point x="347.8095238095238" y="192.23809523809524" type="line" smooth="yes"/>
      <point x="341.5904761904762" y="167.23809523809524"/>
      <point x="335.37142857142857" y="140.06666666666666"/>
      <point x="331.15238095238095" y="115.06666666666666" type="curve"/>
      <point x="305.93333333333334" y="115.06666666666666" type="line"/>
      <point x="300.7142857142857" y="140.06666666666666"/>
      <point x="295.4952380952381" y="167.23809523809524"/>
      <point x="289.2761904761905" y="192.23809523809524" type="curve" smooth="yes"/>
      <point x="164.31428571428572" y="690.0" type="line"/>
      <point x="7.142857142857143" y="690.0" type="line"/>
      <point x="194.64761904761906" y="41.542857142857144" type="line" smooth="yes"/>
      <point x="200.8190476190476" y="16.904761904761905"/>
      <point x="221.89523809523808" y="0.0"/>
      <point x="248.53333333333333" y="0.0" type="curve" smooth="yes"/>
      <point x="387.9428571428571" y="0.0" type="line" smooth="yes"/>
      <point x="414.5809523809524" y="0.0"/>
      <point x="435.65714285714284" y="16.904761904761905"/>
      <point x="441.8285714285714" y="41.542857142857144" type="curve" smooth="yes"/>
    </contour>
  </outline>
</glyph>
<glyph name="X" format="2">
  <advance width="641.0380952380953"/>
  <unicode hex="0058"/>
  <outline>
    <contour>
      <point x="617.4095238095238" y="690.0" type="line"/>
      <point x="460.7047619047619" y="690.0" type="line"/>
      <point x="303.6857142857143" y="354.43809523809523" type="line"/>
      <point x="473.0952380952381" y="0.0" type="line"/>
      <point x="630.8" y="0.0" type="line"/>
      <point x="450.65714285714284" y="354.43809523809523" type="line"/>
    </contour>
    <contour>
      <point x="179.72380952380954" y="690.0" type="line"/>
      <point x="23.628571428571426" y="690.0" type="line"/>
      <point x="189.77142857142857" y="354.43809523809523" type="line"/>
      <point x="10.238095238095237" y="0.0" type="line"/>
      <point x="167.33333333333334" y="0.0" type="line"/>
      <point x="336.74285714285713" y="354.43809523809523" type="line"/>
    </contour>
    <contour>
      <point x="394.9904761904762" y="405.46666666666664" type="line"/>
      <point x="236.36190476190475" y="405.46666666666664" type="line"/>
      <point x="236.36190476190475" y="306.8" type="line"/>
      <point x="394.9904761904762" y="306.8" type="line"/>
    </contour>
  </outline>
</glyph>
<glyph name="Y" format="2">
  <advance width="608.2857142857143"/>
  <unicode hex="0059"/>
  <anchor x="303.0095238095238" y="-4.685714285714286" name="bottom"/>
  <anchor x="305.44761904761907" y="724.6380952380953" name="top"/>
  <outline>
    <contour>
      <point x="607.3142857142857" y="690.0" type="line"/>
      <point x="449.53333333333336" y="690.0" type="line"/>
      <point x="335.4952380952381" y="437.42857142857144" type="line" smooth="yes"/>
      <point x="323.8857142857143" y="410.4761904761905"/>
      <point x="316.44761904761907" y="377.74285714285713"/>
      <point x="309.6190476190476" y="349.79047619047617" type="curve"/>
      <point x="299.6666666666667" y="349.79047619047617" type="line"/>
      <point x="292.83809523809526" y="377.74285714285713"/>
      <point x="285.79047619047617" y="410.0857142857143"/>
      <point x="273.79047619047617" y="437.03809523809525" type="curve" smooth="yes"/>
      <point x="159.36190476190475" y="690.0" type="line"/>
      <point x="0.3619047619047615" y="690.0" type="line"/>
      <point x="232.75238095238095" y="219.01904761904763" type="line"/>
      <point x="376.14285714285717" y="219.01904761904763" type="line"/>
    </contour>
    <contour>
      <point x="380.5333333333333" y="312.15238095238095" type="line"/>
      <point x="228.14285714285714" y="312.15238095238095" type="line"/>
      <point x="228.14285714285714" y="0.0" type="line"/>
      <point x="380.5333333333333" y="0.0" type="line"/>
    </contour>
  </outline>
</glyph>
<glyph name="Z" format="2">
  <advance width="583.0571428571428"/>
  <unicode hex="005A"/>
  <anchor x="297.9047619047619" y="-4.685714285714286" name="bottom"/>
  <anchor x="290.5904761904762" y="733.1714285714286" name="top"/>
  <outline>
    <contour>
      <point x="368.83809523809526" y="574.3523809523809" type="line"/>
      <point x="39.971428571428575" y="116.64761904761905" type="line"/>
      <point x="207.65714285714284" y="115.64761904761905" type="line"/>
      <point x="535.9142857142857" y="573.3523809523809" type="line"/>
    </contour>
    <contour>
      <point x="544.0857142857143" y="116.64761904761905" type="line"/>
      <point x="39.971428571428575" y="116.64761904761905" type="line"/>
      <point x="39.971428571428575" y="0.0" type="line"/>
      <point x="544.0857142857143" y="0.0" type="line"/>
    </contour>
    <contour>
      <point x="535.9142857142857" y="690.0" type="line"/>
      <point x="47.53333333333333" y="690.0" type="line"/>
      <point x="47.53333333333333" y="573.3523809523809" type="line"/>
      <point x="535.9142857142857" y="573.3523809523809" type="line"/>
    </contour>
  </outline>
</glyph>
<glyph name="bracketleft" format="2">
  <advance width="345.93333333333334"/>
  <unicode hex="005B"/>
  <outline>
    <contour>
      <point x="313.4" y="768.0" type="line"/>
      <point x="153.46666666666667" y="768.0" type="line" smooth="yes"/>
      <point x="108.0952380952381" y="768.0"/>
      <point x="76.23809523809524" y="736.1428571428571"/>
      <point x="76.23809523809524" y="690.7714285714286" type="curve" smooth="yes"/>
      <point x="76.23809523809524" y="-87.77142857142857" type="line" smooth="yes"/>
      <point x="76.23809523809524" y="-146.43809523809523"/>
      <point x="108.0952380952381" y="-165.0"/>
      <point x="153.46666666666667" y="-165.0" type="curve" smooth="yes"/>
      <point x="313.4" y="-165.0" type="line"/>
      <point x="313.4" y="-72.96190476190476" type="line"/>
      <point x="232.67619047619047" y="-72.96190476190476" type="line" smooth="yes"/>
      <point x="222.1142857142857" y="-72.96190476190476"/>
      <point x="214.33333333333334" y="-65.18095238095238"/>
      <point x="214.33333333333334" y="-54.00952380952381" type="curve" smooth="yes"/>
      <point x="214.33333333333334" y="657.0095238095238" type="line" smooth="yes"/>
      <point x="214.33333333333334" y="668.1809523809524"/>
      <point x="222.1142857142857" y="675.9619047619047"/>
      <point x="232.67619047619047" y="675.9619047619047" type="curve" smooth="yes"/>
      <point x="313.4" y="675.9619047619047" type="line"/>
    </contour>
  </outline>
</glyph>
<glyph name="backslash" format="2">
  <advance width="550.8190476190476"/>
  <unicode hex="005C"/>
  <outline>
    <contour>
      <point x="137.94285714285715" y="690.0" type="line"/>
      <point x="19.876190476190477" y="690.0" type="line"/>
      <point x="412.87619047619046" y="-72.29523809523809" type="line"/>
      <point x="530.9428571428572" y="-72.29523809523809" type="line"/>
    </contour>
  </outline>
</glyph>
<glyph name="bracketright" format="2">
  <advance width="345.93333333333334"/>
  <unicode hex="005D"/>
  <outline>
    <contour>
      <point x="191.85714285714286" y="768.0" type="curve" smooth="yes"/>
      <point x="32.53333333333333" y="768.0" type="line"/>
      <point x="32.53333333333333" y="675.9619047619047" type="line"/>
      <point x="112.64761904761905" y="675.9619047619047" type="line" smooth="yes"/>
      <point x="123.81904761904762" y="675.9619047619047"/>
      <point x="131.6" y="668.1809523809524"/>
      <point x="131.6" y="657.0095238095238" type="curve" smooth="yes"/>
      <point x="131.6" y="-54.00952380952381" type="line" smooth="yes"/>
      <point x="131.6" y="-65.18095238095238"/>
      <point x="123.81904761904762" y="-72.96190476190476"/>
      <point x="112.64761904761905" y="-72.96190476190476" type="curve" smooth="yes"/>
      <point x="32.53333333333333" y="-72.96190476190476" type="line"/>
      <point x="32.53333333333333" y="-165.0" type="line"/>
      <point x="191.85714285714286" y="-165.0" type="line" smooth="yes"/>
      <point x="237.83809523809524" y="-165.0"/>
      <point x="269.6952380952381" y="-133.14285714285714"/>
      <point x="269.6952380952381" y="-87.77142857142857" type="curve" smooth="yes"/>
      <point x="269.6952380952381" y="690.7714285714286" type="line" smooth="yes"/>
      <point x="269.6952380952381" y="736.1428571428571"/>
      <point x="237.83809523809524" y="768.0"/>
    </contour>
  </outline>
</glyph>
<glyph name="asciicircum" format="2">
  <advance width="461.64761904761906"/>
  <unicode hex="005E"/>
  <outline>
    <contour>
      <point x="285.2423619047619" y="626.7264761904762" type="line"/>
      <point x="178.37881904761903" y="626.7264761904762" type="line"/>
      <point x="30.0" y="401.8735238095238" type="line"/>
      <point x="87.43177142857144" y="369.9788190476191" type="line"/>
      <point x="227.81059047619047" y="535.4" type="line"/>
      <point x="235.81059047619047" y="535.4" type="line"/>
      <point x="373.8735238095238" y="369.9788190476191" type="line"/>
      <point x="431.6317714285714" y="401.8735238095238" type="line"/>
    </contour>
  </outline>
</glyph>
<glyph name="underscore" format="2">
  <advance width="444.2952380952381"/>
  <unicode hex="005F"/>
  <outline>
    <contour>
      <point x="444.2952380952381" y="0.0" type="line"/>
      <point x="0.0" y="0.0" type="line"/>
      <point x="0.0" y="-97.00952380952381" type="line"/>
      <point x="444.2952380952381" y="-97.00952380952381" type="line"/>
    </contour>
  </outline>
</glyph>
<glyph name="grave" format="2">
  <advance width="353.2629333333333"/>
  <unicode hex="0060"/>
  <anchor x="225.4375619047619" y="534.6137904761904" name="_top"/>
  <outline>
    <contour>
      <point x="101.93333333333334" y="743.8380952380952" type="line"/>
      <point x="34.51428571428571" y="641.3142857142857" type="line"/>
      <point x="259.64761904761906" y="532.2190476190476" type="line"/>
      <point x="303.23809523809524" y="595.6666666666666" type="line"/>
    </contour>
  </outline>
</glyph>
<glyph name="a" format="2">
  <advance width="567.447619047619"/>
  <unicode hex="0061"/>
  <anchor x="275.15238095238095" y="-12.0" name="bottom"/>
  <anchor x="509.9428571428571" y="0.0" name="ogonek"/>
  <anchor x="286.54285714285714" y="557.0761904761905" name="top"/>
  <outline>
    <contour>
      <point x="316.54285714285714" y="506.6857142857143" type="curve" smooth="yes"/>
      <point x="248.46666666666667" y="506.6857142857143"/>
      <point x="131.92380952380952" y="495.6857142857143"/>
      <point x="60.19047619047619" y="482.9047619047619" type="curve"/>
      <point x="73.70476190476191" y="382.81904761904764" type="line"/>
      <point x="153.21904761904761" y="388.03809523809525"/>
      <point x="235.26666666666668" y="391.4761904761905"/>
      <point x="282.3904761904762" y="391.4761904761905" type="curve" smooth="yes"/>
      <point x="344.67619047619047" y="391.4761904761905"/>
      <point x="362.3333333333333" y="377.0857142857143"/>
      <point x="363.3333333333333" y="326.84761904761905" type="curve" smooth="yes"/>
      <point x="363.3333333333333" y="122.12380952380953" type="line"/>
      <point x="373.06666666666666" y="106.39047619047619" type="line"/>
      <point x="394.14285714285717" y="0.0" type="line"/>
      <point x="511.16190476190474" y="0.0" type="line"/>
      <point x="511.16190476190474" y="326.45714285714286" type="line" smooth="yes"/>
      <point x="511.16190476190474" y="464.7809523809524"/>
      <point x="443.5238095238095" y="506.6857142857143"/>
    </contour>
    <contour>
      <point x="450.8857142857143" y="305.1714285714286" type="line"/>
      <point x="187.21904761904761" y="305.1714285714286" type="line" smooth="yes"/>
      <point x="92.53333333333333" y="305.1714285714286"/>
      <point x="36.23809523809524" y="258.6095238095238"/>
      <point x="36.23809523809524" y="179.82857142857142" type="curve" smooth="yes"/>
      <point x="36.23809523809524" y="129.82857142857142" type="line" smooth="yes"/>
      <point x="36.23809523809524" y="37.65714285714286"/>
      <point x="105.48571428571428" y="-11.561904761904762"/>
      <point x="196.65714285714284" y="-11.561904761904762" type="curve" smooth="yes"/>
      <point x="317.9809523809524" y="-11.561904761904762"/>
      <point x="386.56190476190477" y="76.88571428571429"/>
      <point x="409.2190476190476" y="117.00952380952381" type="curve"/>
      <point x="409.2190476190476" y="188.93333333333334" type="line"/>
      <point x="358.15238095238095" y="129.6"/>
      <point x="287.18095238095236" y="99.35238095238095"/>
      <point x="239.57142857142858" y="99.35238095238095" type="curve" smooth="yes"/>
      <point x="199.9904761904762" y="99.35238095238095"/>
      <point x="182.33333333333334" y="115.4"/>
      <point x="182.33333333333334" y="150.46666666666667" type="curve" smooth="yes"/>
      <point x="182.33333333333334" y="168.9047619047619" type="line" smooth="yes"/>
      <point x="182.33333333333334" y="197.26666666666668"/>
      <point x="194.1142857142857" y="215.14285714285714"/>
      <point x="230.0857142857143" y="216.36190476190475" type="curve" smooth="yes"/>
      <point x="449.8857142857143" y="216.36190476190475" type="line"/>
    </contour>
  </outline>
</glyph>
<glyph name="b" format="2">
  <advance width="591.7904761904762"/>
  <unicode hex="0062"/>
  <outline>
    <contour>
      <point x="369.6952380952381" y="506.6857142857143" type="curve" smooth="yes"/>
      <point x="297.96190476190475" y="506.6857142857143"/>
      <point x="229.96190476190475" y="468.65714285714284"/>
      <point x="180.42857142857142" y="411.2952380952381" type="curve"/>
      <point x="191.16190476190476" y="336.6095238095238" type="line"/>
      <point x="234.83809523809524" y="366.1142857142857"/>
      <point x="266.8095238095238" y="388.6952380952381"/>
      <point x="310.95238095238096" y="388.6952380952381" type="curve" smooth="yes"/>
      <point x="383.9428571428571" y="388.6952380952381"/>
      <point x="398.7714285714286" y="357.06666666666666"/>
      <point x="399.3809523809524" y="250.1238095238095" type="curve" smooth="yes"/>
      <point x="398.7714285714286" y="132.8857142857143"/>
      <point x="374.4095238095238" y="99.6952380952381"/>
      <point x="307.0285714285714" y="97.91428571428571" type="curve" smooth="yes"/>
      <point x="269.8857142857143" y="96.52380952380952"/>
      <point x="212.54285714285714" y="102.91428571428571"/>
      <point x="177.0857142857143" y="115.57142857142857" type="curve"/>
      <point x="59.06666666666666" y="26.34285714285714" type="line"/>
      <point x="120.11428571428571" y="0.0"/>
      <point x="239.85714285714286" y="-12.0"/>
      <point x="309.8095238095238" y="-12.0" type="curve" smooth="yes"/>
      <point x="506.7238095238095" y="-12.0"/>
      <point x="551.3809523809524" y="99.66666666666667"/>
      <point x="551.3809523809524" y="250.5142857142857" type="curve" smooth="yes"/>
      <point x="551.3809523809524" y="433.51428571428573"/>
      <point x="496.8952380952381" y="506.6857142857143"/>
    </contour>
    <contour>
      <point x="206.89523809523808" y="700.0" type="line"/>
      <point x="59.06666666666666" y="700.0" type="line"/>
      <point x="59.06666666666666" y="26.34285714285714" type="line"/>
      <point x="206.89523809523808" y="19.39047619047619" type="line"/>
      <point x="206.28571428571428" y="402.95238095238096" type="line"/>
      <point x="191.38095238095238" y="416.1714285714286" type="line"/>
      <point x="204.1142857142857" y="455.51428571428573"/>
      <point x="208.06666666666666" y="497.76190476190476"/>
      <point x="207.67619047619047" y="542.7142857142857" type="curve" smooth="yes"/>
    </contour>
  </outline>
</glyph>
<glyph name="c" format="2">
  <advance width="506.6666666666667"/>
  <unicode hex="0063"/>
  <anchor x="275.3904761904762" y="-13.952380952380953" name="bottom"/>
  <anchor x="276.15238095238095" y="554.5619047619048" name="top"/>
  <outline>
    <contour>
      <point x="288.51428571428573" y="506.6857142857143" type="curve" smooth="yes"/>
      <point x="106.75238095238095" y="506.6857142857143"/>
      <point x="40.01904761904762" y="437.9047619047619"/>
      <point x="40.01904761904762" y="247.34285714285716" type="curve" smooth="yes"/>
      <point x="40.01904761904762" y="56.78095238095238"/>
      <point x="105.75238095238095" y="-12.0"/>
      <point x="287.12380952380954" y="-12.0" type="curve" smooth="yes"/>
      <point x="353.76190476190476" y="-12.0"/>
      <point x="424.79047619047617" y="-2.219047619047619"/>
      <point x="478.3047619047619" y="21.46666666666667" type="curve"/>
      <point x="464.79047619047617" y="116.5047619047619" type="line"/>
      <point x="408.4952380952381" y="108.8952380952381"/>
      <point x="345.1047619047619" y="107.67619047619047"/>
      <point x="313.54285714285714" y="107.67619047619047" type="curve" smooth="yes"/>
      <point x="224.55238095238096" y="107.67619047619047"/>
      <point x="194.8" y="137.64761904761906"/>
      <point x="194.8" y="247.34285714285716" type="curve" smooth="yes"/>
      <point x="194.8" y="356.03809523809525"/>
      <point x="224.55238095238096" y="386.0095238095238"/>
      <point x="313.54285714285714" y="386.0095238095238" type="curve" smooth="yes"/>
      <point x="351.2761904761905" y="386.0095238095238"/>
      <point x="400.93333333333334" y="385.4"/>
      <point x="454.57142857142856" y="384.18095238095236" type="curve"/>
      <point x="470.6952380952381" y="476.3904761904762" type="line"/>
      <point x="416.79047619047617" y="499.9047619047619"/>
      <point x="340.37142857142857" y="506.6857142857143"/>
    </contour>
  </outline>
</glyph>
<glyph name="d" format="2">
  <advance width="593.7904761904762"/>
  <unicode hex="0064"/>
  <anchor x="306.37142857142857" y="-13.952380952380953" name="bottom"/>
  <anchor x="462.1047619047619" y="699.7523809523809" name="top"/>
  <outline>
    <contour>
      <point x="230.1904761904762" y="506.6857142857143" type="curve" smooth="yes"/>
      <point x="106.19047619047619" y="506.6857142857143"/>
      <point x="41.40952380952381" y="448.2"/>
      <point x="41.40952380952381" y="250.5142857142857" type="curve" smooth="yes"/>
      <point x="41.40952380952381" y="82.95238095238095"/>
      <point x="90.19047619047619" y="-12.0"/>
      <point x="216.31428571428572" y="-12.0" type="curve" smooth="yes"/>
      <point x="308.6857142857143" y="-12.0"/>
      <point x="374.2190476190476" y="32.56190476190476"/>
      <point x="413.4095238095238" y="82.5904761904762" type="curve"/>
      <point x="401.62857142857143" y="160.66666666666666" type="line"/>
      <point x="348.8095238095238" y="126.16190476190476"/>
      <point x="324.7142857142857" y="110.28571428571428"/>
      <point x="274.6190476190476" y="110.28571428571428" type="curve" smooth="yes"/>
      <point x="217.33333333333334" y="110.28571428571428"/>
      <point x="193.40952380952382" y="133.6952380952381"/>
      <point x="193.40952380952382" y="251.9047619047619" type="curve" smooth="yes"/>
      <point x="193.40952380952382" y="375.9714285714286"/>
      <point x="217.33333333333334" y="396.5047619047619"/>
      <point x="280.0571428571429" y="396.5047619047619" type="curve" smooth="yes"/>
      <point x="326.54285714285714" y="396.5047619047619"/>
      <point x="358.12380952380954" y="384.7238095238095"/>
      <point x="402.1904761904762" y="374.2857142857143" type="curve"/>
      <point x="412.3142857142857" y="445.3142857142857" type="line"/>
      <point x="364.0" y="489.12380952380954"/>
      <point x="298.26666666666665" y="506.6857142857143"/>
    </contour>
    <contour>
      <point x="533.1142857142858" y="700.0" type="line"/>
      <point x="385.2857142857143" y="700.0" type="line"/>
      <point x="385.2857142857143" y="565.7619047619048" type="line" smooth="yes"/>
      <point x="385.2857142857143" y="522.0285714285715"/>
      <point x="387.67619047619047" y="479.7809523809524"/>
      <point x="391.8952380952381" y="439.2190476190476" type="curve"/>
      <point x="385.2857142857143" y="426.0" type="line"/>
      <point x="385.2857142857143" y="101.02857142857142" type="line"/>
      <point x="401.5809523809524" y="89.29523809523809" type="line"/>
      <point x="416.0952380952381" y="0.0" type="line"/>
      <point x="533.1142857142858" y="0.0" type="line"/>
    </contour>
  </outline>
</glyph>
<glyph name="e" format="2">
  <advance width="560.1333333333333"/>
  <unicode hex="0065"/>
  <anchor x="288.0095238095238" y="-12.0" name="bottom"/>
  <anchor x="511.7238095238095" y="25.46666666666667" name="ogonek"/>
  <anchor x="294.32380952380953" y="553.952380952381" name="top"/>
  <outline>
    <contour>
      <point x="290.7142857142857" y="506.6857142857143" type="curve" smooth="yes"/>
      <point x="112.36190476190477" y="506.6857142857143"/>
      <point x="39.628571428571426" y="441.1714285714286"/>
      <point x="39.628571428571426" y="246.0" type="curve" smooth="yes"/>
      <point x="39.628571428571426" y="64.41904761904762"/>
      <point x="109.53333333333333" y="-12.0"/>
      <point x="296.5904761904762" y="-12.0" type="curve" smooth="yes"/>
      <point x="367.0857142857143" y="-12.0"/>
      <point x="453.5238095238095" y="-3.219047619047619"/>
      <point x="511.7238095238095" y="24.857142857142858" type="curve"/>
      <point x="498.20952380952383" y="117.33333333333333" type="line"/>
      <point x="431.1047619047619" y="109.55238095238096"/>
      <point x="358.9809523809524" y="105.72380952380952"/>
      <point x="314.1047619047619" y="105.72380952380952" type="curve" smooth="yes"/>
      <point x="221.42857142857142" y="105.72380952380952"/>
      <point x="193.8" y="131.28571428571428"/>
      <point x="193.8" y="258.6380952380952" type="curve" smooth="yes"/>
      <point x="193.8" y="375.3142857142857"/>
      <point x="214.94285714285715" y="399.5047619047619"/>
      <point x="296.1047619047619" y="399.1142857142857" type="curve" smooth="yes"/>
      <point x="359.7047619047619" y="399.1142857142857"/>
      <point x="380.1904761904762" y="383.3619047619048"/>
      <point x="380.1904761904762" y="337.34285714285716" type="curve" smooth="yes"/>
      <point x="380.1904761904762" y="308.8285714285714"/>
      <point x="374.4095238095238" y="285.93333333333334"/>
      <point x="333.67619047619047" y="285.93333333333334" type="curve" smooth="yes"/>
      <point x="95.02857142857142" y="285.93333333333334" type="line"/>
      <point x="95.02857142857142" y="197.2952380952381" type="line"/>
      <point x="375.0" y="197.2952380952381" type="line" smooth="yes"/>
      <point x="482.3809523809524" y="197.2952380952381"/>
      <point x="524.8952380952381" y="244.82857142857142"/>
      <point x="524.504761904762" y="334.7809523809524" type="curve" smooth="yes"/>
      <point x="524.1142857142858" y="447.51428571428573"/>
      <point x="458.6" y="506.6857142857143"/>
    </contour>
  </outline>
</glyph>
<glyph name="f" format="2">
  <advance width="404.44761904761907"/>
  <unicode hex="0066"/>
  <outline>
    <contour>
      <point x="267.46666666666664" y="720.3428571428572" type="curve" smooth="yes"/>
      <point x="147.53333333333333" y="720.3428571428572"/>
      <point x="105.4095238095238" y="659.8761904761905"/>
      <point x="105.4095238095238" y="567.7047619047619" type="curve" smooth="yes"/>
      <point x="105.4095238095238" y="0.0" type="line"/>
      <point x="253.62857142857143" y="0.0" type="line"/>
      <point x="253.62857142857143" y="548.4571428571429" type="line" smooth="yes"/>
      <point x="253.62857142857143" y="594.7714285714286"/>
      <point x="270.1142857142857" y="612.0380952380953"/>
      <point x="319.9142857142857" y="612.0380952380953" type="curve" smooth="yes"/>
      <point x="413.4" y="612.0380952380953" type="line"/>
      <point x="426.6952380952381" y="710.0" type="line"/>
      <point x="382.79047619047617" y="717.5619047619048"/>
      <point x="303.2" y="720.3428571428572"/>
    </contour>
    <contour>
      <point x="389.6952380952381" y="493.2952380952381" type="line"/>
      <point x="108.23809523809524" y="493.2952380952381" type="line"/>
      <point x="18.97142857142857" y="488.2952380952381" type="line"/>
      <point x="18.97142857142857" y="393.5047619047619" type="line"/>
      <point x="389.6952380952381" y="393.5047619047619" type="line"/>
    </contour>
  </outline>
</glyph>
<glyph name="g" format="2">
  <advance width="579.0095238095238"/>
  <unicode hex="0067"/>
  <anchor x="280.4190476190476" y="550.6571428571428" name="top"/>
  <outline>
    <contour>
      <point x="278.247619047619" y="506.6857142857143" type="curve" smooth="yes"/>
      <point x="104.48571428571428" y="506.6857142857143"/>
      <point x="45.457142857142856" y="463.0761904761905"/>
      <point x="45.457142857142856" y="348.0761904761905" type="curve" smooth="yes"/>
      <point x="45.457142857142856" y="236.34285714285716"/>
      <point x="104.0952380952381" y="191.2952380952381"/>
      <point x="277.247619047619" y="191.2952380952381" type="curve" smooth="yes"/>
      <point x="450.79047619047617" y="191.2952380952381"/>
      <point x="508.64761904761906" y="236.34285714285716"/>
      <point x="508.64761904761906" y="348.6857142857143" type="curve" smooth="yes"/>
      <point x="508.64761904761906" y="463.0761904761905"/>
      <point x="450.4" y="506.6857142857143"/>
    </contour>
    <contour>
      <point x="277.247619047619" y="412.4095238095238" type="curve" smooth="yes"/>
      <point x="350.0190476190476" y="412.4095238095238"/>
      <point x="372.16190476190474" y="398.3142857142857"/>
      <point x="372.16190476190474" y="348.6857142857143" type="curve" smooth="yes"/>
      <point x="372.16190476190474" y="300.8857142857143"/>
      <point x="350.0190476190476" y="284.57142857142856"/>
      <point x="277.247619047619" y="284.57142857142856" type="curve" smooth="yes"/>
      <point x="204.47619047619048" y="284.57142857142856"/>
      <point x="181.33333333333334" y="300.8857142857143"/>
      <point x="181.33333333333334" y="348.6857142857143" type="curve" smooth="yes"/>
      <point x="181.33333333333334" y="398.3142857142857"/>
      <point x="204.47619047619048" y="412.4095238095238"/>
    </contour>
    <contour>
      <point x="566.2571428571429" y="493.2952380952381" type="line"/>
      <point x="390.83809523809526" y="493.2952380952381" type="line"/>
      <point x="426.6190476190476" y="411.1904761904762" type="line"/>
      <point x="558.6952380952381" y="428.48571428571427" type="line"/>
    </contour>
    <contour>
      <point x="130.43809523809523" y="221.1238095238095" type="line"/>
      <point x="55.285714285714285" y="193.46666666666667"/>
      <point x="43.72380952380952" y="48.31428571428572"/>
      <point x="166.2952380952381" y="35.7047619047619" type="curve" smooth="yes"/>
      <point x="321.1904761904762" y="19.0" type="line" smooth="yes"/>
      <point x="383.7238095238095" y="11.952380952380953"/>
      <point x="402.23809523809524" y="9.342857142857143"/>
      <point x="402.23809523809524" y="-27.238095238095237" type="curve" smooth="yes"/>
      <point x="402.23809523809524" y="-72.4"/>
      <point x="379.1904761904762" y="-81.05714285714285"/>
      <point x="281.85714285714283" y="-81.05714285714285" type="curve" smooth="yes"/>
      <point x="186.64761904761906" y="-81.05714285714285"/>
      <point x="164.6" y="-73.83809523809524"/>
      <point x="164.6" y="-25.285714285714285" type="curve" smooth="yes"/>
      <point x="164.6" y="10.59047619047619"/>
      <point x="185.25714285714287" y="23.60952380952381"/>
      <point x="232.23809523809524" y="59.2952380952381" type="curve" smooth="yes"/>
      <point x="273.9904761904762" y="90.31428571428572" type="line"/>
      <point x="220.61904761904762" y="110.21904761904761" type="line"/>
      <point x="146.2" y="80.85714285714286" type="line" smooth="yes"/>
      <point x="55.8952380952381" y="48.2"/>
      <point x="24.066666666666666" y="18.123809523809523"/>
      <point x="24.066666666666666" y="-43.87619047619047" type="curve" smooth="yes"/>
      <point x="24.066666666666666" y="-153.58095238095237"/>
      <point x="78.77142857142857" y="-191.36190476190475"/>
      <point x="283.6380952380952" y="-191.36190476190475" type="curve" smooth="yes"/>
      <point x="473.83809523809526" y="-191.36190476190475"/>
      <point x="542.7714285714286" y="-158.65714285714284"/>
      <point x="542.7714285714286" y="-31.285714285714285" type="curve" smooth="yes"/>
      <point x="542.7714285714286" y="57.96190476190476"/>
      <point x="502.8666666666667" y="104.3047619047619"/>
      <point x="400.44761904761907" y="115.96190476190476" type="curve" smooth="yes"/>
      <point x="220.8857142857143" y="137.10476190476192" type="line" smooth="yes"/>
      <point x="173.05714285714285" y="142.54285714285714"/>
      <point x="179.44761904761904" y="193.63809523809525"/>
      <point x="204.27619047619046" y="209.0" type="curve"/>
    </contour>
  </outline>
</glyph>
<glyph name="h" format="2">
  <advance width="599.0571428571428"/>
  <unicode hex="0068"/>
  <anchor x="306.9047619047619" y="-12.0" name="bottom"/>
  <anchor x="298.6857142857143" y="231.8" name="center"/>
  <anchor x="133.98095238095237" y="709.5142857142857" name="top"/>
  <outline>
    <contour>
      <point x="402.5238095238095" y="506.6857142857143" type="curve" smooth="yes"/>
      <point x="329.3047619047619" y="506.6857142857143"/>
      <point x="253.1809523809524" y="472.0761904761905"/>
      <point x="180.96190476190475" y="410.2190476190476" type="curve"/>
      <point x="192.6" y="328.9714285714286" type="line"/>
      <point x="260.6666666666667" y="364.8666666666667"/>
      <point x="302.2952380952381" y="382.1047619047619"/>
      <point x="345.9714285714286" y="382.1047619047619" type="curve" smooth="yes"/>
      <point x="381.7238095238095" y="382.1047619047619"/>
      <point x="393.55238095238093" y="369.2285714285714"/>
      <point x="393.55238095238093" y="324.06666666666666" type="curve" smooth="yes"/>
      <point x="393.55238095238093" y="0.0" type="line"/>
      <point x="541.3809523809524" y="0.0" type="line"/>
      <point x="541.3809523809524" y="369.73333333333335" type="line" smooth="yes"/>
      <point x="541.3809523809524" y="459.2952380952381"/>
      <point x="492.81904761904764" y="506.6857142857143"/>
    </contour>
    <contour>
      <point x="208.5047619047619" y="700.0" type="line"/>
      <point x="60.67619047619048" y="700.0" type="line"/>
      <point x="60.67619047619048" y="0.0" type="line"/>
      <point x="208.5047619047619" y="0.0" type="line"/>
      <point x="208.5047619047619" y="382.34285714285716" type="line"/>
      <point x="193.9904761904762" y="396.1714285714286" type="line"/>
      <point x="202.55238095238096" y="426.73333333333335"/>
      <point x="209.5047619047619" y="476.9809523809524"/>
      <point x="209.5047619047619" y="529.0571428571428" type="curve" smooth="yes"/>
    </contour>
  </outline>
</glyph>
<glyph name="i" format="2">
  <advance width="276.18095238095236"/>
  <unicode hex="0069"/>
  <anchor x="138.8095238095238" y="-12.0" name="bottom"/>
  <anchor x="199.6" y="0.0" name="ogonek"/>
  <anchor x="138.41904761904763" y="554.5619047619048" name="top"/>
  <outline>
    <contour>
      <point x="211.5047619047619" y="493.2952380952381" type="line"/>
      <point x="64.67619047619047" y="493.2952380952381" type="line"/>
      <point x="64.67619047619047" y="0.0" type="line"/>
      <point x="211.5047619047619" y="0.0" type="line"/>
    </contour>
    <contour>
      <point x="171.0095238095238" y="710.7142857142857" type="curve" smooth="yes"/>
      <point x="105.17142857142858" y="710.7142857142857" type="line" smooth="yes"/>
      <point x="76.36190476190477" y="710.7142857142857"/>
      <point x="62.457142857142856" y="695.5904761904762"/>
      <point x="62.457142857142856" y="667.6095238095238" type="curve" smooth="yes"/>
      <point x="62.457142857142856" y="614.1714285714286" type="line" smooth="yes"/>
      <point x="62.457142857142856" y="584.9714285714285"/>
      <point x="76.36190476190477" y="571.0666666666667"/>
      <point x="105.17142857142858" y="571.0666666666667" type="curve" smooth="yes"/>
      <point x="171.0095238095238" y="571.0666666666667" type="line" smooth="yes"/>
      <point x="199.8190476190476" y="571.0666666666667"/>
      <point x="213.72380952380954" y="584.9714285714285"/>
      <point x="213.72380952380954" y="614.1714285714286" type="curve" smooth="yes"/>
      <point x="213.72380952380954" y="667.6095238095238" type="line" smooth="yes"/>
      <point x="213.72380952380954" y="695.5904761904762"/>
      <point x="199.8190476190476" y="710.7142857142857"/>
    </contour>
  </outline>
</glyph>
<glyph name="j" format="2">
  <advance width="277.79047619047617"/>
  <unicode hex="006A"/>
  <outline>
    <contour>
      <point x="213.1142857142857" y="493.2952380952381" type="line"/>
      <point x="65.67619047619047" y="493.2952380952381" type="line"/>
      <point x="65.67619047619047" y="23.257142857142856" type="line" smooth="yes"/>
      <point x="65.67619047619047" y="-36.79047619047619"/>
      <point x="49.06666666666666" y="-82.18095238095238"/>
      <point x="4.600000000000001" y="-132.13333333333333" type="curve"/>
      <point x="86.46666666666667" y="-196.7047619047619" type="line"/>
      <point x="164.9142857142857" y="-154.4857142857143"/>
      <point x="213.1142857142857" y="-67.94285714285715"/>
      <point x="213.1142857142857" y="23.257142857142856" type="curve" smooth="yes"/>
    </contour>
    <contour>
      <point x="171.44761904761904" y="714.6190476190476" type="curve" smooth="yes"/>
      <point x="105.60952380952381" y="714.6190476190476" type="line"/>
      <point x="76.8" y="714.6190476190476"/>
      <point x="62.8952380952381" y="699.495238095238"/>
      <point x="62.8952380952381" y="671.5142857142857" type="curve" smooth="yes"/>
      <point x="62.8952380952381" y="618.0761904761905" type="line"/>
      <point x="62.8952380952381" y="588.8761904761905"/>
      <point x="76.8" y="574.9714285714285"/>
      <point x="105.60952380952381" y="574.9714285714285" type="curve" smooth="yes"/>
      <point x="171.44761904761904" y="574.9714285714285" type="line"/>
      <point x="200.25714285714287" y="574.9714285714285"/>
      <point x="214.16190476190476" y="588.8761904761905"/>
      <point x="214.16190476190476" y="618.0761904761905" type="curve" smooth="yes"/>
      <point x="214.16190476190476" y="671.5142857142857" type="line"/>
      <point x="214.16190476190476" y="699.495238095238"/>
      <point x="200.25714285714287" y="714.6190476190476"/>
    </contour>
  </outline>
</glyph>
<glyph name="k" format="2">
  <advance width="556.5809523809523"/>
  <unicode hex="006B"/>
  <guideline x="470.6095238095238" y="273.0" angle="90.0"/>
  <anchor x="285.5238095238095" y="0.0" name="bottom"/>
  <outline>
    <contour>
      <point x="535.6095238095238" y="493.2952380952381" type="line"/>
      <point x="370.2190476190476" y="493.2952380952381" type="line"/>
      <point x="218.44761904761904" y="278.8285714285714" type="line"/>
      <point x="387.0" y="0.0" type="line"/>
      <point x="552.7809523809524" y="0.0" type="line"/>
      <point x="408.0571428571429" y="219.62857142857143" type="line" smooth="yes"/>
      <point x="396.1047619047619" y="240.92380952380952"/>
      <point x="374.2" y="265.2190476190476"/>
      <point x="362.247619047619" y="272.6095238095238" type="curve"/>
      <point x="362.247619047619" y="275.3904761904762" type="line"/>
      <point x="374.2" y="283.1714285714286"/>
      <point x="396.1047619047619" y="302.2952380952381"/>
      <point x="408.0571428571429" y="321.9809523809524" type="curve" smooth="yes"/>
    </contour>
    <contour>
      <point x="208.5047619047619" y="700.0" type="line"/>
      <point x="60.67619047619048" y="700.0" type="line"/>
      <point x="60.67619047619048" y="0.0" type="line"/>
      <point x="208.5047619047619" y="0.0" type="line"/>
      <point x="208.5047619047619" y="154.58095238095237" type="line" smooth="yes"/>
      <point x="208.5047619047619" y="191.14285714285714"/>
      <point x="201.55238095238096" y="237.21904761904761"/>
      <point x="193.6" y="277.7809523809524" type="curve"/>
      <point x="203.94285714285715" y="320.12380952380954"/>
      <point x="209.1142857142857" y="364.54285714285714"/>
      <point x="209.1142857142857" y="410.6666666666667" type="curve" smooth="yes"/>
    </contour>
    <contour>
      <point x="276.9142857142857" y="321.2" type="line"/>
      <point x="162.35238095238094" y="321.2" type="line"/>
      <point x="162.35238095238094" y="228.8" type="line"/>
      <point x="276.9142857142857" y="228.8" type="line"/>
    </contour>
  </outline>
</glyph>
<glyph name="l" format="2">
  <advance width="326.9142857142857"/>
  <unicode hex="006C"/>
  <anchor x="193.07619047619048" y="-12.0" name="bottom"/>
  <anchor x="135.59047619047618" y="740.9238095238095" name="top"/>
  <outline>
    <contour>
      <point x="209.1142857142857" y="700.0" type="line"/>
      <point x="61.67619047619048" y="700.0" type="line"/>
      <point x="61.67619047619048" y="124.17142857142858" type="line" smooth="yes"/>
      <point x="61.67619047619048" y="37.39047619047619"/>
      <point x="116.53333333333333" y="-11.561904761904762"/>
      <point x="204.46666666666667" y="-11.561904761904762" type="curve" smooth="yes"/>
      <point x="235.54285714285714" y="-11.561904761904762"/>
      <point x="297.0857142857143" y="-5.390476190476191"/>
      <point x="321.6" y="7.733333333333333" type="curve"/>
      <point x="304.6952380952381" y="110.64761904761905" type="line"/>
      <point x="265.20952380952383" y="110.64761904761905" type="line" smooth="yes"/>
      <point x="227.55238095238096" y="110.64761904761905"/>
      <point x="208.5047619047619" y="126.74285714285715"/>
      <point x="208.5047619047619" y="161.27619047619046" type="curve" smooth="yes"/>
    </contour>
  </outline>
</glyph>
<glyph name="m" format="2">
  <advance width="878.2952380952381"/>
  <unicode hex="006D"/>
  <anchor x="440.95238095238096" y="-12.0" name="bottom"/>
  <anchor x="447.26666666666665" y="557.6095238095238" name="top"/>
  <outline>
    <contour>
      <point x="683.9333333333333" y="506.6857142857143" type="curve" smooth="yes"/>
      <point x="613.2" y="506.6857142857143"/>
      <point x="553.8857142857142" y="476.6857142857143"/>
      <point x="489.79047619047617" y="414.2952380952381" type="curve"/>
      <point x="498.35238095238094" y="328.9714285714286" type="line"/>
      <point x="561.9047619047619" y="369.1333333333333"/>
      <point x="586.2190476190476" y="382.1047619047619"/>
      <point x="621.8952380952381" y="382.1047619047619" type="curve" smooth="yes"/>
      <point x="661.5238095238095" y="382.1047619047619"/>
      <point x="673.7904761904762" y="365.57142857142856"/>
      <point x="674.4" y="324.06666666666666" type="curve" smooth="yes"/>
      <point x="674.4" y="0.0" type="line"/>
      <point x="820.6190476190476" y="0.0" type="line"/>
      <point x="820.6190476190476" y="369.73333333333335" type="line" smooth="yes"/>
      <point x="820.6190476190476" y="459.2952380952381"/>
      <point x="773.447619047619" y="506.6857142857143"/>
    </contour>
    <contour>
      <point x="178.96190476190475" y="493.2952380952381" type="line"/>
      <point x="60.67619047619048" y="493.2952380952381" type="line"/>
      <point x="60.67619047619048" y="0.0" type="line"/>
      <point x="207.5047619047619" y="0.0" type="line"/>
      <point x="207.5047619047619" y="382.34285714285716" type="line"/>
      <point x="192.9904761904762" y="396.1714285714286" type="line"/>
    </contour>
    <contour>
      <point x="377.18095238095236" y="506.6857142857143" type="curve" smooth="yes"/>
      <point x="304.83809523809526" y="506.6857142857143"/>
      <point x="246.3047619047619" y="475.46666666666664"/>
      <point x="182.42857142857142" y="414.2952380952381" type="curve"/>
      <point x="191.6" y="328.9714285714286" type="line"/>
      <point x="257.54285714285714" y="370.35238095238094"/>
      <point x="282.0761904761905" y="382.1047619047619"/>
      <point x="316.9238095238095" y="382.1047619047619" type="curve" smooth="yes"/>
      <point x="353.7238095238095" y="382.1047619047619"/>
      <point x="370.42857142857144" y="368.0095238095238"/>
      <point x="369.81904761904764" y="324.06666666666666" type="curve" smooth="yes"/>
      <point x="369.81904761904764" y="0.0" type="line"/>
      <point x="512.0857142857143" y="0.0" type="line"/>
      <point x="512.0857142857143" y="369.73333333333335" type="line" smooth="yes"/>
      <point x="511.4761904761905" y="459.9047619047619"/>
      <point x="464.3047619047619" y="506.6857142857143"/>
    </contour>
  </outline>
</glyph>
<glyph name="n" format="2">
  <advance width="599.0571428571428"/>
  <unicode hex="006E"/>
  <anchor x="305.6857142857143" y="-12.0" name="bottom"/>
  <anchor x="308.95238095238096" y="553.952380952381" name="top"/>
  <outline>
    <contour>
      <point x="402.5238095238095" y="506.6857142857143" type="curve" smooth="yes"/>
      <point x="330.4761904761905" y="506.6857142857143"/>
      <point x="256.3047619047619" y="473.6380952380952"/>
      <point x="185.64761904761906" y="414.9047619047619" type="curve"/>
      <point x="192.6" y="328.9714285714286" type="line"/>
      <point x="260.6666666666667" y="363.64761904761906"/>
      <point x="302.2952380952381" y="382.1047619047619"/>
      <point x="345.9714285714286" y="382.1047619047619" type="curve" smooth="yes"/>
      <point x="381.7238095238095" y="382.1047619047619"/>
      <point x="393.55238095238093" y="369.2285714285714"/>
      <point x="393.55238095238093" y="324.06666666666666" type="curve" smooth="yes"/>
      <point x="393.55238095238093" y="0.0" type="line"/>
      <point x="541.3809523809524" y="0.0" type="line"/>
      <point x="541.3809523809524" y="369.73333333333335" type="line" smooth="yes"/>
      <point x="541.3809523809524" y="459.2952380952381"/>
      <point x="492.81904761904764" y="506.6857142857143"/>
    </contour>
    <contour>
      <point x="181.1809523809524" y="493.2952380952381" type="line"/>
      <point x="60.67619047619048" y="493.2952380952381" type="line"/>
      <point x="60.67619047619048" y="0.0" type="line"/>
      <point x="208.5047619047619" y="0.0" type="line"/>
      <point x="207.89523809523808" y="382.34285714285716" type="line"/>
      <point x="196.2095238095238" y="396.1714285714286" type="line"/>
    </contour>
  </outline>
</glyph>
<glyph name="o" format="2">
  <advance width="586.6190476190476"/>
  <unicode hex="006F"/>
  <anchor x="292.37142857142857" y="-12.0" name="bottom"/>
  <anchor x="339.0285714285714" y="1.2190476190476192" name="ogonek"/>
  <anchor x="295.0285714285714" y="547.0" name="top"/>
  <outline>
    <contour>
      <point x="293.8095238095238" y="506.6857142857143" type="curve" smooth="yes"/>
      <point x="108.92380952380952" y="506.6857142857143"/>
      <point x="40.01904761904762" y="436.0761904761905"/>
      <point x="40.01904761904762" y="245.95238095238096" type="curve" smooth="yes"/>
      <point x="40.01904761904762" y="57.0"/>
      <point x="108.92380952380952" y="-12.60952380952381"/>
      <point x="293.8095238095238" y="-12.60952380952381" type="curve" smooth="yes"/>
      <point x="478.3047619047619" y="-12.60952380952381"/>
      <point x="546.6" y="57.0"/>
      <point x="546.6" y="245.95238095238096" type="curve" smooth="yes"/>
      <point x="546.6" y="436.0761904761905"/>
      <point x="478.3047619047619" y="506.6857142857143"/>
    </contour>
    <contour>
      <point x="293.8095238095238" y="396.3809523809524" type="curve" smooth="yes"/>
      <point x="370.45714285714286" y="396.3809523809524"/>
      <point x="392.42857142857144" y="366.0190476190476"/>
      <point x="392.42857142857144" y="245.95238095238096" type="curve" smooth="yes"/>
      <point x="392.42857142857144" y="127.66666666666667"/>
      <point x="370.45714285714286" y="97.6952380952381"/>
      <point x="293.8095238095238" y="97.6952380952381" type="curve" smooth="yes"/>
      <point x="216.16190476190476" y="97.6952380952381"/>
      <point x="194.8" y="127.66666666666667"/>
      <point x="194.8" y="245.95238095238096" type="curve" smooth="yes"/>
      <point x="194.8" y="366.0190476190476"/>
      <point x="216.16190476190476" y="396.3809523809524"/>
    </contour>
  </outline>
</glyph>
<glyph name="p" format="2">
  <advance width="599.8857142857142"/>
  <unicode hex="0070"/>
  <outline>
    <contour>
      <point x="387.6190476190476" y="505.9047619047619" type="curve" smooth="yes"/>
      <point x="308.54285714285714" y="505.9047619047619"/>
      <point x="224.44761904761904" y="466.34285714285716"/>
      <point x="185.64761904761906" y="413.6857142857143" type="curve"/>
      <point x="204.89523809523808" y="340.7809523809524" type="line"/>
      <point x="252.10476190476192" y="372.1142857142857"/>
      <point x="285.1714285714286" y="390.25714285714287"/>
      <point x="329.3142857142857" y="390.25714285714287" type="curve" smooth="yes"/>
      <point x="384.3809523809524" y="390.25714285714287"/>
      <point x="406.4761904761905" y="360.9714285714286"/>
      <point x="406.4761904761905" y="242.0" type="curve" smooth="yes"/>
      <point x="406.4761904761905" y="118.54285714285714"/>
      <point x="382.55238095238093" y="97.4"/>
      <point x="319.6095238095238" y="97.4" type="curve" smooth="yes"/>
      <point x="273.73333333333335" y="97.4"/>
      <point x="242.15238095238095" y="108.7904761904762"/>
      <point x="198.0857142857143" y="119.61904761904762" type="curve"/>
      <point x="188.35238095238094" y="48.59047619047619" type="line"/>
      <point x="236.27619047619046" y="4.780952380952381"/>
      <point x="302.0095238095238" y="-12.780952380952382"/>
      <point x="370.0857142857143" y="-12.780952380952382" type="curve" smooth="yes"/>
      <point x="494.0857142857143" y="-12.780952380952382"/>
      <point x="558.4761904761905" y="45.923809523809524"/>
      <point x="558.4761904761905" y="242.17142857142858" type="curve" smooth="yes"/>
      <point x="558.4761904761905" y="409.12380952380954"/>
      <point x="509.6952380952381" y="505.9047619047619"/>
    </contour>
    <contour>
      <point x="180.52380952380952" y="493.2952380952381" type="line"/>
      <point x="60.67619047619048" y="493.2952380952381" type="line"/>
      <point x="60.67619047619048" y="-190.36190476190475" type="line"/>
      <point x="207.89523809523808" y="-190.36190476190475" type="line"/>
      <point x="207.89523809523808" y="-70.63809523809523" type="line" smooth="yes"/>
      <point x="208.89523809523808" y="-27.904761904761905"/>
      <point x="207.1142857142857" y="14.733333333333334"/>
      <point x="203.1142857142857" y="55.2952380952381" type="curve"/>
      <point x="207.89523809523808" y="67.29523809523809" type="line"/>
      <point x="207.89523809523808" y="381.83809523809526" type="line"/>
      <point x="195.03809523809525" y="398.44761904761907" type="line"/>
    </contour>
  </outline>
</glyph>
<glyph name="q" format="2">
  <advance width="591.1809523809524"/>
  <unicode hex="0071"/>
  <outline>
    <contour>
      <point x="283.8095238095238" y="506.6857142857143" type="curve" smooth="yes"/>
      <point x="85.06666666666666" y="506.6857142857143"/>
      <point x="40.40952380952381" y="403.65714285714284"/>
      <point x="40.40952380952381" y="244.17142857142858" type="curve" smooth="yes"/>
      <point x="40.40952380952381" y="71.41904761904762"/>
      <point x="94.28571428571429" y="-12.60952380952381"/>
      <point x="216.82857142857142" y="-12.60952380952381" type="curve" smooth="yes"/>
      <point x="296.12380952380954" y="-12.60952380952381"/>
      <point x="368.51428571428573" y="35.27619047619048"/>
      <point x="414.9714285714286" y="85.32380952380953" type="curve"/>
      <point x="401.1904761904762" y="157.10476190476192" type="line"/>
      <point x="355.9047619047619" y="130.42857142857142"/>
      <point x="322.54285714285714" y="109.8952380952381"/>
      <point x="273.74285714285713" y="109.8952380952381" type="curve" smooth="yes"/>
      <point x="207.23809523809524" y="109.8952380952381"/>
      <point x="192.40952380952382" y="146.83809523809524"/>
      <point x="192.40952380952382" y="239.68571428571428" type="curve" smooth="yes"/>
      <point x="192.40952380952382" y="364.23809523809524"/>
      <point x="215.16190476190476" y="393.7714285714286"/>
      <point x="284.15238095238095" y="396.7714285714286" type="curve" smooth="yes"/>
      <point x="320.6857142857143" y="398.16190476190474"/>
      <point x="378.6380952380952" y="391.7714285714286"/>
      <point x="414.0952380952381" y="378.7238095238095" type="curve"/>
      <point x="532.1142857142858" y="468.34285714285716" type="line"/>
      <point x="471.06666666666666" y="494.6857142857143"/>
      <point x="350.7142857142857" y="506.6857142857143"/>
    </contour>
    <contour>
      <point x="384.8952380952381" y="475.2952380952381" type="line"/>
      <point x="384.8952380952381" y="94.41904761904762" type="line"/>
      <point x="399.8" y="81.2" type="line"/>
      <point x="387.84761904761905" y="41.857142857142854"/>
      <point x="383.8952380952381" y="-0.780952380952381"/>
      <point x="384.2857142857143" y="-45.733333333333334" type="curve" smooth="yes"/>
      <point x="384.8952380952381" y="-190.36190476190475" type="line"/>
      <point x="532.1142857142858" y="-190.36190476190475" type="line"/>
      <point x="532.1142857142858" y="468.34285714285716" type="line"/>
    </contour>
  </outline>
</glyph>
<glyph name="r" format="2">
  <advance width="424.57142857142856"/>
  <unicode hex="0072"/>
  <anchor x="134.8095238095238" y="-12.0" name="bottom"/>
  <anchor x="224.2952380952381" y="554.5619047619048" name="top"/>
  <outline>
    <contour>
      <point x="175.9142857142857" y="493.2952380952381" type="line"/>
      <point x="60.67619047619048" y="493.2952380952381" type="line"/>
      <point x="60.67619047619048" y="0.0" type="line"/>
      <point x="208.5047619047619" y="0.0" type="line"/>
      <point x="208.5047619047619" y="382.34285714285716" type="line"/>
      <point x="193.9904761904762" y="396.1714285714286" type="line"/>
    </contour>
    <contour>
      <point x="414.64761904761906" y="506.6857142857143" type="line"/>
      <point x="389.3047619047619" y="506.6857142857143" type="line"/>
      <point x="322.6952380952381" y="506.6857142857143"/>
      <point x="249.86666666666667" y="474.247619047619"/>
      <point x="181.8190476190476" y="414.2952380952381" type="curve"/>
      <point x="192.6" y="331.16190476190474" type="line"/>
      <point x="268.8666666666667" y="356.57142857142856"/>
      <point x="314.35238095238094" y="370.15238095238095"/>
      <point x="360.1047619047619" y="370.15238095238095" type="curve" smooth="yes"/>
      <point x="400.3047619047619" y="370.15238095238095" type="line"/>
    </contour>
  </outline>
</glyph>
<glyph name="s" format="2">
  <advance width="527.4"/>
  <unicode hex="0073"/>
  <anchor x="254.46666666666667" y="-12.952380952380953" name="bottom"/>
  <anchor x="268.2" y="550.6571428571428" name="top"/>
  <outline>
    <contour>
      <point x="246.85714285714286" y="506.6857142857143" type="curve" smooth="yes"/>
      <point x="93.4095238095238" y="507.2952380952381"/>
      <point x="37.40952380952381" y="468.752380952381"/>
      <point x="37.40952380952381" y="366.1714285714286" type="curve" smooth="yes"/>
      <point x="37.40952380952381" y="287.56190476190477"/>
      <point x="63.285714285714285" y="242.7047619047619"/>
      <point x="156.82857142857142" y="216.1904761904762" type="curve" smooth="yes"/>
      <point x="280.23809523809524" y="182.53333333333333" type="line" smooth="yes"/>
      <point x="328.5809523809524" y="168.75238095238095"/>
      <point x="350.1142857142857" y="166.92380952380952"/>
      <point x="350.1142857142857" y="137.24761904761905" type="curve" smooth="yes"/>
      <point x="350.1142857142857" y="105.18095238095238"/>
      <point x="326.752380952381" y="99.6952380952381"/>
      <point x="225.65714285714284" y="99.6952380952381" type="curve" smooth="yes"/>
      <point x="160.14285714285714" y="99.6952380952381"/>
      <point x="90.72380952380952" y="100.3047619047619"/>
      <point x="54.971428571428575" y="102.13333333333333" type="curve"/>
      <point x="45.628571428571426" y="6.342857142857143" type="line"/>
      <point x="141.0" y="-9.60952380952381"/>
      <point x="229.59047619047618" y="-11.0"/>
      <point x="267.2285714285714" y="-11.0" type="curve" smooth="yes"/>
      <point x="425.9904761904762" y="-11.0"/>
      <point x="492.7714285714286" y="17.857142857142858"/>
      <point x="492.7714285714286" y="139.98095238095237" type="curve" smooth="yes"/>
      <point x="492.7714285714286" y="226.37142857142857"/>
      <point x="454.64761904761906" y="260.4952380952381"/>
      <point x="371.1333333333333" y="283.6666666666667" type="curve" smooth="yes"/>
      <point x="244.55238095238096" y="317.54285714285714" type="line" smooth="yes"/>
      <point x="197.77142857142857" y="330.54285714285714"/>
      <point x="180.06666666666666" y="331.76190476190476"/>
      <point x="180.06666666666666" y="362.26666666666665" type="curve" smooth="yes"/>
      <point x="180.06666666666666" y="394.7714285714286"/>
      <point x="197.8190476190476" y="394.9904761904762"/>
      <point x="275.18095238095236" y="394.9904761904762" type="curve" smooth="yes"/>
      <point x="336.79047619047617" y="394.9904761904762"/>
      <point x="401.5238095238095" y="393.7714285714286"/>
      <point x="465.4761904761905" y="392.55238095238093" type="curve"/>
      <point x="475.42857142857144" y="487.73333333333335" type="line"/>
      <point x="414.25714285714287" y="498.9047619047619"/>
      <point x="317.7142857142857" y="506.0761904761905"/>
    </contour>
  </outline>
</glyph>
<glyph name="t" format="2">
  <advance width="411.18095238095236"/>
  <unicode hex="0074"/>
  <anchor x="257.6857142857143" y="-10.780952380952382" name="bottom"/>
  <anchor x="181.10476190476192" y="648.7333333333333" name="top"/>
  <outline>
    <contour>
      <point x="253.1904761904762" y="631.0" type="line"/>
      <point x="105.58095238095238" y="631.0" type="line"/>
      <point x="105.97142857142858" y="130.26666666666668" type="line" smooth="yes"/>
      <point x="105.97142857142858" y="39.82857142857143"/>
      <point x="157.6095238095238" y="-11.561904761904762"/>
      <point x="247.2952380952381" y="-11.561904761904762" type="curve" smooth="yes"/>
      <point x="282.1047619047619" y="-11.561904761904762"/>
      <point x="349.3047619047619" y="-5.390476190476191"/>
      <point x="386.20952380952383" y="7.733333333333333" type="curve"/>
      <point x="369.9142857142857" y="110.64761904761905" type="line"/>
      <point x="307.16190476190474" y="110.64761904761905" type="line" smooth="yes"/>
      <point x="267.0190476190476" y="110.64761904761905"/>
      <point x="253.1904761904762" y="123.6952380952381"/>
      <point x="253.1904761904762" y="161.27619047619046" type="curve" smooth="yes"/>
    </contour>
    <contour>
      <point x="390.03809523809525" y="493.2952380952381" type="line"/>
      <point x="115.14285714285714" y="493.2952380952381" type="line"/>
      <point x="18.53333333333333" y="488.2952380952381" type="line"/>
      <point x="18.53333333333333" y="393.5047619047619" type="line"/>
      <point x="390.03809523809525" y="393.5047619047619" type="line"/>
    </contour>
  </outline>
</glyph>
<glyph name="u" format="2">
  <advance width="590.0095238095238"/>
  <unicode hex="0075"/>
  <anchor x="288.1047619047619" y="-11.39047619047619" name="bottom"/>
  <anchor x="531.1619047619048" y="0.0" name="ogonek"/>
  <anchor x="294.4190476190476" y="557.0" name="top"/>
  <outline>
    <contour>
      <point x="205.5047619047619" y="493.2952380952381" type="line"/>
      <point x="57.67619047619048" y="493.2952380952381" type="line"/>
      <point x="57.67619047619048" y="123.56190476190476" type="line" smooth="yes"/>
      <point x="57.67619047619048" y="33.39047619047619"/>
      <point x="105.23809523809524" y="-13.39047619047619"/>
      <point x="197.14285714285714" y="-13.39047619047619" type="curve" smooth="yes"/>
      <point x="271.53333333333336" y="-13.39047619047619"/>
      <point x="338.5809523809524" y="16.0"/>
      <point x="410.84761904761905" y="75.95238095238095" type="curve"/>
      <point x="397.0190476190476" y="160.05714285714285" type="line"/>
      <point x="335.7809523809524" y="127.2095238095238"/>
      <point x="298.37142857142857" y="111.40952380952382"/>
      <point x="258.96190476190475" y="111.40952380952382" type="curve" smooth="yes"/>
      <point x="218.94285714285715" y="111.40952380952382"/>
      <point x="204.89523809523808" y="125.8952380952381"/>
      <point x="205.5047619047619" y="169.22857142857143" type="curve" smooth="yes"/>
    </contour>
    <contour>
      <point x="529.3333333333334" y="493.2952380952381" type="line"/>
      <point x="381.7238095238095" y="493.2952380952381" type="line"/>
      <point x="381.7238095238095" y="110.34285714285714" type="line"/>
      <point x="395.62857142857143" y="97.12380952380953" type="line"/>
      <point x="412.48571428571427" y="0.0" type="line"/>
      <point x="529.3333333333334" y="0.0" type="line"/>
    </contour>
  </outline>
</glyph>
<glyph name="v" format="2">
  <advance width="562.6"/>
  <unicode hex="0076"/>
  <outline>
    <contour>
      <point x="555.2380952380952" y="493.2952380952381" type="line"/>
      <point x="399.06666666666666" y="493.2952380952381" type="line"/>
      <point x="309.8095238095238" y="183.77142857142857" type="line" smooth="yes"/>
      <point x="302.37142857142857" y="155.2095238095238"/>
      <point x="294.54285714285714" y="125.03809523809524"/>
      <point x="287.4952380952381" y="96.47619047619048" type="curve"/>
      <point x="274.4952380952381" y="96.47619047619048" type="line"/>
      <point x="268.0571428571429" y="125.03809523809524"/>
      <point x="261.0095238095238" y="155.2095238095238"/>
      <point x="253.1809523809524" y="183.77142857142857" type="curve" smooth="yes"/>
      <point x="163.53333333333333" y="493.2952380952381" type="line"/>
      <point x="7.3619047619047615" y="493.2952380952381" type="line"/>
      <point x="169.38095238095238" y="34.98095238095238" type="line" smooth="yes"/>
      <point x="175.94285714285715" y="13.514285714285714"/>
      <point x="194.23809523809524" y="0.0"/>
      <point x="217.0952380952381" y="0.0" type="curve" smooth="yes"/>
      <point x="344.8952380952381" y="0.0" type="line" smooth="yes"/>
      <point x="368.3619047619048" y="0.0"/>
      <point x="386.04761904761904" y="13.514285714285714"/>
      <point x="393.2190476190476" y="34.98095238095238" type="curve" smooth="yes"/>
    </contour>
  </outline>
</glyph>
<glyph name="w" format="2">
  <advance width="846.7428571428571"/>
  <unicode hex="0077"/>
  <anchor x="424.76190476190476" y="550.6571428571428" name="top"/>
  <outline>
    <contour>
      <point x="830.8190476190476" y="493.2952380952381" type="line"/>
      <point x="681.552380952381" y="493.2952380952381" type="line"/>
      <point x="614.2476190476191" y="172.67619047619047" type="line" smooth="yes"/>
      <point x="608.4190476190477" y="145.1142857142857"/>
      <point x="605.8095238095239" y="119.16190476190476"/>
      <point x="602.2" y="91.6" type="curve"/>
      <point x="589.5904761904762" y="91.6" type="line"/>
      <point x="585.7619047619048" y="119.16190476190476"/>
      <point x="580.152380952381" y="145.72380952380954"/>
      <point x="575.9333333333333" y="172.67619047619047" type="curve" smooth="yes"/>
      <point x="526.9904761904762" y="448.3619047619048" type="line" smooth="yes"/>
      <point x="522.9904761904762" y="475.6095238095238"/>
      <point x="502.1333333333333" y="493.2952380952381"/>
      <point x="475.4952380952381" y="493.2952380952381" type="curve" smooth="yes"/>
      <point x="371.46666666666664" y="493.2952380952381" type="line" smooth="yes"/>
      <point x="344.2190476190476" y="493.2952380952381"/>
      <point x="323.9714285714286" y="475.6095238095238"/>
      <point x="319.9714285714286" y="449.3619047619048" type="curve" smooth="yes"/>
      <point x="270.0285714285714" y="172.67619047619047" type="line" smooth="yes"/>
      <point x="265.8095238095238" y="145.72380952380954"/>
      <point x="260.5904761904762" y="118.55238095238096"/>
      <point x="256.76190476190476" y="91.6" type="curve"/>
      <point x="244.15238095238095" y="91.6" type="line"/>
      <point x="241.54285714285714" y="118.55238095238096"/>
      <point x="237.32380952380953" y="145.72380952380954"/>
      <point x="232.4952380952381" y="172.67619047619047" type="curve" smooth="yes"/>
      <point x="164.8" y="493.2952380952381" type="line"/>
      <point x="15.923809523809524" y="493.2952380952381" type="line"/>
      <point x="137.42857142857142" y="38.98095238095238" type="line" smooth="yes"/>
      <point x="142.6" y="14.904761904761905"/>
      <point x="162.89523809523808" y="0.0"/>
      <point x="188.36190476190475" y="0.0" type="curve" smooth="yes"/>
      <point x="302.2761904761905" y="0.0" type="line" smooth="yes"/>
      <point x="329.5238095238095" y="0.0"/>
      <point x="351.9904761904762" y="17.685714285714287"/>
      <point x="355.9904761904762" y="44.93333333333334" type="curve" smooth="yes"/>
      <point x="405.1047619047619" y="324.35238095238094" type="line" smooth="yes"/>
      <point x="409.32380952380953" y="351.9142857142857"/>
      <point x="413.15238095238095" y="378.6952380952381"/>
      <point x="416.9809523809524" y="406.8666666666667" type="curve"/>
      <point x="429.37142857142857" y="406.8666666666667" type="line"/>
      <point x="433.8095238095238" y="378.6952380952381"/>
      <point x="436.0285714285714" y="351.9142857142857"/>
      <point x="440.247619047619" y="324.35238095238094" type="curve" smooth="yes"/>
      <point x="489.9714285714286" y="44.93333333333334" type="line" smooth="yes"/>
      <point x="493.9714285714286" y="17.685714285714287"/>
      <point x="516.4380952380952" y="0.0"/>
      <point x="543.0761904761905" y="0.0" type="curve" smooth="yes"/>
      <point x="658.9904761904762" y="0.0" type="line" smooth="yes"/>
      <point x="684.4571428571428" y="0.0"/>
      <point x="704.1428571428571" y="14.904761904761905"/>
      <point x="709.9238095238095" y="38.98095238095238" type="curve" smooth="yes"/>
    </contour>
  </outline>
</glyph>
<glyph name="x" format="2">
  <advance width="563.9428571428572"/>
  <unicode hex="0078"/>
  <outline>
    <contour>
      <point x="542.5333333333333" y="493.2952380952381" type="line"/>
      <point x="391.6095238095238" y="493.2952380952381" type="line"/>
      <point x="258.85714285714283" y="253.17142857142858" type="line"/>
      <point x="402.2190476190476" y="0.0" type="line"/>
      <point x="554.1428571428571" y="0.0" type="line"/>
      <point x="402.43809523809523" y="253.17142857142858" type="line"/>
    </contour>
    <contour>
      <point x="172.33333333333334" y="493.2952380952381" type="line"/>
      <point x="21.40952380952381" y="493.2952380952381" type="line"/>
      <point x="161.5047619047619" y="253.17142857142858" type="line"/>
      <point x="9.8" y="0.0" type="line"/>
      <point x="161.72380952380954" y="0.0" type="line"/>
      <point x="305.0857142857143" y="253.17142857142858" type="line"/>
    </contour>
    <contour>
      <point x="360.67619047619047" y="303.2" type="line"/>
      <point x="204.65714285714284" y="303.2" type="line"/>
      <point x="204.65714285714284" y="206.53333333333333" type="line"/>
      <point x="360.67619047619047" y="206.53333333333333" type="line"/>
    </contour>
  </outline>
</glyph>
<glyph name="y" format="2">
  <advance width="562.3809523809524"/>
  <unicode hex="0079"/>
  <anchor x="477.62857142857143" y="-11.39047619047619" name="bottom"/>
  <anchor x="284.6666666666667" y="554.5619047619048" name="top"/>
  <outline>
    <contour>
      <point x="554.0190476190476" y="493.2952380952381" type="line"/>
      <point x="396.23809523809524" y="493.2952380952381" type="line"/>
      <point x="304.93333333333334" y="174.01904761904763" type="line" smooth="yes"/>
      <point x="296.7142857142857" y="142.89523809523808"/>
      <point x="285.1047619047619" y="95.3047619047619"/>
      <point x="272.54285714285714" y="65.96190476190476" type="curve" smooth="yes"/>
      <point x="242.24761904761905" y="-3.6761904761904756" type="line" smooth="yes"/>
      <point x="217.46666666666667" y="-60.285714285714285"/>
      <point x="175.5142857142857" y="-93.2095238095238"/>
      <point x="94.95238095238095" y="-113.86666666666667" type="curve"/>
      <point x="106.51428571428572" y="-201.26666666666668" type="line"/>
      <point x="269.0190476190476" y="-219.66666666666666"/>
      <point x="346.3904761904762" y="-103.31428571428572"/>
      <point x="379.1714285714286" y="-6.723809523809523" type="curve" smooth="yes"/>
    </contour>
    <contour>
      <point x="164.53333333333333" y="493.2952380952381" type="line"/>
      <point x="7.3619047619047615" y="493.2952380952381" type="line"/>
      <point x="168.16190476190476" y="35.59047619047619" type="line" smooth="yes"/>
      <point x="174.72380952380954" y="13.514285714285714"/>
      <point x="193.01904761904763" y="0.0"/>
      <point x="216.4857142857143" y="0.0" type="curve" smooth="yes"/>
      <point x="252.1238095238095" y="0.0" type="line"/>
      <point x="298.83809523809526" y="100.13333333333333" type="line"/>
      <point x="272.4952380952381" y="100.13333333333333" type="line"/>
      <point x="268.4952380952381" y="125.03809523809524"/>
      <point x="263.2761904761905" y="149.72380952380954"/>
      <point x="257.0571428571429" y="174.01904761904763" type="curve" smooth="yes"/>
    </contour>
  </outline>
</glyph>
<glyph name="z" format="2">
  <advance width="524.5428571428571"/>
  <unicode hex="007A"/>
  <anchor x="268.9809523809524" y="-11.39047619047619" name="bottom"/>
  <anchor x="267.37142857142857" y="554.5619047619048" name="top"/>
  <outline>
    <contour>
      <point x="312.5904761904762" y="388.55238095238093" type="line"/>
      <point x="39.971428571428575" y="105.74285714285715" type="line"/>
      <point x="207.78095238095239" y="104.74285714285715" type="line"/>
      <point x="479.79047619047617" y="387.55238095238093" type="line"/>
    </contour>
    <contour>
      <point x="484.57142857142856" y="105.74285714285715" type="line"/>
      <point x="39.971428571428575" y="105.74285714285715" type="line"/>
      <point x="39.971428571428575" y="0.0" type="line"/>
      <point x="484.57142857142856" y="0.0" type="line"/>
    </contour>
    <contour>
      <point x="479.79047619047617" y="493.2952380952381" type="line"/>
      <point x="44.75238095238095" y="493.2952380952381" type="line"/>
      <point x="44.75238095238095" y="387.55238095238093" type="line"/>
      <point x="479.79047619047617" y="387.55238095238093" type="line"/>
    </contour>
  </outline>
</glyph>
<glyph name="braceleft" format="2">
  <advance width="339.4952380952381"/>
  <unicode hex="007B"/>
  <outline>
    <contour>
      <point x="303.18095238095236" y="768.0" type="line"/>
      <point x="148.8761904761905" y="787.6380952380953"/>
      <point x="85.8952380952381" y="726.8285714285714"/>
      <point x="85.8952380952381" y="628.7047619047619" type="curve" smooth="yes"/>
      <point x="85.8952380952381" y="446.6380952380952" type="line" smooth="yes"/>
      <point x="85.8952380952381" y="389.76190476190476"/>
      <point x="76.67619047619047" y="389.76190476190476"/>
      <point x="34.19047619047619" y="375.93333333333334" type="curve"/>
      <point x="34.19047619047619" y="280.06666666666666" type="line"/>
      <point x="74.06666666666666" y="264.23809523809524"/>
      <point x="89.8952380952381" y="260.62857142857143"/>
      <point x="89.8952380952381" y="213.36190476190475" type="curve" smooth="yes"/>
      <point x="89.8952380952381" y="-25.704761904761906" type="line" smooth="yes"/>
      <point x="89.8952380952381" y="-123.82857142857142"/>
      <point x="152.8761904761905" y="-184.63809523809525"/>
      <point x="307.18095238095236" y="-165.0" type="curve"/>
      <point x="307.18095238095236" y="-74.18095238095238" type="line"/>
      <point x="248.2095238095238" y="-74.18095238095238"/>
      <point x="230.77142857142857" y="-64.16190476190476"/>
      <point x="230.77142857142857" y="-14.19047619047619" type="curve" smooth="yes"/>
      <point x="230.77142857142857" y="196.40952380952382" type="line" smooth="yes"/>
      <point x="229.77142857142857" y="266.4095238095238"/>
      <point x="207.8190476190476" y="304.2190476190476"/>
      <point x="124.18095238095238" y="328.0" type="curve"/>
      <point x="206.6" y="341.6095238095238"/>
      <point x="228.16190476190476" y="379.8095238095238"/>
      <point x="226.77142857142857" y="463.5904761904762" type="curve" smooth="yes"/>
      <point x="226.77142857142857" y="615.4095238095238" type="line" smooth="yes"/>
      <point x="226.77142857142857" y="665.3809523809524"/>
      <point x="244.2095238095238" y="677.1809523809524"/>
      <point x="303.18095238095236" y="677.1809523809524" type="curve"/>
    </contour>
  </outline>
</glyph>
<glyph name="bar" format="2">
  <advance width="260.76190476190476"/>
  <unicode hex="007C"/>
  <outline>
    <contour>
      <point x="182.35238095238094" y="781.0" type="line"/>
      <point x="78.4095238095238" y="781.0" type="line"/>
      <point x="78.4095238095238" y="-169.0" type="line"/>
      <point x="182.35238095238094" y="-169.0" type="line"/>
    </contour>
  </outline>
</glyph>
<glyph name="braceright" format="2">
  <advance width="340.1047619047619"/>
  <unicode hex="007D"/>
  <outline>
    <contour>
      <point x="36.923809523809524" y="768.0" type="curve"/>
      <point x="36.923809523809524" y="677.1809523809524" type="line"/>
      <point x="95.8952380952381" y="677.1809523809524"/>
      <point x="113.33333333333333" y="665.3809523809524"/>
      <point x="113.33333333333333" y="615.4095238095238" type="curve" smooth="yes"/>
      <point x="113.33333333333333" y="463.5904761904762" type="line" smooth="yes"/>
      <point x="111.94285714285715" y="379.8095238095238"/>
      <point x="133.5047619047619" y="341.6095238095238"/>
      <point x="215.92380952380952" y="328.0" type="curve"/>
      <point x="132.28571428571428" y="304.2190476190476"/>
      <point x="110.33333333333333" y="266.4095238095238"/>
      <point x="109.33333333333333" y="196.40952380952382" type="curve" smooth="yes"/>
      <point x="109.33333333333333" y="-14.19047619047619" type="line" smooth="yes"/>
      <point x="109.33333333333333" y="-64.16190476190476"/>
      <point x="91.8952380952381" y="-74.18095238095238"/>
      <point x="32.923809523809524" y="-74.18095238095238" type="curve"/>
      <point x="32.923809523809524" y="-165.0" type="line"/>
      <point x="187.22857142857143" y="-184.63809523809525"/>
      <point x="250.2095238095238" y="-123.82857142857142"/>
      <point x="250.2095238095238" y="-25.704761904761906" type="curve" smooth="yes"/>
      <point x="250.2095238095238" y="213.36190476190475" type="line" smooth="yes"/>
      <point x="250.2095238095238" y="260.62857142857143"/>
      <point x="266.03809523809525" y="264.23809523809524"/>
      <point x="305.9142857142857" y="280.06666666666666" type="curve"/>
      <point x="305.9142857142857" y="375.93333333333334" type="line"/>
      <point x="263.42857142857144" y="389.76190476190476"/>
      <point x="254.2095238095238" y="389.76190476190476"/>
      <point x="254.2095238095238" y="446.6380952380952" type="curve" smooth="yes"/>
      <point x="254.2095238095238" y="628.7047619047619" type="line" smooth="yes"/>
      <point x="254.2095238095238" y="726.8285714285714"/>
      <point x="191.22857142857143" y="787.6380952380953"/>
    </contour>
  </outline>
</glyph>
<glyph name="asciitilde" format="2">
  <advance width="513.4095238095238"/>
  <unicode hex="007E"/>
  <outline>
    <contour>
      <point x="142.8" y="362.5904761904762" type="curve" smooth="yes"/>
      <point x="89.45714285714286" y="364.2"/>
      <point x="46.55238095238095" y="319.2952380952381"/>
      <point x="62.06666666666666" y="216.75238095238095" type="curve"/>
      <point x="128.95238095238096" y="216.75238095238095" type="line"/>
      <point x="128.95238095238096" y="253.62857142857143"/>
      <point x="131.82857142857142" y="267.67619047619047"/>
      <point x="164.26666666666668" y="263.2857142857143" type="curve" smooth="yes"/>
      <point x="208.84761904761905" y="257.2857142857143"/>
      <point x="309.2" y="215.1904761904762"/>
      <point x="371.2190476190476" y="212.97142857142856" type="curve" smooth="yes"/>
      <point x="428.34285714285716" y="210.36190476190475"/>
      <point x="467.46666666666664" y="258.65714285714284"/>
      <point x="451.95238095238096" y="357.5904761904762" type="curve"/>
      <point x="385.06666666666666" y="357.5904761904762" type="line"/>
      <point x="385.06666666666666" y="321.32380952380953"/>
      <point x="381.1904761904762" y="307.4952380952381"/>
      <point x="348.752380952381" y="312.2761904761905" type="curve" smooth="yes"/>
      <point x="305.9047619047619" y="317.8857142857143"/>
      <point x="200.16190476190476" y="360.37142857142857"/>
    </contour>
  </outline>
</glyph>
<glyph name="exclamdown" format="2">
  <advance width="283.35238095238094"/>
  <unicode hex="00A1"/>
  <outline>
    <contour>
      <point x="199.6" y="287.51428571428573" type="line"/>
      <point x="83.75238095238095" y="287.51428571428573" type="line"/>
      <point x="68.45714285714286" y="81.55238095238096" type="line"/>
      <point x="68.45714285714286" y="-185.36190476190475" type="line"/>
      <point x="214.89523809523808" y="-185.36190476190475" type="line"/>
      <point x="214.89523809523808" y="81.55238095238096" type="line"/>
    </contour>
    <contour>
      <point x="159.27619047619046" y="506.5904761904762" type="curve" smooth="yes"/>
      <point x="125.07619047619048" y="506.5904761904762" type="line" smooth="yes"/>
      <point x="85.92380952380952" y="506.5904761904762"/>
      <point x="73.19047619047619" y="493.85714285714283"/>
      <point x="73.19047619047619" y="454.7047619047619" type="curve" smooth="yes"/>
      <point x="73.19047619047619" y="406.3904761904762" type="line" smooth="yes"/>
      <point x="73.19047619047619" y="367.23809523809524"/>
      <point x="85.92380952380952" y="355.1142857142857"/>
      <point x="125.07619047619048" y="355.1142857142857" type="curve" smooth="yes"/>
      <point x="159.27619047619046" y="355.1142857142857" type="line" smooth="yes"/>
      <point x="198.42857142857142" y="355.1142857142857"/>
      <point x="211.16190476190476" y="367.23809523809524"/>
      <point x="211.16190476190476" y="406.3904761904762" type="curve" smooth="yes"/>
      <point x="211.16190476190476" y="454.7047619047619" type="line" smooth="yes"/>
      <point x="211.16190476190476" y="493.85714285714283"/>
      <point x="198.42857142857142" y="506.5904761904762"/>
    </contour>
  </outline>
</glyph>
<glyph name="cent" format="2">
  <advance width="521.495238095238"/>
  <unicode hex="00A2"/>
  <outline>
    <contour>
      <point x="288.6857142857143" y="607.5619047619048" type="curve" smooth="yes"/>
      <point x="106.14285714285714" y="607.5619047619048"/>
      <point x="39.01904761904762" y="538.1714285714286"/>
      <point x="39.01904761904762" y="348.2190476190476" type="curve" smooth="yes"/>
      <point x="39.01904761904762" y="157.65714285714284"/>
      <point x="105.14285714285714" y="88.87619047619047"/>
      <point x="287.2952380952381" y="88.87619047619047" type="curve" smooth="yes"/>
      <point x="354.32380952380953" y="88.87619047619047"/>
      <point x="425.35238095238094" y="98.65714285714286"/>
      <point x="479.25714285714287" y="122.34285714285714" type="curve"/>
      <point x="465.74285714285713" y="213.47619047619048" type="line"/>
      <point x="409.0571428571429" y="205.86666666666667"/>
      <point x="345.2761904761905" y="204.64761904761906"/>
      <point x="313.7142857142857" y="204.64761904761906" type="curve" smooth="yes"/>
      <point x="215.8190476190476" y="204.64761904761906"/>
      <point x="185.06666666666666" y="234.61904761904762"/>
      <point x="185.06666666666666" y="348.2190476190476" type="curve" smooth="yes"/>
      <point x="185.06666666666666" y="460.81904761904764"/>
      <point x="215.8190476190476" y="490.79047619047617"/>
      <point x="313.7142857142857" y="490.79047619047617" type="curve" smooth="yes"/>
      <point x="352.0571428571429" y="490.79047619047617"/>
      <point x="401.8857142857143" y="489.57142857142856"/>
      <point x="455.5238095238095" y="486.5238095238095" type="curve"/>
      <point x="471.64761904761906" y="577.2666666666667" type="line"/>
      <point x="417.35238095238094" y="600.7809523809524"/>
      <point x="340.93333333333334" y="607.5619047619048"/>
    </contour>
    <contour>
      <point x="327.5238095238095" y="154.27619047619046" type="line"/>
      <point x="217.01904761904763" y="154.27619047619046" type="line"/>
      <point x="200.28571428571428" y="0.0" type="line"/>
      <point x="310.79047619047617" y="0.0" type="line"/>
    </contour>
    <contour>
      <point x="386.9428571428571" y="690.0" type="line"/>
      <point x="276.04761904761904" y="690.0" type="line"/>
      <point x="257.53333333333336" y="522.3047619047619" type="line"/>
      <point x="368.64761904761906" y="522.3047619047619" type="line"/>
    </contour>
  </outline>
</glyph>
<glyph name="currency" format="2">
  <advance width="584.7523809523809"/>
  <unicode hex="00A4"/>
  <outline>
    <contour>
      <point x="291.87619047619046" y="470.6" type="curve" smooth="yes"/>
      <point x="354.5047619047619" y="470.6"/>
      <point x="408.0857142857143" y="418.0190476190476"/>
      <point x="408.0857142857143" y="352.3904761904762" type="curve" smooth="yes"/>
      <point x="408.0857142857143" y="287.15238095238095"/>
      <point x="354.5047619047619" y="233.57142857142858"/>
      <point x="291.87619047619046" y="234.1809523809524" type="curve" smooth="yes"/>
      <point x="228.02857142857144" y="233.57142857142858"/>
      <point x="174.44761904761904" y="287.15238095238095"/>
      <point x="174.44761904761904" y="352.3904761904762" type="curve" smooth="yes"/>
      <point x="174.44761904761904" y="418.0190476190476"/>
      <point x="228.02857142857144" y="470.6"/>
    </contour>
    <contour>
      <point x="114.07619047619048" y="591.8095238095239" type="line"/>
      <point x="52.457142857142856" y="530.5809523809523" type="line"/>
      <point x="138.01904761904763" y="445.0190476190476" type="line"/>
      <point x="199.24761904761905" y="505.6380952380952" type="line"/>
    </contour>
    <contour>
      <point x="472.84761904761905" y="591.8095238095239" type="line"/>
      <point x="389.67619047619047" y="508.6380952380952" type="line"/>
      <point x="450.2952380952381" y="447.4095238095238" type="line"/>
      <point x="534.0761904761905" y="530.5809523809523" type="line"/>
    </contour>
    <contour>
      <point x="140.62857142857143" y="269.32380952380953" type="line"/>
      <point x="48.285714285714285" y="177.37142857142857" type="line"/>
      <point x="114.07619047619048" y="111.58095238095238" type="line"/>
      <point x="206.02857142857144" y="203.53333333333333" type="line"/>
    </contour>
    <contour>
      <point x="443.12380952380954" y="261.37142857142857" type="line"/>
      <point x="381.8952380952381" y="200.14285714285714" type="line"/>
      <point x="471.84761904761905" y="110.58095238095238" type="line"/>
      <point x="534.0761904761905" y="171.8095238095238" type="line"/>
    </contour>
    <contour>
      <point x="291.87619047619046" y="554.2952380952381" type="curve" smooth="yes"/>
      <point x="179.92380952380952" y="554.2952380952381"/>
      <point x="88.97142857142858" y="463.34285714285716"/>
      <point x="88.97142857142858" y="351.3904761904762" type="curve" smooth="yes"/>
      <point x="88.97142857142858" y="240.04761904761904"/>
      <point x="179.92380952380952" y="149.0952380952381"/>
      <point x="291.87619047619046" y="149.0952380952381" type="curve" smooth="yes"/>
      <point x="403.2190476190476" y="149.0952380952381"/>
      <point x="494.1714285714286" y="240.04761904761904"/>
      <point x="494.1714285714286" y="351.3904761904762" type="curve" smooth="yes"/>
      <point x="494.1714285714286" y="463.34285714285716"/>
      <point x="403.8285714285714" y="554.2952380952381"/>
    </contour>
  </outline>
</glyph>
<glyph name="yen" format="2">
  <advance width="657.5809523809523"/>
  <unicode hex="00A5"/>
  <outline>
    <contour>
      <point x="632.2666666666667" y="690.0" type="line"/>
      <point x="475.0952380952381" y="690.0" type="line"/>
      <point x="361.6666666666667" y="452.9142857142857" type="line" smooth="yes"/>
      <point x="349.6666666666667" y="426.96190476190475"/>
      <point x="342.6190476190476" y="393.2285714285714"/>
      <point x="334.57142857142856" y="365.2761904761905" type="curve"/>
      <point x="324.6190476190476" y="365.2761904761905" type="line"/>
      <point x="317.18095238095236" y="393.2285714285714"/>
      <point x="310.5238095238095" y="425.57142857142856"/>
      <point x="297.5238095238095" y="452.5238095238095" type="curve" smooth="yes"/>
      <point x="182.4857142857143" y="690.0" type="line"/>
      <point x="25.314285714285713" y="690.0" type="line"/>
      <point x="221.45714285714286" y="307.3142857142857" type="line"/>
      <point x="440.34285714285716" y="312.48571428571427" type="line"/>
    </contour>
    <contour>
      <point x="406.0952380952381" y="183.36190476190475" type="line"/>
      <point x="253.7047619047619" y="183.36190476190475" type="line"/>
      <point x="253.0952380952381" y="0.0" type="line"/>
      <point x="405.48571428571427" y="0.0" type="line"/>
    </contour>
    <contour>
      <point x="567.1142857142858" y="236.17142857142858" type="line"/>
      <point x="93.51428571428572" y="236.17142857142858" type="line"/>
      <point x="94.9047619047619" y="142.62857142857143" type="line"/>
      <point x="567.1142857142858" y="142.62857142857143" type="line"/>
    </contour>
    <contour>
      <point x="567.1142857142858" y="360.93333333333334" type="line"/>
      <point x="93.51428571428572" y="360.93333333333334" type="line"/>
      <point x="94.9047619047619" y="266.7809523809524" type="line"/>
      <point x="567.1142857142858" y="266.7809523809524" type="line"/>
    </contour>
  </outline>
</glyph>
<glyph name="brokenbar" format="2">
  <advance width="262.76190476190476"/>
  <unicode hex="00A6"/>
  <outline>
    <contour>
      <point x="183.35238095238094" y="781.0" type="line"/>
      <point x="79.4095238095238" y="781.0" type="line"/>
      <point x="79.4095238095238" y="381.0" type="line"/>
      <point x="183.35238095238094" y="381.0" type="line"/>
    </contour>
    <contour>
      <point x="183.35238095238094" y="231.0" type="line"/>
      <point x="79.4095238095238" y="231.0" type="line"/>
      <point x="79.4095238095238" y="-169.0" type="line"/>
      <point x="183.35238095238094" y="-169.0" type="line"/>
    </contour>
  </outline>
</glyph>
<glyph name="section" format="2">
  <advance width="552.8095238095239"/>
  <unicode hex="00A7"/>
  <outline>
    <contour>
      <point x="171.13333333333333" y="359.25714285714287" type="curve"/>
      <point x="67.97142857142858" y="359.25714285714287" type="line"/>
      <point x="34.161904761904765" y="243.13333333333333"/>
      <point x="47.161904761904765" y="168.74285714285713"/>
      <point x="157.53333333333333" y="113.4" type="curve" smooth="yes"/>
      <point x="294.4761904761905" y="40.72380952380952" type="line" smooth="yes"/>
      <point x="324.96190476190475" y="24.847619047619048"/>
      <point x="351.0095238095238" y="8.36190476190476"/>
      <point x="347.2285714285714" y="-26.047619047619047" type="curve" smooth="yes"/>
      <point x="345.0571428571429" y="-62.333333333333336"/>
      <point x="309.64761904761906" y="-65.11428571428571"/>
      <point x="240.16190476190476" y="-65.11428571428571" type="curve" smooth="yes"/>
      <point x="162.64761904761906" y="-64.5047619047619"/>
      <point x="125.06666666666666" y="-64.28571428571429"/>
      <point x="67.92380952380952" y="-60.67619047619048" type="curve"/>
      <point x="57.58095238095238" y="-167.32380952380953" type="line"/>
      <point x="130.1904761904762" y="-175.71428571428572"/>
      <point x="231.2952380952381" y="-178.71428571428572"/>
      <point x="283.2190476190476" y="-179.32380952380953" type="curve" smooth="yes"/>
      <point x="424.2285714285714" y="-179.32380952380953"/>
      <point x="505.18095238095236" y="-155.2952380952381"/>
      <point x="505.18095238095236" y="-31.60952380952381" type="curve" smooth="yes"/>
      <point x="505.18095238095236" y="69.1047619047619"/>
      <point x="452.5904761904762" y="102.37142857142857"/>
      <point x="404.0095238095238" y="129.9047619047619" type="curve" smooth="yes"/>
      <point x="246.8190476190476" y="216.8761904761905" type="line" smooth="yes"/>
      <point x="180.86666666666667" y="253.26666666666668"/>
      <point x="167.47619047619048" y="279.9428571428571"/>
    </contour>
    <contour>
      <point x="270.8095238095238" y="703.3904761904762" type="curve" smooth="yes"/>
      <point x="125.53333333333333" y="703.3904761904762"/>
      <point x="48.23809523809524" y="675.7047619047619"/>
      <point x="48.23809523809524" y="555.8952380952381" type="curve" smooth="yes"/>
      <point x="48.23809523809524" y="456.18095238095236"/>
      <point x="100.60952380952381" y="423.5238095238095"/>
      <point x="149.40952380952382" y="395.9904761904762" type="curve" smooth="yes"/>
      <point x="306.6" y="308.4095238095238" type="line" smooth="yes"/>
      <point x="372.3333333333333" y="271.62857142857143"/>
      <point x="385.9428571428571" y="244.1238095238095"/>
      <point x="382.2857142857143" y="165.41904761904763" type="curve"/>
      <point x="485.44761904761907" y="165.41904761904763" type="line"/>
      <point x="519.8666666666667" y="280.93333333333334"/>
      <point x="507.4761904761905" y="355.93333333333334"/>
      <point x="397.1047619047619" y="411.8857142857143" type="curve" smooth="yes"/>
      <point x="260.16190476190474" y="484.1714285714286" type="line" smooth="yes"/>
      <point x="228.45714285714286" y="500.65714285714284"/>
      <point x="203.01904761904763" y="516.9238095238095"/>
      <point x="206.1904761904762" y="551.3333333333334" type="curve" smooth="yes"/>
      <point x="208.97142857142856" y="586.7904761904762"/>
      <point x="244.77142857142857" y="588.7904761904762"/>
      <point x="314.4761904761905" y="588.1809523809524" type="curve" smooth="yes"/>
      <point x="399.4" y="588.1809523809524"/>
      <point x="432.2285714285714" y="588.3523809523809"/>
      <point x="486.1047619047619" y="584.7428571428571" type="curve"/>
      <point x="495.83809523809526" y="691.3904761904762" type="line"/>
      <point x="426.7142857142857" y="698.7809523809524"/>
      <point x="322.95238095238096" y="702.7809523809524"/>
    </contour>
  </outline>
</glyph>
<glyph name="dieresis" format="2">
  <advance width="423.53706666666665"/>
  <unicode hex="00A8"/>
  <anchor x="213.26293333333334" y="554.7052952380952" name="_top"/>
  <outline>
    <contour>
      <point x="327.4952380952381" y="707.8095238095239" type="curve" smooth="yes"/>
      <point x="279.2190476190476" y="707.8095238095239" type="line" smooth="yes"/>
      <point x="256.87619047619046" y="707.8095238095239"/>
      <point x="246.31428571428572" y="696.0285714285715"/>
      <point x="246.31428571428572" y="674.9047619047619" type="curve" smooth="yes"/>
      <point x="246.31428571428572" y="617.3904761904762" type="line" smooth="yes"/>
      <point x="246.31428571428572" y="595.047619047619"/>
      <point x="256.87619047619046" y="584.4857142857143"/>
      <point x="279.2190476190476" y="584.4857142857143" type="curve" smooth="yes"/>
      <point x="327.4952380952381" y="584.4857142857143" type="line" smooth="yes"/>
      <point x="348.6190476190476" y="584.4857142857143"/>
      <point x="360.4" y="595.047619047619"/>
      <point x="360.4" y="617.3904761904762" type="curve" smooth="yes"/>
      <point x="360.4" y="674.9047619047619" type="line" smooth="yes"/>
      <point x="360.4" y="696.0285714285715"/>
      <point x="348.6190476190476" y="707.8095238095239"/>
    </contour>
    <contour>
      <point x="145.8095238095238" y="707.8095238095239" type="curve" smooth="yes"/>
      <point x="96.92380952380952" y="707.8095238095239" type="line" smooth="yes"/>
      <point x="75.19047619047619" y="707.8095238095239"/>
      <point x="64.62857142857143" y="696.0285714285715"/>
      <point x="64.62857142857143" y="674.9047619047619" type="curve" smooth="yes"/>
      <point x="64.62857142857143" y="617.3904761904762" type="line" smooth="yes"/>
      <point x="64.62857142857143" y="595.047619047619"/>
      <point x="75.19047619047619" y="584.4857142857143"/>
      <point x="96.92380952380952" y="584.4857142857143" type="curve" smooth="yes"/>
      <point x="145.8095238095238" y="584.4857142857143" type="line" smooth="yes"/>
      <point x="167.54285714285714" y="584.4857142857143"/>
      <point x="178.10476190476192" y="595.047619047619"/>
      <point x="178.10476190476192" y="617.3904761904762" type="curve" smooth="yes"/>
      <point x="178.10476190476192" y="674.9047619047619" type="line" smooth="yes"/>
      <point x="178.10476190476192" y="696.0285714285715"/>
      <point x="167.54285714285714" y="707.8095238095239"/>
    </contour>
  </outline>
</glyph>
<glyph name="copyright" format="2">
  <advance width="810.0380952380953"/>
  <unicode hex="00A9"/>
  <outline>
    <contour>
      <point x="405.0190476190476" y="703.3904761904762" type="curve" smooth="yes"/>
      <point x="203.45714285714286" y="703.3904761904762"/>
      <point x="43.457142857142856" y="553.3904761904762"/>
      <point x="43.457142857142856" y="345.0" type="curve" smooth="yes"/>
      <point x="43.457142857142856" y="136.6095238095238"/>
      <point x="203.45714285714286" y="-13.39047619047619"/>
      <point x="405.0190476190476" y="-13.39047619047619" type="curve" smooth="yes"/>
      <point x="607.5809523809523" y="-13.39047619047619"/>
      <point x="766.5809523809523" y="136.6095238095238"/>
      <point x="766.5809523809523" y="345.0" type="curve" smooth="yes"/>
      <point x="766.5809523809523" y="553.3904761904762"/>
      <point x="607.5809523809523" y="703.3904761904762"/>
    </contour>
    <contour>
      <point x="409.62857142857143" y="554.4095238095238" type="curve" smooth="yes"/>
      <point x="267.0190476190476" y="554.4095238095238"/>
      <point x="215.01904761904763" y="499.14285714285717"/>
      <point x="215.01904761904763" y="346.6095238095238" type="curve" smooth="yes"/>
      <point x="215.01904761904763" y="193.07619047619048"/>
      <point x="267.0190476190476" y="138.41904761904763"/>
      <point x="409.62857142857143" y="138.41904761904763" type="curve" smooth="yes"/>
      <point x="475.0190476190476" y="138.41904761904763"/>
      <point x="513.6285714285714" y="143.8095238095238"/>
      <point x="555.8" y="156.37142857142857" type="curve"/>
      <point x="547.2380952380952" y="235.72380952380954" type="line"/>
      <point x="505.84761904761905" y="232.1142857142857"/>
      <point x="469.62857142857143" y="231.5047619047619"/>
      <point x="409.0190476190476" y="231.5047619047619" type="curve" smooth="yes"/>
      <point x="344.32380952380953" y="231.5047619047619"/>
      <point x="327.6952380952381" y="255.74285714285713"/>
      <point x="327.6952380952381" y="346.6095238095238" type="curve" smooth="yes"/>
      <point x="327.6952380952381" y="437.0857142857143"/>
      <point x="344.32380952380953" y="461.7142857142857"/>
      <point x="409.0190476190476" y="461.7142857142857" type="curve" smooth="yes"/>
      <point x="466.0190476190476" y="461.7142857142857"/>
      <point x="494.0190476190476" y="460.7142857142857"/>
      <point x="537.0190476190476" y="459.8857142857143" type="curve"/>
      <point x="546.1904761904761" y="539.6285714285714" type="line"/>
      <point x="505.0190476190476" y="550.0190476190476"/>
      <point x="473.8" y="554.4095238095238"/>
    </contour>
    <contour>
      <point x="405.0190476190476" y="631.9904761904762" type="curve" smooth="yes"/>
      <point x="563.4285714285714" y="631.9904761904762"/>
      <point x="692.0095238095238" y="511.0190476190476"/>
      <point x="692.0095238095238" y="345.0" type="curve" smooth="yes"/>
      <point x="692.0095238095238" y="178.98095238095237"/>
      <point x="563.4285714285714" y="58.00952380952381"/>
      <point x="405.0190476190476" y="58.00952380952381" type="curve" smooth="yes"/>
      <point x="248.0" y="58.00952380952381"/>
      <point x="118.02857142857142" y="178.98095238095237"/>
      <point x="118.02857142857142" y="345.0" type="curve" smooth="yes"/>
      <point x="118.02857142857142" y="511.0190476190476"/>
      <point x="248.0" y="631.9904761904762"/>
    </contour>
  </outline>
</glyph>
<glyph name="ordfeminine" format="2">
  <advance width="437.26666666666665"/>
  <unicode hex="00AA"/>
  <outline>
    <contour>
      <point x="248.4857142857143" y="615.0761904761905" type="curve" smooth="yes"/>
      <point x="190.78095238095239" y="615.0761904761905"/>
      <point x="113.01904761904763" y="607.0761904761905"/>
      <point x="64.23809523809524" y="599.2952380952381" type="curve"/>
      <point x="74.58095238095238" y="525.847619047619" type="line"/>
      <point x="128.75238095238095" y="528.847619047619"/>
      <point x="183.58095238095237" y="531.2857142857143"/>
      <point x="224.06666666666666" y="531.2857142857143" type="curve" smooth="yes"/>
      <point x="260.64761904761906" y="531.2857142857143"/>
      <point x="273.0857142857143" y="517.8"/>
      <point x="273.0857142857143" y="491.53333333333336" type="curve" smooth="yes"/>
      <point x="273.0857142857143" y="357.51428571428573" type="line"/>
      <point x="280.03809523809525" y="346.56190476190477" type="line"/>
      <point x="294.55238095238093" y="274.56190476190477" type="line"/>
      <point x="380.8095238095238" y="274.56190476190477" type="line"/>
      <point x="380.8095238095238" y="490.53333333333336" type="line" smooth="yes"/>
      <point x="380.8095238095238" y="585.1238095238095"/>
      <point x="333.2952380952381" y="615.0761904761905"/>
    </contour>
    <contour>
      <point x="337.8285714285714" y="477.9047619047619" type="line"/>
      <point x="149.92380952380952" y="477.9047619047619" type="line" smooth="yes"/>
      <point x="85.8" y="477.9047619047619"/>
      <point x="47.06666666666666" y="445.73333333333335"/>
      <point x="47.06666666666666" y="393.56190476190477" type="curve" smooth="yes"/>
      <point x="47.06666666666666" y="358.12380952380954" type="line" smooth="yes"/>
      <point x="47.06666666666666" y="298.1714285714286"/>
      <point x="93.75238095238095" y="266.3904761904762"/>
      <point x="154.53333333333333" y="266.3904761904762" type="curve" smooth="yes"/>
      <point x="241.78095238095239" y="266.3904761904762"/>
      <point x="289.5809523809524" y="331.8095238095238"/>
      <point x="306.45714285714286" y="361.8095238095238" type="curve"/>
      <point x="306.45714285714286" y="406.8095238095238" type="line"/>
      <point x="279.9714285714286" y="377.93333333333334"/>
      <point x="230.78095238095239" y="347.6666666666667"/>
      <point x="191.85714285714286" y="347.6666666666667" type="curve" smooth="yes"/>
      <point x="165.10476190476192" y="347.6666666666667"/>
      <point x="151.61904761904762" y="355.2761904761905"/>
      <point x="151.61904761904762" y="378.0761904761905" type="curve" smooth="yes"/>
      <point x="151.61904761904762" y="387.9047619047619" type="line" smooth="yes"/>
      <point x="151.61904761904762" y="404.6095238095238"/>
      <point x="160.83809523809524" y="414.87619047619046"/>
      <point x="188.41904761904763" y="416.87619047619046" type="curve" smooth="yes"/>
      <point x="336.8285714285714" y="429.87619047619046" type="line"/>
    </contour>
  </outline>
</glyph>
<glyph name="logicalnot" format="2">
  <advance width="581.9714285714285"/>
  <unicode hex="00AC"/>
  <outline>
    <contour>
      <point x="518.1238095238095" y="354.79047619047617" type="line"/>
      <point x="58.06666666666666" y="354.79047619047617" type="line"/>
      <point x="58.06666666666666" y="249.8" type="line"/>
      <point x="518.1238095238095" y="249.8" type="line"/>
    </contour>
    <contour>
      <point x="518.1238095238095" y="346.2285714285714" type="line"/>
      <point x="408.2285714285714" y="341.93333333333334" type="line"/>
      <point x="408.2285714285714" y="134.56190476190477" type="line"/>
      <point x="518.1238095238095" y="134.95238095238096" type="line"/>
    </contour>
  </outline>
</glyph>
<glyph name="registered" format="2">
  <advance width="523.4761904761905"/>
  <unicode hex="00AE"/>
  <outline>
    <contour>
      <point x="262.23809523809524" y="702.7809523809524" type="curve" smooth="yes"/>
      <point x="138.23809523809524" y="702.7809523809524"/>
      <point x="39.23809523809524" y="603.7809523809524"/>
      <point x="39.23809523809524" y="480.7809523809524" type="curve" smooth="yes"/>
      <point x="39.23809523809524" y="356.7809523809524"/>
      <point x="138.23809523809524" y="257.7809523809524"/>
      <point x="262.23809523809524" y="257.7809523809524" type="curve" smooth="yes"/>
      <point x="385.23809523809524" y="257.7809523809524"/>
      <point x="484.23809523809524" y="356.7809523809524"/>
      <point x="484.23809523809524" y="480.7809523809524" type="curve" smooth="yes"/>
      <point x="484.23809523809524" y="603.7809523809524"/>
      <point x="385.23809523809524" y="702.7809523809524"/>
    </contour>
    <contour>
      <point x="225.07619047619048" y="600.1428571428571" type="line"/>
      <point x="162.62857142857143" y="600.1428571428571" type="line"/>
      <point x="162.62857142857143" y="367.15238095238095" type="line"/>
      <point x="225.07619047619048" y="367.15238095238095" type="line"/>
    </contour>
    <contour>
      <point x="262.23809523809524" y="659.8" type="curve" smooth="yes"/>
      <point x="359.16190476190474" y="659.8"/>
      <point x="439.64761904761906" y="579.7047619047619"/>
      <point x="439.64761904761906" y="480.7809523809524" type="curve" smooth="yes"/>
      <point x="439.64761904761906" y="381.46666666666664"/>
      <point x="359.16190476190474" y="301.37142857142857"/>
      <point x="262.23809523809524" y="301.37142857142857" type="curve" smooth="yes"/>
      <point x="164.31428571428572" y="301.37142857142857"/>
      <point x="83.82857142857142" y="381.46666666666664"/>
      <point x="83.82857142857142" y="480.7809523809524" type="curve" smooth="yes"/>
      <point x="83.82857142857142" y="579.7047619047619"/>
      <point x="164.31428571428572" y="659.8"/>
    </contour>
    <contour>
      <point x="268.67619047619047" y="603.1428571428571" type="curve" smooth="yes"/>
      <point x="218.06666666666666" y="603.1428571428571"/>
      <point x="195.84761904761905" y="603.1428571428571"/>
      <point x="162.62857142857143" y="600.1428571428571" type="curve"/>
      <point x="169.23809523809524" y="556.1619047619048" type="line"/>
      <point x="181.84761904761905" y="557.552380952381"/>
      <point x="218.67619047619047" y="557.552380952381"/>
      <point x="266.8952380952381" y="557.552380952381" type="curve" smooth="yes"/>
      <point x="299.5238095238095" y="557.552380952381"/>
      <point x="309.2285714285714" y="552.504761904762"/>
      <point x="308.6190476190476" y="527.7047619047619" type="curve" smooth="yes"/>
      <point x="309.2285714285714" y="504.73333333333335"/>
      <point x="299.5238095238095" y="497.6857142857143"/>
      <point x="266.8952380952381" y="497.0761904761905" type="curve" smooth="yes"/>
      <point x="168.23809523809524" y="497.0761904761905" type="line"/>
      <point x="167.62857142857143" y="456.8285714285714" type="line"/>
      <point x="187.97142857142856" y="455.8285714285714"/>
      <point x="210.5047619047619" y="455.8285714285714"/>
      <point x="266.3333333333333" y="455.8285714285714" type="curve" smooth="yes"/>
      <point x="282.20952380952383" y="455.8285714285714"/>
      <point x="290.0857142857143" y="451.7809523809524"/>
      <point x="295.9142857142857" y="436.9047619047619" type="curve" smooth="yes"/>
      <point x="315.44761904761907" y="367.15238095238095" type="line"/>
      <point x="381.67619047619047" y="367.15238095238095" type="line"/>
      <point x="357.9714285714286" y="439.2952380952381" type="line" smooth="yes"/>
      <point x="350.9714285714286" y="466.85714285714283"/>
      <point x="333.8" y="474.12380952380954"/>
      <point x="318.1904761904762" y="475.73333333333335" type="curve"/>
      <point x="318.1904761904762" y="477.73333333333335" type="line"/>
      <point x="359.0190476190476" y="482.34285714285716"/>
      <point x="372.06666666666666" y="504.12380952380954"/>
      <point x="372.06666666666666" y="534.2666666666667" type="curve" smooth="yes"/>
      <point x="372.06666666666666" y="587.5333333333333"/>
      <point x="341.2857142857143" y="603.1428571428571"/>
    </contour>
  </outline>
</glyph>
<glyph name="degree" format="2">
  <advance width="343.8952380952381"/>
  <unicode hex="00B0"/>
  <outline>
    <contour>
      <point x="172.14285714285714" y="703.3904761904762" type="curve" smooth="yes"/>
      <point x="97.19047619047619" y="703.3904761904762"/>
      <point x="35.84761904761905" y="644.2190476190476"/>
      <point x="35.84761904761905" y="571.0952380952381" type="curve" smooth="yes"/>
      <point x="35.84761904761905" y="496.9714285714286"/>
      <point x="97.8" y="437.1904761904762"/>
      <point x="172.14285714285714" y="437.1904761904762" type="curve" smooth="yes"/>
      <point x="246.0952380952381" y="437.1904761904762"/>
      <point x="308.04761904761904" y="496.9714285714286"/>
      <point x="308.04761904761904" y="571.0952380952381" type="curve" smooth="yes"/>
      <point x="308.04761904761904" y="644.8285714285714"/>
      <point x="245.4857142857143" y="703.3904761904762"/>
    </contour>
    <contour>
      <point x="172.14285714285714" y="629.2380952380952" type="curve" smooth="yes"/>
      <point x="203.84761904761905" y="629.2380952380952"/>
      <point x="229.72380952380954" y="605.8"/>
      <point x="229.72380952380954" y="571.0952380952381" type="curve" smooth="yes"/>
      <point x="229.72380952380954" y="536.3904761904762"/>
      <point x="203.23809523809524" y="511.34285714285716"/>
      <point x="172.14285714285714" y="511.34285714285716" type="curve" smooth="yes"/>
      <point x="140.04761904761904" y="511.34285714285716"/>
      <point x="114.17142857142858" y="536.3904761904762"/>
      <point x="114.17142857142858" y="571.0952380952381" type="curve" smooth="yes"/>
      <point x="114.17142857142858" y="605.8"/>
      <point x="140.04761904761904" y="629.2380952380952"/>
    </contour>
  </outline>
</glyph>
<glyph name="plusminus" format="2">
  <advance width="573.847619047619"/>
  <unicode hex="00B1"/>
  <outline>
    <contour>
      <point x="514.6095238095238" y="427.20952380952383" type="line"/>
      <point x="59.23809523809524" y="427.20952380952383" type="line"/>
      <point x="59.23809523809524" y="318.3142857142857" type="line"/>
      <point x="514.6095238095238" y="318.3142857142857" type="line"/>
    </contour>
    <contour>
      <point x="514.6095238095238" y="153.27619047619046" type="line"/>
      <point x="59.23809523809524" y="153.27619047619046" type="line"/>
      <point x="59.23809523809524" y="44.6" type="line"/>
      <point x="514.6095238095238" y="44.6" type="line"/>
    </contour>
    <contour>
      <point x="341.5904761904762" y="547.4" type="line"/>
      <point x="232.25714285714287" y="547.4" type="line"/>
      <point x="232.25714285714287" y="198.5142857142857" type="line"/>
      <point x="341.37142857142857" y="198.5142857142857" type="line"/>
    </contour>
  </outline>
</glyph>
<glyph name="twosuperior" format="2">
  <advance width="432.2190476190476"/>
  <unicode hex="00B2"/>
  <outline>
    <contour>
      <point x="202.82857142857142" y="781.0" type="curve" smooth="yes"/>
      <point x="171.0" y="781.0"/>
      <point x="117.97142857142858" y="779.3904761904762"/>
      <point x="53.19047619047619" y="767.7809523809524" type="curve"/>
      <point x="57.19047619047619" y="683.6952380952381" type="line"/>
      <point x="116.36190476190477" y="685.9619047619047"/>
      <point x="148.36190476190475" y="686.5714285714286"/>
      <point x="192.53333333333333" y="686.5714285714286" type="curve" smooth="yes"/>
      <point x="228.94285714285715" y="686.5714285714286"/>
      <point x="250.3047619047619" y="683.7428571428571"/>
      <point x="246.74285714285713" y="660.1142857142858" type="curve" smooth="yes"/>
      <point x="242.4" y="635.9238095238095"/>
      <point x="214.61904761904762" y="602.2190476190476"/>
      <point x="166.9142857142857" y="558.6857142857143" type="curve" smooth="yes"/>
      <point x="65.70476190476191" y="465.81904761904764" type="line" smooth="yes"/>
      <point x="52.58095238095238" y="453.0857142857143"/>
      <point x="49.19047619047619" y="438.18095238095236"/>
      <point x="49.19047619047619" y="419.4952380952381" type="curve" smooth="yes"/>
      <point x="49.19047619047619" y="360.0" type="line"/>
      <point x="383.2" y="360.0" type="line"/>
      <point x="383.8095238095238" y="456.25714285714287" type="line"/>
      <point x="252.03809523809525" y="458.03809523809525" type="line" smooth="yes"/>
      <point x="229.2095238095238" y="458.42857142857144"/>
      <point x="212.6" y="457.25714285714287"/>
      <point x="190.16190476190476" y="453.0857142857143" type="curve"/>
      <point x="297.6190476190476" y="551.2476190476191" type="line" smooth="yes"/>
      <point x="346.32380952380953" y="596.6095238095238"/>
      <point x="370.15238095238095" y="638.8285714285714"/>
      <point x="370.15238095238095" y="674.5809523809523" type="curve" smooth="yes"/>
      <point x="370.15238095238095" y="763.4380952380952"/>
      <point x="314.8095238095238" y="781.0"/>
    </contour>
  </outline>
</glyph>
<glyph name="threesuperior" format="2">
  <advance width="412.8285714285714"/>
  <unicode hex="00B3"/>
  <outline>
    <contour>
      <point x="203.34285714285716" y="782.3904761904762" type="curve" smooth="yes"/>
      <point x="154.6095238095238" y="782.3904761904762"/>
      <point x="105.31428571428572" y="778.3904761904762"/>
      <point x="54.8" y="771.0" type="curve"/>
      <point x="58.8" y="691.2571428571429" type="line"/>
      <point x="91.97142857142858" y="692.0857142857143"/>
      <point x="137.53333333333333" y="692.3047619047619"/>
      <point x="184.0952380952381" y="692.3047619047619" type="curve" smooth="yes"/>
      <point x="235.77142857142857" y="692.3047619047619"/>
      <point x="248.6952380952381" y="685.4285714285714"/>
      <point x="248.6952380952381" y="656.0190476190476" type="curve" smooth="yes"/>
      <point x="248.6952380952381" y="631.7047619047619"/>
      <point x="243.47619047619048" y="612.6380952380953"/>
      <point x="190.58095238095237" y="612.2476190476191" type="curve" smooth="yes"/>
      <point x="104.8" y="610.6857142857143" type="line"/>
      <point x="104.8" y="536.5809523809523" type="line"/>
      <point x="190.58095238095237" y="535.4095238095238" type="line" smooth="yes"/>
      <point x="244.86666666666667" y="535.0190476190476"/>
      <point x="254.13333333333333" y="518.0"/>
      <point x="254.13333333333333" y="490.6857142857143" type="curve" smooth="yes"/>
      <point x="254.13333333333333" y="452.6190476190476"/>
      <point x="238.38095238095238" y="442.0857142857143"/>
      <point x="176.23809523809524" y="442.0857142857143" type="curve" smooth="yes"/>
      <point x="135.1904761904762" y="442.0857142857143"/>
      <point x="105.48571428571428" y="442.3047619047619"/>
      <point x="50.01904761904762" y="444.9142857142857" type="curve"/>
      <point x="46.01904761904762" y="363.0" type="line"/>
      <point x="96.75238095238095" y="356.6095238095238"/>
      <point x="152.26666666666668" y="351.6095238095238"/>
      <point x="207.0" y="351.6095238095238" type="curve" smooth="yes"/>
      <point x="328.247619047619" y="351.6095238095238"/>
      <point x="371.5904761904762" y="387.04761904761904"/>
      <point x="369.9809523809524" y="475.0" type="curve" smooth="yes"/>
      <point x="368.9809523809524" y="538.1238095238095"/>
      <point x="348.9809523809524" y="570.0"/>
      <point x="281.0285714285714" y="579.0" type="curve"/>
      <point x="281.0285714285714" y="581.0" type="line"/>
      <point x="344.37142857142857" y="589.6095238095238"/>
      <point x="358.5904761904762" y="626.8761904761905"/>
      <point x="358.5904761904762" y="686.0" type="curve" smooth="yes"/>
      <point x="358.5904761904762" y="759.3904761904762"/>
      <point x="319.4190476190476" y="782.3904761904762"/>
    </contour>
  </outline>
</glyph>
